<?xml version="1.0" standalone="no"?>
<!DOCTYPE svg PUBLIC "-//W3C//DTD SVG 1.1//EN" "http://www.w3.org/Graphics/SVG/1.1/DTD/svg11.dtd" >
<svg xmlns="http://www.w3.org/2000/svg" xmlns:xlink="http://www.w3.org/1999/xlink" version="1.1">
<metadata>
Created by FontForge 20230101 at Thu Nov  6 01:19:19 2014
 By Unknown
Copyright (c) 2006 - 2012 Linotype GmbH, www.linotype.com. All rights reserved. This font software may not be reproduced, modified, disclosed or transferred without the express written approval of Linotype GmbH. Times Eighteen is a trademark of Linotype GmbH registered in the U.S. Patent and Trademark Office and certain other jurisdictions. This typeface is original artwork of Stanley Morison. The design may be protected in certain jurisdictions.
</metadata>
<defs>
<font id="TimesEighteenW04-Bold" horiz-adv-x="500" >
  <font-face 
    font-family="TimesEighteenW04-Bold"
    font-weight="700"
    font-stretch="normal"
    units-per-em="1000"
    panose-1="2 5 8 2 7 9 5 4 12 4"
    ascent="800"
    descent="-200"
    x-height="503"
    cap-height="735"
    bbox="-178 -250 986 985"
    underline-thickness="50"
    underline-position="-125"
    unicode-range="U+000D-FB02"
  />
<missing-glyph horiz-adv-x="485" 
d="M210 174h53v-63h-53v63zM211 238q0 25 2.5 43t9 32.5t17.5 27.5t28 28q30 29 38 46t8 34q0 34 -21.5 57t-50.5 23t-50.5 -20.5t-26.5 -69.5l-48 8q7 69 42 99.5t86 30.5q52 0 85 -33.5t33 -90.5q0 -31 -12 -55.5t-48 -57.5q-16 -14 -25 -24t-13.5 -19.5t-6 -20.5
t-1.5 -26v-28h-46v16zM438 47v585h-391v-585h391zM0 680h485v-680h-485v680z" />
    <glyph glyph-name="IJ" unicode="IJ" horiz-adv-x="889" 
d="M14 19h11q27 2 44 6.5t26.5 15t12.5 28.5t3 47v520q0 44 -18.5 60t-67.5 20h-11v19h347v-19h-11q-20 -1 -35.5 -4t-26.5 -12t-16.5 -27.5t-5.5 -51.5v-511q0 -28 3.5 -45t13 -27t27 -14t44.5 -5v-19h-340v19zM617 602q0 37 -4 58.5t-14.5 33.5t-30 16t-49.5 6v19h349v-19
h-11q-26 -1 -42 -5t-26 -13t-13.5 -24t-3.5 -38v-519q0 -62 -18 -102.5t-48 -65t-67.5 -34.5t-76.5 -10q-36 0 -66.5 9t-52 25t-34 39t-12.5 50q0 36 20 57.5t54 21.5q30 0 47 -18t17 -50q0 -17 -4 -28.5t-8.5 -20t-8.5 -14t-4 -11.5q0 -11 13 -19t31 -8q33 0 48 23t15 77
v564z" />
    <glyph glyph-name="ij" unicode="ij" horiz-adv-x="611" 
d="M213 655q0 -32 -22 -54t-54 -22t-54.5 22t-22.5 54t22.5 53.5t54.5 21.5t54 -21.5t22 -53.5zM18 19q51 0 51 46v371q0 26 -9.5 36.5t-36.5 12.5v18h183v-437q0 -47 51 -47v-19h-239v19zM541 655q0 -32 -22 -54t-54 -22t-54.5 22t-22.5 54t22.5 53.5t54.5 21.5t54 -21.5
t22 -53.5zM397 427q0 32 -14 45t-56 13v18h206v-522q0 -47 -13 -86.5t-37 -68t-59 -44.5t-79 -16q-52 0 -87.5 25t-35.5 65q0 26 19 43.5t47 17.5q26 0 43 -14.5t17 -35.5q0 -9 -2.5 -15t-6 -11t-6 -10t-2.5 -12q0 -19 23 -19q20 0 31.5 17t11.5 46v564z" />
    <glyph glyph-name="napostrophe" unicode="&#x22;n" horiz-adv-x="556" 
d="M32 19q23 4 32.5 13.5t9.5 32.5v374q0 23 -9.5 33.5t-32.5 12.5v18h176v-76q38 42 72.5 62t76.5 20q60 0 91 -39t31 -114v-291q0 -23 10 -33t34 -13v-19h-224v19q24 3 34 13t10 33v332q0 46 -45 46q-23 0 -43 -15.5t-44 -43.5v-319q0 -23 9.5 -33.5t35.5 -12.5v-19h-224
v19zM-24 571q25 16 33.5 31t8.5 29q0 12 -6.5 17.5t-14.5 11t-14.5 14t-6.5 26.5q0 21 12.5 35.5t32.5 14.5q25 0 41.5 -21t16.5 -53q0 -42 -25 -76t-70 -51z" />
    <glyph glyph-name="uniFB01" unicode="fi" horiz-adv-x="556" 
d="M12 19q32 0 42 11t10 39v388h-51v46h51v24q0 46 12.5 85t41.5 67.5t76.5 45t118.5 16.5q36 0 66 -8t51.5 -21.5t33.5 -32t12 -38.5q0 -29 -19.5 -43t-48.5 -14q-35 0 -52 14.5t-17 36.5q0 12 2.5 19.5t5 13.5t5 11t2.5 12q0 9 -17.5 14.5t-34.5 5.5q-51 0 -75.5 -26.5
t-24.5 -86.5v-95h106q18 0 41 0.5t48 1.5t49.5 3t44.5 5v-447q0 -28 10.5 -37.5t36.5 -9.5v-19h-232v19q26 0 37 11.5t11 34.5v343q0 15 -0.5 24.5t-5 15t-14 7.5t-26.5 2h-106v-388q0 -29 11.5 -39.5t32.5 -10.5h5v-19h-239v19z" />
    <glyph glyph-name="uniFB02" unicode="fl" horiz-adv-x="556" 
d="M354 503v102q-13 13 -13 30q0 13 6.5 25t6.5 23q0 28 -52 28q-51 0 -75.5 -26.5t-24.5 -86.5v-95h152zM12 19q32 0 42 11t10 39v388h-51v46h51v24q0 46 13 85t41.5 67.5t72.5 45t107 16.5q40 0 67.5 -7.5t50.5 -20.5l75 28v-677q0 -26 8 -35.5t39 -9.5v-19h-234v19
q32 0 41 9.5t9 35.5v393h-152v-388q0 -29 11.5 -39.5t32.5 -10.5h5v-19h-239v19z" />
    <glyph glyph-name=".notdef" horiz-adv-x="485" 
d="M210 174h53v-63h-53v63zM211 238q0 25 2.5 43t9 32.5t17.5 27.5t28 28q30 29 38 46t8 34q0 34 -21.5 57t-50.5 23t-50.5 -20.5t-26.5 -69.5l-48 8q7 69 42 99.5t86 30.5q52 0 85 -33.5t33 -90.5q0 -31 -12 -55.5t-48 -57.5q-16 -14 -25 -24t-13.5 -19.5t-6 -20.5
t-1.5 -26v-28h-46v16zM438 47v585h-391v-585h391zM0 680h485v-680h-485v680z" />
    <glyph glyph-name="glyph1" 
 />
    <glyph glyph-name="uni000D" unicode="&#xd;" horiz-adv-x="250" 
 />
    <glyph glyph-name="space" unicode=" " horiz-adv-x="250" 
 />
    <glyph glyph-name="exclam" unicode="!" horiz-adv-x="278" 
d="M125 237q-2 53 -13 113.5t-23 117.5t-22 105.5t-10 77.5q0 45 21 70.5t59 25.5t60 -25.5t22 -70.5q0 -29 -10 -77.5t-22 -105.5t-23 -117.5t-13 -113.5h-26zM219 68q0 -33 -23.5 -57t-57.5 -24t-57.5 24t-23.5 57q0 34 23.5 57.5t57.5 23.5t57.5 -23.5t23.5 -57.5z" />
    <glyph glyph-name="quotedbl" unicode="&#x22;" horiz-adv-x="389" 
d="M60 629q0 10 1.5 22t7 22t15 16.5t24.5 6.5t24.5 -6.5t15 -16.5t7 -22t1.5 -22l-21 -219q-1 -6 -5.5 -18t-21.5 -12q-16 0 -21.5 12t-6.5 19zM227 629q0 10 1.5 22t7 22t15 16.5t24.5 6.5t24.5 -6.5t15 -16.5t7 -22t1.5 -22l-21 -219q-1 -6 -5.5 -18t-21.5 -12
q-16 0 -21.5 11.5t-6.5 19.5z" />
    <glyph glyph-name="numbersign" unicode="#" 
d="M299 274l18 132h-110l-18 -132h110zM95 196h-85v78h96l18 132h-86v78h97l27 196h83l-27 -196h110l27 196h83l-27 -196h77v-78h-88l-18 -132h78v-78h-89l-27 -196h-83l27 196h-110l-27 -196h-83z" />
    <glyph glyph-name="dollar" unicode="$" 
d="M211 0q-41 2 -77 9t-62.5 17.5t-42 23t-15.5 25.5l5 109h18q16 -67 57.5 -103.5t116.5 -44.5v279l-18 13q-55 40 -89 68.5t-53 53t-26 48t-7 53.5q0 78 51 126.5t142 55.5v111h53v-111q48 0 90.5 -12t64.5 -24q14 -8 19.5 -17t6.5 -35l2 -103h-19q-13 43 -30 72.5
t-38 47.5t-45 26t-51 9v-240l21 -14t18 -12.5t21.5 -15t32.5 -23.5q32 -23 55 -44t37.5 -43.5t21.5 -47.5t7 -56q0 -184 -214 -201v-113h-53v113zM211 697q-42 -1 -68.5 -25.5t-26.5 -60.5q0 -16 4.5 -29.5t15.5 -27.5t29.5 -29t45.5 -34v206zM264 36q49 6 77 36t28 75
q0 38 -23 68t-82 69v-248z" />
    <glyph glyph-name="percent" unicode="%" horiz-adv-x="1000" 
d="M439 533q0 -39 -13 -71.5t-36 -55.5t-55.5 -35.5t-72.5 -12.5q-38 0 -69 12t-53.5 34t-34.5 53.5t-12 69.5t13 70t36 55t55 36t70 13t70 -12t54.5 -34.5t35 -53.5t12.5 -68zM651 723h53l-362 -755h-55zM906 161q0 -81 -48 -127.5t-130 -46.5q-76 0 -122 45.5t-46 123.5
q0 38 13 70t36 55t55.5 36t70.5 13q39 0 70.5 -12t54 -34.5t34.5 -53.5t12 -69zM333 542q0 126 -65 126q-38 0 -55 -36.5t-17 -117.5q0 -123 66 -123q38 0 54.5 35t16.5 116zM801 170q0 66 -15.5 96t-49.5 30q-38 0 -55 -35.5t-17 -117.5q0 -123 66 -123q38 0 54.5 34.5
t16.5 115.5z" />
    <glyph glyph-name="ampersand" unicode="&#x26;" horiz-adv-x="778" 
d="M435 76q-52 -48 -103 -69.5t-106 -21.5q-43 0 -78 14t-60 40.5t-38.5 63t-13.5 81.5q0 72 45.5 133t145.5 109q-12 26 -18 58.5t-6 67.5q0 91 51 144.5t139 53.5q66 0 103.5 -36t37.5 -99q0 -57 -37 -101t-124 -71l7 -14q19 -40 36 -69.5t42 -63.5q9 -13 16 -22.5t13 -18
t13 -16.5t16 -19q32 48 45.5 77t13.5 52q0 25 -15 38t-48 18v19h215v-19l-13 -3q-21 -5 -33.5 -10.5t-21.5 -13.5t-16 -19t-17 -27q-16 -26 -31.5 -51.5t-29.5 -45.5l-31 -46q9 -12 15.5 -21t13 -16.5t14 -14.5t18.5 -16q18 -16 31 -21.5t32 -5.5q31 0 51 23l16 -14
q-71 -119 -151 -119q-14 0 -26.5 3.5t-26.5 12t-30.5 23t-38.5 36.5zM443 592q0 57 -21.5 90t-56.5 33q-27 0 -44 -19t-17 -48t14.5 -74t40.5 -99q24 10 40.5 20.5t26 24t13.5 31t4 41.5zM413 104q-54 69 -98 136.5t-75 149.5q-70 -28 -70 -101q0 -45 19 -90.5t52 -82.5
q45 -48 91 -48q17 0 32 6t40 23z" />
    <glyph glyph-name="quotesingle" unicode="'" horiz-adv-x="222" 
d="M63 630q0 10 1.5 22t7 22t15 16.5t24.5 6.5t24.5 -6.5t15 -16.5t7 -22t1.5 -22l-21 -219q-1 -6 -5.5 -18t-21.5 -12q-16 0 -21.5 12t-6.5 19z" />
    <glyph glyph-name="parenleft" unicode="(" horiz-adv-x="333" 
d="M308 -139q-37 6 -85 38.5t-91.5 89.5t-73.5 136.5t-30 179.5t30 179.5t73.5 136.5t91.5 89.5t85 38.5v-21q-72 -29 -111.5 -137t-39.5 -286t39.5 -286t111.5 -137v-21z" />
    <glyph glyph-name="parenright" unicode=")" horiz-adv-x="333" 
d="M20 -118q72 29 111.5 137t39.5 286t-39.5 286t-111.5 137v21q37 -6 85 -38.5t91.5 -89.5t73.5 -136.5t30 -179.5t-30 -179.5t-73.5 -136.5t-91.5 -89.5t-85 -38.5v21z" />
    <glyph glyph-name="asterisk" unicode="*" horiz-adv-x="389" 
d="M358 488q0 -20 -12 -32.5t-30 -12.5q-14 0 -26.5 9t-21.5 22q-8 11 -13 19t-15 18q-8 8 -18 17t-16 9q-9 0 -9 -10t6 -24.5t13 -30.5t13 -32t6 -28q0 -42 -44 -42t-44 47q0 10 5.5 24t12.5 29.5t12.5 30t5.5 25.5t-9 11q-10 0 -19.5 -9.5t-29.5 -38.5q-17 -24 -31 -34
t-32 -10t-30 13.5t-12 33.5q0 23 16 32.5t53 11.5q77 5 77 23q0 4 -11 9q-6 2 -11.5 3.5t-13 2.5t-18 2t-27.5 3q-35 3 -49.5 14t-14.5 33q0 19 12 31t31 12q14 0 28.5 -9t34.5 -43q9 -15 22.5 -26t23.5 -11q9 0 9 13q0 12 -3 26t-11 28q-9 16 -15 32t-6 24q0 18 12.5 29.5
t31.5 11.5t31.5 -13t12.5 -33q0 -8 -1.5 -13.5t-8.5 -18.5q-26 -57 -26 -75q0 -12 8 -12q3 0 7 3t7 6q15 14 25.5 28t22.5 28q9 10 14.5 15.5t10.5 8t10 3t11 0.5q19 0 31 -11.5t12 -30.5q0 -12 -6.5 -23.5t-16.5 -16.5q-9 -5 -26.5 -8t-43.5 -6q-20 -2 -35 -6.5t-15 -12.5
q0 -9 22.5 -14t55.5 -7q65 -3 65 -47z" />
    <glyph glyph-name="plus" unicode="+" horiz-adv-x="600" 
d="M261 214h-236v78h236v213h78v-213h236v-78h-236v-214h-78v214z" />
    <glyph glyph-name="comma" unicode="," horiz-adv-x="250" 
d="M51 -153q51 31 81.5 65.5t30.5 62.5q0 9 -4 15t-11 6q-8 0 -15 -2t-18 -2q-32 0 -54.5 23t-22.5 56q0 35 23.5 58t58.5 23q45 0 74 -34t29 -86q0 -33 -12.5 -64t-35 -58t-54 -48.5t-70.5 -35.5v21z" />
    <glyph glyph-name="hyphen" unicode="-" horiz-adv-x="333" 
d="M30 299h266v-99h-266v99z" />
    <glyph glyph-name="period" unicode="." horiz-adv-x="250" 
d="M206 68q0 -33 -23.5 -57t-57.5 -24t-57.5 24t-23.5 57q0 34 23.5 57.5t57.5 23.5t57.5 -23.5t23.5 -57.5z" />
    <glyph glyph-name="slash" unicode="/" horiz-adv-x="278" 
d="M197 725h76l-204 -725h-76z" />
    <glyph glyph-name="zero" unicode="0" 
d="M471 368q0 -84 -16.5 -153t-46 -118.5t-71 -76.5t-91.5 -27t-91.5 27.5t-71 77t-46 118.5t-16.5 152q0 84 16.5 153t46 118.5t71 76.5t91.5 27q49 0 90.5 -28.5t71.5 -79t46.5 -119t16.5 -148.5zM324 368q0 99 -2 165.5t-10 107t-23.5 57.5t-42.5 17t-42.5 -17
t-23.5 -57.5t-10 -107t-2 -165.5q0 -100 2 -166.5t10 -106.5t23.5 -57t42.5 -17t42.5 17t23.5 57t10 106.5t2 166.5z" />
    <glyph glyph-name="one" unicode="1" 
d="M83 19h12q28 1 45.5 6.5t27.5 17.5t13.5 32.5t3.5 52.5v428q0 44 -9.5 59.5t-38.5 15.5q-15 0 -28.5 -4t-25.5 -9v24l236 101h10v-638q0 -26 3.5 -43t13 -26.5t26 -13t43.5 -3.5h6v-19h-338v19z" />
    <glyph glyph-name="two" unicode="2" 
d="M21 19l173 230q54 69 78 129.5t24 117.5q0 61 -37 98.5t-98 37.5q-42 0 -69.5 -19.5t-47.5 -61.5h-17q4 43 21.5 78t45 60.5t64 39.5t78.5 14q43 0 78.5 -13.5t61.5 -38t40.5 -58t14.5 -73.5q0 -56 -27.5 -108.5t-79.5 -115.5l-163 -203h145q36 0 61.5 3.5t44 11.5
t31 21.5t21.5 33.5h20l-60 -203h-403v19z" />
    <glyph glyph-name="three" unicode="3" 
d="M157 389q66 15 101 51.5t35 90.5q0 27 -9 49.5t-25.5 39t-38.5 25.5t-49 9q-73 0 -113 -73h-20q5 35 23 65t46 51.5t63.5 33.5t76.5 12q38 0 70 -11t55 -31t35.5 -47t12.5 -60q0 -39 -17.5 -73t-58.5 -75q63 -42 90.5 -86t27.5 -105q0 -58 -23 -106t-64.5 -83t-99 -54.5
t-125.5 -19.5q-66 0 -103 21.5t-37 59.5q0 21 13 34.5t33 13.5q17 0 35 -9t54 -37q28 -22 49 -30.5t46 -8.5q51 0 81.5 37t30.5 95q0 155 -195 202v19z" />
    <glyph glyph-name="four" unicode="4" 
d="M266 145h-252v108l345 482h51v-482h62v-108h-62v-145h-144v145zM266 253v296l-212 -296h212z" />
    <glyph glyph-name="five" unicode="5" 
d="M155 735h308l-53 -123h-264l-35 -96q100 0 168 -24.5t109 -62.5t58.5 -85t17.5 -93q0 -55 -22 -102.5t-60 -82t-90 -54.5t-113 -20q-33 0 -61 6t-48.5 17.5t-31.5 27t-11 34.5t13 31t34 12q31 0 87 -40q31 -22 54.5 -30.5t46.5 -8.5q57 0 91.5 35.5t34.5 92.5
q0 51 -25 90t-71.5 64.5t-112.5 38.5t-148 13z" />
    <glyph glyph-name="six" unicode="6" 
d="M463 728q-31 -7 -53 -13.5t-39 -13t-31.5 -14.5t-30.5 -19q-110 -78 -135 -237q22 12 53 19.5t58 7.5q40 0 73 -16t56.5 -44.5t36.5 -68t13 -87.5q0 -55 -16 -101t-45.5 -79t-70 -51.5t-88.5 -18.5q-106 0 -166 76t-60 212q0 93 28 176.5t79 141.5q24 27 54 51.5
t70.5 44.5t93 34t120.5 19v-19zM323 216q0 197 -99 197q-16 0 -27 -4t-18 -17.5t-10 -38.5t-3 -67q0 -63 4.5 -115t10.5 -84q5 -31 24.5 -49t45.5 -18q20 0 34 10t22.5 33t12 60.5t3.5 92.5z" />
    <glyph glyph-name="seven" unicode="7" 
d="M365 608h-179q-42 0 -67 -3t-41 -12t-26.5 -25.5t-23.5 -42.5h-16l50 210h415l-254 -742h-68z" />
    <glyph glyph-name="eight" unicode="8" 
d="M466 193q0 -97 -61.5 -149t-175.5 -52q-100 0 -153 48.5t-53 139.5q0 37 11.5 65t30 49t43 36.5t51.5 29.5q-124 76 -124 196q0 88 58 137.5t164 49.5q91 0 141.5 -44.5t50.5 -123.5q0 -20 -4.5 -40t-17 -39.5t-35.5 -39t-59 -37.5q37 -30 62.5 -57t41.5 -53.5
t22.5 -54.5t6.5 -61zM338 580q0 66 -22.5 100.5t-67.5 34.5q-40 0 -62.5 -25.5t-22.5 -71.5q0 -49 30.5 -88.5t103.5 -83.5q22 23 31.5 54.5t9.5 79.5zM332 138q0 27 -7.5 52t-24 49t-42.5 48t-64 50q-29 -24 -41 -59t-12 -98q0 -159 98 -159q45 0 69 31t24 86z" />
    <glyph glyph-name="nine" unicode="9" 
d="M28 7q31 7 53 13t38.5 13t31 15t31.5 19q110 78 135 237q-22 -12 -53 -19.5t-58 -7.5q-40 0 -73 15.5t-56.5 44t-36.5 68.5t-13 88q0 55 16 101t45.5 79t70 51.5t88.5 18.5q106 0 166 -76t60 -212q0 -93 -28 -176.5t-79 -141.5q-24 -27 -54 -51.5t-70.5 -44.5t-93 -34
t-120.5 -19v19zM325 449q0 61 -3 110.5t-12.5 84t-26 53t-43.5 18.5q-20 0 -34 -9t-22.5 -31.5t-12 -60t-3.5 -95.5q0 -99 27.5 -148t76.5 -49q16 0 26.5 4t16.5 17t8 38.5t2 67.5z" />
    <glyph glyph-name="colon" unicode=":" horiz-adv-x="250" 
d="M206 431q0 -34 -23.5 -57.5t-57.5 -23.5t-57.5 23.5t-23.5 57.5q0 33 23.5 57t57.5 24t57.5 -24t23.5 -57zM206 68q0 -33 -23.5 -57t-57.5 -24t-57.5 24t-23.5 57q0 34 23.5 57.5t57.5 23.5t57.5 -23.5t23.5 -57.5z" />
    <glyph glyph-name="semicolon" unicode=";" horiz-adv-x="250" 
d="M206 431q0 -34 -23.5 -57.5t-57.5 -23.5q-33 0 -57 23.5t-24 57.5q0 33 24 57t57 24q34 0 57.5 -24t23.5 -57zM45 -153q51 31 81.5 65.5t30.5 62.5q0 9 -4 15t-11 6q-2 0 -4.5 -0.5t-5.5 -0.5q-12 -3 -23 -3q-32 0 -54.5 23t-22.5 56q0 35 23.5 58t58.5 23q45 0 74 -34
t29 -86q0 -33 -12.5 -64t-35 -58t-54 -48.5t-70.5 -35.5v21z" />
    <glyph glyph-name="less" unicode="&#x3c;" horiz-adv-x="600" 
d="M60 196v78l476 206v-90l-356 -155l356 -155v-90z" />
    <glyph glyph-name="equal" unicode="=" horiz-adv-x="600" 
d="M24 213h550v-78h-550v78zM24 370h550v-78h-550v78z" />
    <glyph glyph-name="greater" unicode="&#x3e;" horiz-adv-x="600" 
d="M64 80l356 155l-356 155v90l476 -206v-78l-476 -206v90z" />
    <glyph glyph-name="question" unicode="?" horiz-adv-x="444" 
d="M178 255q0 37 6 60.5t14.5 42t19 35t19 38.5t14.5 54t6 81q0 66 -23 101.5t-68 35.5q-18 0 -29 -8.5t-11 -22.5q0 -12 4.5 -22t10 -20.5t10 -23.5t4.5 -29q0 -26 -16 -40.5t-43 -14.5q-32 0 -52 21.5t-20 56.5q0 30 13.5 56t37 44.5t56 29t70.5 10.5q45 0 83.5 -14.5
t66 -40t43 -61t15.5 -77.5q0 -48 -15.5 -78.5t-39 -51.5t-51 -36t-51 -31.5t-39 -39t-15.5 -57.5v-22h-20v24zM282 68q0 -33 -23.5 -57t-57.5 -24t-57.5 24t-23.5 57q0 34 23.5 57.5t57.5 23.5t57.5 -23.5t23.5 -57.5z" />
    <glyph glyph-name="at" unicode="@" horiz-adv-x="800" 
d="M464 328q0 54 -59 54q-20 0 -35 -7t-15 -18q0 -12 11 -27t11 -35t-13.5 -32.5t-36.5 -12.5t-38 15t-15 38q0 22 12.5 42t35 34.5t52.5 23t65 8.5q26 0 50 -5t42 -17t29 -31.5t11 -48.5v-233q0 -10 5 -18t13 -9q10 0 16 2t11 4q19 9 36.5 29.5t31 48.5t21 61.5t7.5 69.5
q0 51 -21.5 99.5t-60.5 87t-93 61.5t-119 23q-54 0 -106 -21.5t-93 -65t-66 -108.5t-25 -152q0 -62 24.5 -116.5t65.5 -95t95 -64t114 -23.5q37 0 67 4t55.5 11.5t48.5 18.5t47 24l12 -53q-51 -28 -107 -45t-122 -17q-108 0 -186 35.5t-129 89t-75.5 117t-24.5 119.5
q0 90 32.5 163.5t88 126t128.5 81.5t154 29q77 0 143 -24t114.5 -67t76 -103t27.5 -133q0 -44 -13.5 -91t-40.5 -86t-68.5 -64t-97.5 -25q-37 0 -61 11t-31 40q-29 -26 -56.5 -38t-57.5 -12q-43 0 -67 22t-24 61q0 27 13 48.5t32.5 38t43.5 28.5t47 20t41 13t27 7v89z
M464 215q-49 -15 -71.5 -40t-22.5 -60q0 -26 11.5 -41t31.5 -15q25 0 51 24v132z" />
    <glyph glyph-name="A" unicode="A" horiz-adv-x="778" 
d="M21 19q19 1 31.5 5.5t22.5 15t19 29t21 47.5l251 634h25l264 -625q7 -16 11.5 -26.5t8.5 -18.5t7.5 -14t8.5 -13q22 -34 59 -34v-19h-315v19q38 2 55.5 13t17.5 34q0 10 -2.5 19t-6.5 18l-52 132h-249l-43 -113q-9 -24 -12 -36t-3 -22q0 -23 21 -34t66 -11v-19h-206v19z
M431 273l-110 269l-109 -269h219z" />
    <glyph glyph-name="B" unicode="B" horiz-adv-x="667" 
d="M16 19h12q27 2 43.5 7.5t26 20t12.5 39t3 63.5v485q0 32 -7 47t-26 23q-8 4 -14 6t-12.5 3.5t-15.5 2t-24 0.5v19h303q58 0 111 -8t93.5 -29t64 -56.5t23.5 -89.5q0 -30 -8 -52.5t-25 -41t-45 -34t-68 -30.5q93 -34 134 -77.5t41 -109.5q0 -60 -33.5 -107t-93.5 -70
q-22 -9 -45.5 -15t-51 -9t-62 -4.5t-79.5 -1.5h-257v19zM300 407q146 0 146 148q0 69 -38 106.5t-105 37.5q-23 0 -28.5 -5.5t-5.5 -15.5v-271h31zM269 152q0 -33 3 -54.5t10 -34t19.5 -17.5t31.5 -5q128 0 128 163q0 85 -40 124t-127 39h-25v-215z" />
    <glyph glyph-name="C" unicode="C" horiz-adv-x="722" 
d="M667 126q-68 -74 -136 -107.5t-152 -33.5q-78 0 -141.5 27t-109.5 76t-71 118t-25 153q0 85 27.5 156.5t76 123.5t115.5 81.5t146 29.5q46 0 78 -7.5t55.5 -17t40 -17t31.5 -7.5q14 0 24 11t20 38h16l7 -237h-16q-45 107 -101 153t-122 46q-52 0 -93.5 -25t-70 -71.5
t-44 -113.5t-15.5 -152q0 -152 55 -233.5t155 -81.5q60 0 120 30.5t108 84.5z" />
    <glyph glyph-name="D" unicode="D" horiz-adv-x="778" 
d="M7 19h12q27 1 44.5 6.5t27.5 18.5t14 34.5t4 55.5v470q0 32 -4.5 53t-16 33.5t-30.5 18.5t-49 7v19h325q111 0 189.5 -28.5t129 -78t73.5 -117.5t23 -146q0 -157 -95 -255q-30 -30 -64 -50.5t-77 -34t-97 -19.5t-123 -6h-286v19zM264 103q0 -22 2.5 -35.5t8.5 -21
t17 -10.5t28 -3q121 0 188 88.5t67 248.5q0 165 -71 250t-213 85q-17 0 -22 -6t-5 -16v-580z" />
    <glyph glyph-name="E" unicode="E" horiz-adv-x="667" 
d="M12 19q34 0 54.5 4.5t30.5 17t13 34t3 56.5v487q0 28 -2 42t-7 26q-14 28 -90 30v19h581v-200h-19q-11 88 -56 128.5t-132 40.5h-57q-36 0 -49.5 -12.5t-13.5 -46.5v-254h35q60 0 86.5 36t34.5 124h18v-355h-18q-1 5 -1.5 8.5t-0.5 5.5q-3 28 -7 49t-10 36t-14.5 25.5
t-19.5 18.5q-28 22 -82 22h-21v-253q0 -24 2.5 -39t9.5 -23t19.5 -11t32.5 -3h60q88 0 143 43.5t90 140.5h20l-39 -216h-594v19z" />
    <glyph glyph-name="F" unicode="F" horiz-adv-x="611" 
d="M12 19q52 1 71 21t19 70v521q0 25 -4 41t-14 25.5t-27.5 13.5t-44.5 5v19h578v-196h-18q-11 88 -55 126.5t-134 38.5h-57q-42 0 -55.5 -14t-13.5 -55v-244h44q34 0 58 8t40 27t25 49.5t13 74.5h19v-353h-19q-3 46 -12 77t-25.5 50.5t-41.5 28t-59 8.5h-42v-248
q0 -29 4 -47t15.5 -28t32 -14t53.5 -5h13v-19h-363v19z" />
    <glyph glyph-name="G" unicode="G" horiz-adv-x="778" 
d="M516 241q0 38 -17 53t-66 15v19h322v-19q-26 -1 -42.5 -5t-25.5 -14.5t-12.5 -28.5t-3.5 -47v-167q-66 -29 -136.5 -45.5t-136.5 -16.5q-86 0 -155.5 27t-119 76t-76.5 117.5t-27 152.5q0 85 28.5 157t80 124.5t122.5 81.5t155 29q49 0 82.5 -7.5t56.5 -17t38.5 -17
t29.5 -7.5q33 0 41 51h18l7 -244h-16q-44 114 -102 162t-133 48q-45 0 -86.5 -19t-74 -62t-51.5 -111.5t-19 -167.5q0 -73 12.5 -135t40 -107.5t71 -71.5t105.5 -26q28 0 52 6t30 15q5 5 6.5 17.5t1.5 38.5v146z" />
    <glyph glyph-name="H" unicode="H" horiz-adv-x="833" 
d="M12 19h11q27 2 44 6.5t26.5 15t12.5 28.5t3 47v520q0 23 -4 37.5t-14 23.5t-26.5 13t-41.5 6h-11v19h347v-19h-11q-20 -1 -35.5 -4t-26.5 -12t-16.5 -27.5t-5.5 -51.5v-217h295v232q0 22 -3.5 36.5t-13 23.5t-25.5 13.5t-41 6.5h-11v19h347v-19h-14q-20 -1 -35.5 -4
t-26.5 -12t-16.5 -27.5t-5.5 -51.5v-508q0 -30 4.5 -48t15.5 -28.5t30 -14t48 -3.5v-19h-347v19h12q42 0 62 20t20 75v246h-295v-247q0 -30 4 -48t14 -28.5t27 -14t43 -3.5v-19h-340v19z" />
    <glyph glyph-name="I" unicode="I" horiz-adv-x="389" 
d="M14 19h11q27 2 44 6.5t26.5 15t12.5 28.5t3 47v520q0 44 -18.5 60t-67.5 20h-11v19h347v-19h-11q-20 -1 -35.5 -4t-26.5 -12t-16.5 -27.5t-5.5 -51.5v-511q0 -28 3.5 -45t13 -27t27 -14t44.5 -5v-19h-340v19z" />
    <glyph glyph-name="J" unicode="J" 
d="M228 602q0 37 -4 58.5t-14.5 33.5t-30 16t-49.5 6v19h349v-19h-11q-26 -1 -42 -5t-26 -13t-13.5 -24t-3.5 -38v-519q0 -62 -18 -102.5t-48 -65t-67.5 -34.5t-76.5 -10q-36 0 -66.5 9t-52 25t-34 39t-12.5 50q0 36 20 57.5t54 21.5q30 0 47 -18t17 -50q0 -17 -4 -28.5
t-8.5 -20t-8.5 -14t-4 -11.5q0 -11 13 -19t31 -8q33 0 48 23t15 77v564z" />
    <glyph glyph-name="K" unicode="K" horiz-adv-x="778" 
d="M9 19q34 0 53.5 5.5t30 18.5t13.5 34t3 52v491q0 28 -3.5 45.5t-13.5 28t-26.5 15.5t-43.5 7h-10v19h347v-19h-10q-26 -2 -42.5 -6.5t-26 -14t-13 -24.5t-3.5 -39v-227l202 216q26 27 35 41.5t9 25.5q0 15 -13 21t-46 7v19h271v-19q-32 -1 -58 -6t-49.5 -16.5
t-46.5 -29.5t-49 -45l-137 -141l309 -405q12 -17 20.5 -27t15.5 -15.5t14 -8t16 -3.5v-19h-308v19q38 1 53 6t15 19q0 10 -6 20t-14 21l-217 283l-16 -14v-245q0 -26 3.5 -43.5t13.5 -28t26.5 -14.5t42.5 -4h11v-19h-352v19z" />
    <glyph glyph-name="L" unicode="L" horiz-adv-x="667" 
d="M21 19q30 1 49 5t30 16t15 33.5t4 58.5v494q0 27 -3.5 44t-13.5 27.5t-26.5 14.5t-42.5 4h-10v19h350v-19h-7q-27 0 -45 -4t-28.5 -14.5t-14.5 -27.5t-4 -44v-514q0 -47 13 -63.5t51 -16.5h29q52 0 92 13.5t70.5 42t52 74t36.5 109.5h16l-28 -271h-585v19z" />
    <glyph glyph-name="M" unicode="M" horiz-adv-x="1000" 
d="M19 19q28 1 45.5 5.5t28 15t14.5 28.5t4 47v515q0 24 -4 39.5t-15 25.5t-29.5 14.5t-46.5 6.5v19h270l215 -508l215 508h263v-19q-28 -1 -46 -5.5t-28.5 -14t-15 -25.5t-4.5 -40l1 -530q0 -24 3.5 -39.5t13 -25t25 -13.5t39.5 -4h12v-19h-345v19h12q51 2 67.5 19.5
t16.5 62.5v567l-283 -668h-13l-284 668v-558q0 -27 4.5 -44.5t15 -28t29 -14.5t46.5 -4v-19h-226v19z" />
    <glyph glyph-name="N" unicode="N" horiz-adv-x="778" 
d="M155 596v-481q0 -30 4 -49t15 -29.5t30.5 -14t50.5 -3.5v-19h-236v19h11q28 1 45 5t26 14t12 27.5t3 46.5v537q-20 24 -33 37t-24 19t-22.5 8t-27.5 3v19h229l387 -465v356q0 50 -20 69t-77 21v19h234v-19h-12q-26 -1 -42.5 -5t-26.5 -14t-13.5 -27t-3.5 -44v-633h-17z
" />
    <glyph glyph-name="O" unicode="O" horiz-adv-x="778" 
d="M744 368q0 -87 -27 -157.5t-75 -121t-114 -77.5t-144 -27t-144.5 27t-114.5 77.5t-75 121t-27 157.5t27 157.5t75 120.5t114.5 77t144.5 27t144 -27t114 -77t75 -120.5t27 -157.5zM571 368q0 165 -48 257t-139 92q-92 0 -139.5 -92t-47.5 -257t47.5 -257.5t139.5 -92.5
q91 0 139 92.5t48 257.5z" />
    <glyph glyph-name="P" unicode="P" horiz-adv-x="667" 
d="M21 19h12q25 1 41 6t25.5 16.5t13.5 30t4 46.5v513q0 24 -4 40t-14 25t-27 13.5t-43 6.5h-10v19h347q68 0 117.5 -14t81.5 -40.5t47.5 -63.5t15.5 -82q0 -190 -282 -190h-31.5t-42.5 2v-246q0 -25 3.5 -41t13 -25t27 -12.5t45.5 -3.5h14v-19h-354v19zM272 384
q10 -2 15 -2h13q85 0 124 39t39 121q0 161 -155 161h-17q-19 0 -19 -19v-300z" />
    <glyph glyph-name="Q" unicode="Q" horiz-adv-x="778" 
d="M690 -160q-26 -6 -48.5 -8.5t-47.5 -2.5q-32 0 -70.5 4t-78.5 20t-78.5 49t-69.5 91q-59 15 -109.5 47t-87 80t-57 110.5t-20.5 137.5q0 87 27 157.5t75 120.5t114.5 77t144.5 27t144 -27t114 -77t75 -120.5t27 -157.5q0 -75 -21.5 -138t-59 -111t-88.5 -80t-109 -46
q10 -60 60.5 -93t129.5 -33h16t14 1zM571 368q0 165 -48 257t-139 92q-92 0 -139.5 -92t-47.5 -257t47.5 -257.5t139.5 -92.5q91 0 139 92.5t48 257.5z" />
    <glyph glyph-name="R" unicode="R" horiz-adv-x="722" 
d="M12 19h10q27 2 43.5 6.5t26.5 14t13.5 25t3.5 40.5v533q0 23 -4.5 38t-15.5 24t-30 12.5t-47 3.5v19h336q63 0 113 -14t85.5 -40t54.5 -65t19 -88q0 -67 -35 -109.5t-113 -68.5l153 -268q20 -35 35.5 -48t40.5 -15v-19h-196l-176 310q-14 21 -22 27.5t-27 6.5h-16v-241
q0 -23 3.5 -38.5t12.5 -25.5t25.5 -14.5t42.5 -5.5h11v-19h-347v19zM264 375q9 -2 14.5 -2h17.5q90 0 130 38.5t40 125.5q0 79 -37 122.5t-104 43.5h-15q-26 0 -36 -11t-10 -39v-278z" />
    <glyph glyph-name="S" unicode="S" horiz-adv-x="556" 
d="M37 234h19q6 -46 26 -84.5t50 -66.5t67.5 -44t79.5 -16q60 0 96 32t36 84q0 32 -18.5 57t-47 46t-64 40.5t-69.5 40.5q-42 26 -73 47.5t-51.5 45.5t-31 53t-10.5 69q0 46 16.5 85t45.5 67t69 44t87 16q31 0 57 -6t47 -13.5t37.5 -13.5t28.5 -6q30 0 36 39h16v-226h-18
q-21 91 -71 139t-122 48q-57 0 -92 -31.5t-35 -80.5q0 -29 12 -46.5t36.5 -33.5t61 -34.5t85.5 -48.5q47 -29 81 -52.5t56.5 -49t33 -56.5t10.5 -74q0 -50 -16.5 -90.5t-46.5 -69t-73.5 -44t-97.5 -15.5q-42 0 -71.5 7t-51 15t-38 15t-32.5 7q-18 0 -28.5 -12t-12.5 -32h-19
v249z" />
    <glyph glyph-name="T" unicode="T" horiz-adv-x="667" 
d="M159 19h10q52 0 69.5 16t17.5 59v590q0 12 -4.5 16.5t-16.5 4.5h-36q-37 0 -63.5 -7.5t-45 -24.5t-30.5 -45t-20 -68h-16l8 175h601l9 -175h-16q-8 40 -20 68t-30.5 45t-45 24.5t-63.5 7.5h-36q-12 0 -16.5 -4.5t-4.5 -16.5v-590q0 -43 17.5 -59t69.5 -16h10v-19h-348v19
z" />
    <glyph glyph-name="U" unicode="U" horiz-adv-x="778" 
d="M627 612q0 31 -4 51.5t-14.5 32t-29 16t-47.5 4.5v19h227v-19q-53 0 -72.5 -21t-19.5 -76v-372q0 -128 -72 -195t-210 -67q-78 0 -138 24t-96 72q-13 17 -21 33t-13 36.5t-7 46.5t-2 62v338q0 41 -5 64t-16.5 34.5t-29.5 15t-45 5.5v19h347v-19h-11q-25 -1 -41.5 -6
t-26 -16t-13.5 -29.5t-4 -45.5v-414q0 -53 13.5 -86.5t36.5 -52t53.5 -25.5t64.5 -7q94 0 145 54.5t51 154.5v369z" />
    <glyph glyph-name="V" unicode="V" horiz-adv-x="722" 
d="M97 646q-8 21 -15.5 34t-16 20.5t-20.5 11t-29 4.5v19h322v-19h-9q-42 -1 -57.5 -8t-15.5 -24q0 -7 2 -14t8 -24l156 -418l131 376q13 36 13 55q0 28 -21.5 41.5t-69.5 15.5v19h229v-19q-23 -4 -38.5 -10t-27.5 -16.5t-20.5 -26t-16.5 -38.5l-227 -644h-20z" />
    <glyph glyph-name="W" unicode="W" horiz-adv-x="1000" 
d="M65 668q-10 27 -20 37.5t-36 10.5v19h285v-19q-35 -2 -50 -10t-15 -26q0 -8 3.5 -20t8.5 -24l153 -406l104 284l-55 143q-12 34 -31 45.5t-58 13.5v19h327v-19q-42 0 -58.5 -10.5t-16.5 -33.5q0 -8 2.5 -18.5t6.5 -21.5l136 -388l117 380q5 18 8 28.5t3 18.5q0 39 -71 45
v19h173v-19q-26 -5 -41 -21.5t-26 -48.5l-207 -665h-20l-172 485l-174 -485h-19z" />
    <glyph glyph-name="X" unicode="X" horiz-adv-x="778" 
d="M28 19q19 1 25.5 2.5t18.5 5.5q14 4 29 16.5t29 31.5l191 257l-212 330q-17 27 -35 39t-46 15v19h333v-19h-7q-32 -1 -46.5 -8.5t-14.5 -22.5q0 -10 3.5 -19.5t14.5 -27.5l105 -173l102 138q14 20 23.5 37.5t9.5 34.5q0 22 -17 31t-57 10v19h238v-19q-19 0 -28 -1t-20 -6
q-17 -6 -38 -24.5t-41 -46.5l-148 -203l203 -319q16 -25 27 -41t18.5 -25.5t13.5 -14.5t12 -8q8 -4 15.5 -5.5t22.5 -2.5v-19h-349v19q45 0 64 7t19 24q0 20 -23 58l-120 192l-130 -176q-14 -18 -19 -34t-5 -27q0 -44 76 -44h17v-19h-254v19z" />
    <glyph glyph-name="Y" unicode="Y" horiz-adv-x="778" 
d="M213 19q31 0 50 4t29.5 14.5t14 30t3.5 50.5v173l-205 354q-12 21 -20.5 34.5t-17.5 21.5t-19 11.5t-25 3.5v19h320v-19q-43 -2 -60 -9t-17 -23q0 -9 5 -19.5t13 -25.5l162 -287l146 256q8 14 13.5 30t5.5 28q0 24 -20 36t-66 14v19h223v-19q-16 0 -21.5 -1t-13.5 -4
q-12 -4 -27.5 -21.5t-28.5 -40.5l-192 -334v-209q0 -25 4 -41.5t14.5 -26t28 -14t44.5 -5.5h11v-19h-354v19z" />
    <glyph glyph-name="Z" unicode="Z" horiz-adv-x="667" 
d="M404 706h-93q-53 0 -90.5 -7.5t-64 -26.5t-44 -50.5t-31.5 -79.5h-19l31 193h504l-381 -699h114q66 0 110.5 7.5t75.5 28t52.5 56.5t40.5 93l9 28h19l-31 -249h-589z" />
    <glyph glyph-name="bracketleft" unicode="[" horiz-adv-x="333" 
d="M62 735h225v-30h-47q-32 0 -42.5 -10.5t-10.5 -48.5v-682q0 -38 10.5 -48.5t42.5 -10.5h47v-30h-225v860z" />
    <glyph glyph-name="backslash" unicode="\" horiz-adv-x="278" 
d="M-7 725h76l204 -725h-76z" />
    <glyph glyph-name="bracketright" unicode="]" horiz-adv-x="333" 
d="M39 -95h47q32 0 42.5 10.5t10.5 48.5v682q0 38 -10.5 48.5t-42.5 10.5h-47v30h225v-860h-225v30z" />
    <glyph glyph-name="asciicircum" unicode="^" horiz-adv-x="600" 
d="M252 736h98l178 -370h-106l-122 266l-124 -266h-104z" />
    <glyph glyph-name="underscore" unicode="_" 
d="M0 -75h500v-50h-500v50z" />
    <glyph glyph-name="grave" unicode="`" 
d="M123 669q-22 13 -22 36q0 17 13.5 29.5t32.5 12.5q24 0 50 -27l141 -151h-51z" />
    <glyph glyph-name="a" unicode="a" 
d="M284 405q0 68 -72 68q-25 0 -44 -9.5t-19 -22.5q0 -7 4.5 -15.5t9.5 -18t9.5 -20.5t4.5 -23q0 -25 -17 -40.5t-45 -15.5q-29 0 -47.5 18t-18.5 47t15.5 54t43.5 43t65.5 28.5t81.5 10.5q32 0 62 -6t53 -21t36.5 -39.5t13.5 -61.5v-292q0 -30 28 -30q11 0 18 5.5t10 5.5
q6 0 6 -7q0 -5 -6 -16t-19 -22.5t-33 -20.5t-48 -9q-33 0 -56.5 16.5t-32.5 46.5q-37 -33 -71 -48t-72 -15q-54 0 -84 27.5t-30 76.5q0 34 16 61t40.5 47.5t54.5 35.5t58.5 25.5t51 16.5t33.5 9v111zM284 265q-60 -21 -87.5 -51.5t-27.5 -75.5q0 -32 14 -51t38 -19
q31 0 63 29v168z" />
    <glyph glyph-name="b" unicode="b" horiz-adv-x="556" 
d="M74 674q0 23 -13.5 31.5t-48.5 10.5v19h199v-285q50 59 117 59q42 0 77 -17.5t59.5 -50t38 -77.5t13.5 -100q0 -60 -16 -109.5t-44.5 -85t-69 -55t-88.5 -19.5q-39 0 -71 13.5t-63 42.5l-77 -58h-13v681zM211 127q0 -43 19 -67.5t53 -24.5q48 0 70 55t22 172
q0 191 -91 191q-14 0 -27 -5.5t-23.5 -14t-16.5 -20t-6 -23.5v-263z" />
    <glyph glyph-name="c" unicode="c" horiz-adv-x="444" 
d="M415 123q-32 -61 -83.5 -94.5t-111.5 -33.5q-93 0 -145 63t-52 177q0 60 16 110.5t45 86.5t69 56.5t88 20.5q33 0 62.5 -11t52 -29t36 -42t13.5 -51q0 -23 -16.5 -39.5t-40.5 -16.5q-57 0 -66 82q-5 42 -17 58t-39 16q-39 0 -61 -42.5t-22 -120.5q0 -56 10.5 -101
t29.5 -77.5t46 -50t60 -17.5q61 0 115 63z" />
    <glyph glyph-name="d" unicode="d" horiz-adv-x="556" 
d="M338 396q-15 26 -37 42.5t-42 16.5q-47 0 -67.5 -51.5t-20.5 -167.5q0 -178 82 -178q44 0 85 59v279zM338 64q-24 -31 -60 -50t-71 -19q-40 0 -72.5 18t-55.5 52t-35.5 82t-12.5 107q0 57 13.5 104t37.5 80.5t58 52t75 18.5q34 0 62.5 -14t60.5 -45v213q0 30 -13.5 41.5
t-51.5 11.5v19h202v-643q0 -26 10.5 -36.5t49.5 -10.5v-19q-49 0 -100.5 -9.5t-96.5 -25.5v73z" />
    <glyph glyph-name="e" unicode="e" horiz-adv-x="444" 
d="M417 139q-7 -16 -13 -27.5t-12.5 -21t-15.5 -19t-22 -21.5q-31 -29 -61 -42t-68 -13q-45 0 -82.5 17.5t-63.5 49.5t-40.5 78t-14.5 102q0 57 15.5 106t43 85t65.5 56t82 20q85 0 133 -63.5t51 -178.5h-261q2 -97 35.5 -147.5t96.5 -50.5q35 0 62 17t55 59zM295 300v18
q-2 88 -17.5 123.5t-50.5 35.5q-38 0 -55.5 -41.5t-18.5 -135.5h142z" />
    <glyph glyph-name="f" unicode="f" horiz-adv-x="333" 
d="M-8 19q42 0 59 11t17 39v388h-76v46h76v27q0 47 11.5 86t34.5 66.5t57.5 43t80.5 15.5q51 0 80.5 -23t29.5 -65q0 -29 -16.5 -44.5t-45.5 -15.5q-51 0 -51 42q0 17 5.5 30.5t5.5 27.5q0 18 -19 18q-16 0 -25.5 -13.5t-9.5 -36.5v-158h108v-46h-108v-388q0 -29 17.5 -39.5
t65.5 -10.5h5v-19h-302v19z" />
    <glyph glyph-name="g" unicode="g" 
d="M392 439q20 -28 32 -51.5t12 -58.5q0 -72 -54.5 -114.5t-147.5 -42.5q-14 0 -30 1.5t-30 3.5q-44 -32 -44 -61q0 -12 5.5 -20t22 -13t48 -7.5t83.5 -4.5q42 -2 76.5 -9.5t58.5 -24t37.5 -42.5t13.5 -65q0 -81 -63 -123t-189 -42q-94 0 -146.5 30.5t-52.5 84.5
q0 27 20.5 48t71.5 41q-37 17 -57 41t-20 52q0 64 100 128q-102 52 -102 148q0 39 14.5 70.5t41 54t63.5 34.5t83 12q58 0 106 -21h134v-49h-87zM303 339q0 140 -64 140q-70 0 -70 -151q0 -126 70 -126q33 0 48.5 32.5t15.5 104.5zM394 -115q0 27 -14.5 42t-43.5 22t-71.5 8
t-97.5 1q-28 -12 -44 -34t-16 -47q0 -82 141 -82q67 0 106.5 24t39.5 66z" />
    <glyph glyph-name="h" unicode="h" horiz-adv-x="556" 
d="M23 19q24 2 34 12t10 33v608q0 24 -10 34t-34 10v19h181v-304q66 78 146 78q35 0 62 -13.5t42 -37.5q12 -20 16.5 -40.5t4.5 -61.5v-294q0 -22 10 -31.5t33 -11.5v-19h-224v19q44 2 44 47v318q0 34 -9 48t-32 14q-21 0 -42 -13.5t-51 -54.5v-314q0 -23 10 -33t34 -12v-19
h-225v19z" />
    <glyph glyph-name="i" unicode="i" horiz-adv-x="278" 
d="M213 655q0 -32 -22 -54t-54 -22t-54.5 22t-22.5 54t22.5 53.5t54.5 21.5t54 -21.5t22 -53.5zM18 19q51 0 51 46v371q0 26 -9.5 36.5t-36.5 12.5v18h183v-437q0 -47 51 -47v-19h-239v19z" />
    <glyph glyph-name="j" unicode="j" horiz-adv-x="333" 
d="M263 655q0 -32 -22 -54t-54 -22t-54.5 22t-22.5 54t22.5 53.5t54.5 21.5t54 -21.5t22 -53.5zM119 427q0 32 -14 45t-56 13v18h206v-522q0 -47 -13 -86.5t-37 -68t-59 -44.5t-79 -16q-52 0 -87.5 25t-35.5 65q0 26 19 43.5t47 17.5q26 0 43 -14.5t17 -35.5q0 -9 -2.5 -15
t-6 -11t-6 -10t-2.5 -12q0 -19 23 -19q20 0 31.5 17t11.5 46v564z" />
    <glyph glyph-name="k" unicode="k" horiz-adv-x="556" 
d="M29 19q25 1 35 11t10 34v608q0 24 -10 34t-35 10v19h182v-482l114 147q8 11 13.5 23.5t5.5 23.5q0 20 -13.5 28.5t-43.5 9.5v18h213v-17q-55 -7 -94 -52l-89 -105l171 -279q7 -10 17 -18.5t21 -12.5v-19h-232v19q36 3 36 27q0 8 -5 16l-98 171l-16 -19v-150q0 -23 10 -33
t34 -12v-19h-226v19z" />
    <glyph glyph-name="l" unicode="l" horiz-adv-x="278" 
d="M12 19q32 0 43.5 9.5t11.5 35.5v608q0 26 -11 35t-44 9v19h192v-671q0 -26 11 -35.5t42 -9.5v-19h-245v19z" />
    <glyph glyph-name="m" unicode="m" horiz-adv-x="833" 
d="M18 19q27 1 39 12t12 34v371q0 15 -2.5 23.5t-7.5 13t-14 7t-22 5.5v18h183v-75q35 42 70 61.5t80 19.5q51 0 78.5 -22.5t37.5 -73.5q40 53 74 74.5t79 21.5q36 0 63.5 -13.5t41.5 -39.5q6 -11 10 -20.5t6 -21.5t3 -28.5t1 -40.5v-280q0 -23 9.5 -33t34.5 -13v-19h-225
v19q25 3 34.5 13t9.5 33v337q0 43 -38 43q-20 0 -45.5 -20t-51.5 -57v-303q0 -23 10 -33.5t35 -12.5v-19h-227v19q26 2 35.5 12.5t9.5 33.5v335q0 22 -12 33.5t-30 11.5q-20 0 -43 -15.5t-50 -48.5v-316q0 -40 42 -46v-19h-230v19z" />
    <glyph glyph-name="n" unicode="n" horiz-adv-x="556" 
d="M32 19q23 4 32.5 13.5t9.5 32.5v374q0 23 -9.5 33.5t-32.5 12.5v18h176v-76q38 42 72.5 62t76.5 20q60 0 91 -39t31 -114v-291q0 -23 10 -33t34 -13v-19h-224v19q24 3 34 13t10 33v332q0 46 -45 46q-23 0 -43 -15.5t-44 -43.5v-319q0 -23 9.5 -33.5t35.5 -12.5v-19h-224
v19z" />
    <glyph glyph-name="o" unicode="o" 
d="M475 252q0 -59 -16.5 -106.5t-47 -81t-72.5 -51.5t-93 -18q-50 0 -92 18t-72.5 51.5t-47.5 81t-17 106.5t17 106.5t47.5 81t72.5 51.5t92 18q53 0 95.5 -18t72 -51.5t45.5 -81t16 -106.5zM333 252q0 61 -5 103t-15.5 68.5t-27 38.5t-39.5 12t-39.5 -12t-27 -38.5
t-15.5 -68.5t-5 -103t5 -103t15.5 -68.5t27 -38.5t39.5 -12t39.5 12t27 38.5t15.5 68.5t5 103z" />
    <glyph glyph-name="p" unicode="p" horiz-adv-x="556" 
d="M14 -216h10q27 0 39 10.5t12 34.5v621q0 19 -13 27t-43 8h-5v18h193v-68q68 74 137 74q81 0 127 -66.5t46 -186.5q0 -60 -12.5 -109t-35.5 -83t-55 -52.5t-72 -18.5q-32 0 -61 11.5t-69 39.5v-215q0 -29 15 -37.5t57 -7.5v-18h-270v18zM212 102q47 -53 83 -53
q22 0 37.5 12.5t25 40t14 71.5t4.5 108q0 92 -15.5 128.5t-54.5 36.5q-21 0 -46.5 -14.5t-47.5 -39.5v-290z" />
    <glyph glyph-name="q" unicode="q" horiz-adv-x="556" 
d="M274 -216q35 0 51 7t16 39v218q-47 -53 -118 -53q-91 0 -141.5 64t-50.5 179q0 59 17 109t48 86t73.5 56t92.5 20q39 0 68.5 -14t61.5 -47l85 62v-680q0 -26 11.5 -36t37.5 -10h12v-18h-264v18zM341 373q0 98 -67 98q-21 0 -39 -9.5t-31 -35t-20.5 -70t-7.5 -114.5
q0 -195 88 -195q45 0 77 54v272z" />
    <glyph glyph-name="r" unicode="r" horiz-adv-x="444" 
d="M28 19q53 2 53 49v366q0 29 -10.5 39t-42.5 12v18h187v-76q59 86 130 86q38 0 60 -20t22 -55q0 -30 -17.5 -49t-46.5 -19q-23 0 -35 8.5t-20 19t-15 19.5t-19 9q-23 0 -39.5 -27.5t-16.5 -65.5v-262q0 -30 12.5 -41t49.5 -11v-19h-252v19z" />
    <glyph glyph-name="s" unicode="s" horiz-adv-x="389" 
d="M21 158h19q20 -60 61 -94t92 -34q32 0 53 18t21 44q0 11 -4 20.5t-17 21.5t-38 28.5t-68 42.5q-33 19 -55.5 36.5t-36.5 36.5t-20.5 39.5t-6.5 46.5q0 31 11.5 58t31.5 46t48.5 30t61.5 11q25 0 42.5 -4t30.5 -8.5t23 -8.5t21 -4q17 0 36 25h18v-158h-18q-21 60 -59 91.5
t-92 31.5q-29 0 -47.5 -14.5t-18.5 -34.5q0 -12 2 -20.5t12 -18.5t30 -23.5t55 -35.5q32 -21 61 -40t51 -40t35 -45.5t13 -55.5q0 -33 -12 -61t-33.5 -48t-52 -31t-66.5 -11q-24 0 -44 4t-37 9.5t-30 9.5t-23 4q-24 0 -31 -27h-19v163z" />
    <glyph glyph-name="t" unicode="t" horiz-adv-x="333" 
d="M312 84q-44 -89 -132 -89q-31 0 -54.5 11t-34.5 31t-15 41t-4 62v317h-56v22q27 20 49.5 39t43 42.5t41 53t43.5 70.5h15v-181h102v-46h-102v-349q0 -35 7 -47.5t26 -12.5q12 0 23.5 9t31.5 36z" />
    <glyph glyph-name="u" unicode="u" horiz-adv-x="556" 
d="M338 74q-22 -22 -40.5 -37t-36 -24.5t-35.5 -13.5t-39 -4q-57 0 -87.5 31t-30.5 89v334q0 36 -50 36v18h187v-388q0 -61 42 -61q17 0 42.5 21.5t47.5 50.5v323q0 36 -53 36v18h190v-434q0 -17 11.5 -24.5t38.5 -8.5v-19q-43 -1 -95 -9t-92 -17v83z" />
    <glyph glyph-name="v" unicode="v" 
d="M58 458q-11 24 -38 27v18h237v-18h-6q-21 0 -33 -8.5t-12 -25.5q0 -4 0.5 -7t1.5 -7l85 -245l75 195q8 22 11 33t3 25q0 38 -56 40v18h145v-18q-20 -6 -32 -18.5t-20 -33.5l-167 -440h-18z" />
    <glyph glyph-name="w" unicode="w" horiz-adv-x="722" 
d="M53 449q-14 36 -44 36v18h234v-18q-47 -2 -47 -35q0 -3 1 -7.5t2 -8.5l80 -242l71 202l-22 61q-5 13 -13 21.5t-33 8.5v18h220v-18h-2q-35 0 -35 -29q0 -7 3 -16l66 -228l75 214q3 9 3 19q0 18 -16.5 28.5t-44.5 11.5v18h153v-19q-13 -2 -21.5 -4.5t-14.5 -8t-11 -15
t-11 -25.5l-166 -438h-18l-97 346l-127 -346h-18z" />
    <glyph glyph-name="x" unicode="x" 
d="M22 19q46 3 79 50l91 136l-145 249q-18 31 -45 31v18h243v-18h-5q-18 0 -29.5 -8.5t-11.5 -21.5q0 -10 6 -20l68 -111l68 104q7 10 9.5 16.5t2.5 12.5q0 14 -11.5 21t-30.5 7h-5v18h157v-17q-55 -12 -79 -51l-92 -142l147 -241q16 -27 45 -33v-19h-243v19h2q42 0 42 25
q0 8 -11 27l-63 104l-62 -101q-8 -12 -10.5 -18.5t-2.5 -11.5q0 -13 9.5 -18.5t32.5 -6.5v-19h-156v19z" />
    <glyph glyph-name="y" unicode="y" 
d="M237 -10l-174 464q-5 13 -17 21t-27 10v18h243v-18q-52 -4 -52 -43q0 -8 1.5 -16t6.5 -20l84 -222l78 223q6 18 6 34q0 41 -53 44v18h146v-18q-39 -12 -49 -42l-201 -566q-38 -111 -128 -111q-40 0 -65.5 21t-25.5 55q0 26 16.5 43t42.5 17q22 0 37.5 -10.5t19.5 -46.5
q3 -26 22 -26q15 0 30 22.5t28 58.5z" />
    <glyph glyph-name="z" unicode="z" horiz-adv-x="444" 
d="M9 15l248 450q-18 2 -36 3.5t-35 1.5q-58 0 -87 -22.5t-41 -79.5h-16l4 135h376v-15l-251 -450q17 -2 33.5 -3t33.5 -1q33 0 58 6t44 20t34 37t28 57h18l-22 -154h-389v15z" />
    <glyph glyph-name="braceleft" unicode="{" horiz-adv-x="333" 
d="M276 -126q-39 0 -70 4.5t-52.5 18.5t-33.5 39t-12 67v195q0 46 -13 69.5t-55 36.5q42 13 55 37t13 70v193q0 41 12 66.5t33.5 39.5t52.5 19t70 5v-28q-17 1 -28 -3t-17 -15t-8.5 -30t-2.5 -49v-184q0 -50 -16.5 -79t-63.5 -41l-8 -1q48 -13 68 -41t20 -79v-186
q0 -30 2.5 -49t8.5 -30t17 -14.5t28 -2.5v-28z" />
    <glyph glyph-name="bar" unicode="|" 
d="M203 750h94v-1000h-94v1000z" />
    <glyph glyph-name="braceright" unicode="}" horiz-adv-x="333" 
d="M86 -98q17 -1 28 2.5t17 14.5t8.5 30t2.5 49v186q0 51 20 79t68 41l-8 1q-47 12 -63.5 41t-16.5 79v184q0 30 -2.5 49t-8.5 30t-17 15t-28 3v28q39 0 70 -5t52.5 -19t33.5 -39.5t12 -66.5v-193q0 -46 13 -70t55 -37q-42 -13 -55 -36.5t-13 -69.5v-195q0 -42 -12 -67
t-33.5 -39t-52.5 -18.5t-70 -4.5v28z" />
    <glyph glyph-name="asciitilde" unicode="~" horiz-adv-x="600" 
d="M66 231q10 17 22 32.5t27 27.5t34.5 19.5t43.5 7.5q28 0 56.5 -10.5t56.5 -23.5t53.5 -23.5t46.5 -10.5q30 0 49 23t37 50l41 -85q-12 -16 -24.5 -31t-27.5 -27t-33.5 -19.5t-40.5 -7.5q-31 0 -56 10t-50 23t-51 24t-60 11q-15 0 -27.5 -6.5t-22.5 -17t-18 -23t-14 -25.5
z" />
    <glyph glyph-name="uni00A0" unicode="&#xa0;" horiz-adv-x="250" 
 />
    <glyph glyph-name="exclamdown" unicode="&#xa1;" horiz-adv-x="278" 
d="M219 476q0 -34 -23.5 -57.5t-57.5 -23.5t-57.5 23.5t-23.5 57.5q0 33 23.5 57t57.5 24t57.5 -24t23.5 -57zM151 307q2 -53 13 -113.5t23 -117.5t22 -105.5t10 -77.5q0 -45 -22 -70.5t-60 -25.5t-59 25.5t-21 70.5q0 29 10 77.5t22 105.5t23 117.5t13 113.5h26z" />
    <glyph glyph-name="cent" unicode="&#xa2;" 
d="M167 5q-58 25 -90 83.5t-32 140.5q0 61 16 113t44 90t67 59t86 21q24 0 41 -4t40 -15l35 97h37l-41 -113q29 -21 45 -48.5t16 -55.5q0 -26 -14 -41t-39 -15q-41 0 -53 34l-89 -257q25 -30 74 -30q35 0 62 15.5t56 51.5l13 -13q-39 -66 -88 -95.5t-116 -29.5h-16t-20 2
l-38 -106h-37zM309 407q-3 42 -15 57t-38 15q-42 0 -65.5 -44.5t-23.5 -123.5q0 -56 8 -99t34 -87z" />
    <glyph glyph-name="sterling" unicode="&#xa3;" 
d="M204 47q-44 -54 -103 -54q-39 0 -61.5 21t-22.5 59q0 43 25 68.5t70 25.5q27 0 50 -6q-4 19 -8.5 43.5t-9.5 49t-10.5 47.5t-11.5 39h-103v77h88q-4 22 -6 43t-2 44q0 54 13.5 98t38 75.5t58.5 49t76 17.5q31 0 58.5 -10t47 -28t31 -42.5t11.5 -52.5q0 -67 -66 -67
q-36 0 -50 23.5t-17 89.5q-2 31 -9.5 41t-27.5 10q-37 0 -37 -55q0 -34 9.5 -97t17.5 -139h111v-77h-100q2 -18 2.5 -27.5t0.5 -20.5q0 -43 -5 -84.5t-16 -67.5q29 -8 57 -12t51 -4q45 0 69.5 12t38.5 41h14q-5 -87 -45.5 -136.5t-104.5 -49.5q-22 0 -41 6t-34 14.5
t-26.5 18t-19.5 17.5h-1zM155 88q-11 13 -26.5 20t-29.5 7q-20 0 -33.5 -12t-13.5 -31q0 -37 43 -37q23 0 36 12t24 41z" />
    <glyph glyph-name="currency" unicode="&#xa4;" 
d="M125 378q0 -27 9.5 -50.5t26.5 -41t40 -27.5t49 -10q27 0 50 10t39.5 27.5t26 41t9.5 50.5t-9.5 50.5t-26 41t-39.5 27.5t-50 10t-50 -10t-39.5 -27.5t-26 -41t-9.5 -50.5zM23 195l60 59q-43 52 -43 124q0 70 42 124l-59 58l44 44l59 -58q54 42 124 42q71 0 124 -43
l59 59l44 -44l-59 -59q42 -53 42 -123q0 -72 -42 -124l58 -59l-44 -44l-59 59q-51 -42 -123 -42t-123 42l-60 -59z" />
    <glyph glyph-name="yen" unicode="&#xa5;" 
d="M99 21q24 0 39 4t23.5 14t11.5 28t3 47v151h-168v65h153l-46 92h-140v65h112l-74 158q-10 21 -17.5 34.5t-14.5 20.5t-13.5 9.5t-14.5 2.5v23h250v-23q-14 0 -25.5 -3.5t-17 -12t-4 -24t12.5 -39.5l120 -259l113 250q21 48 10.5 68t-37.5 20v23h170v-23q-23 0 -41 -16
t-37 -58l-71 -153h115v-63h-140l-42 -92h159v-65h-167v-151q0 -29 3.5 -47t13 -28.5t26.5 -14t43 -3.5v-21h-308v21z" />
    <glyph glyph-name="brokenbar" unicode="&#xa6;" 
d="M203 675h94v-350h-94v350zM203 175h94v-350h-94v350z" />
    <glyph glyph-name="section" unicode="&#xa7;" 
d="M436 319q0 -55 -31.5 -86.5t-89.5 -33.5q24 -24 39.5 -43t24.5 -36.5t12.5 -33.5t3.5 -34q0 -60 -43.5 -95.5t-115.5 -35.5q-32 0 -58.5 8t-46 22t-30.5 33.5t-11 42.5q0 26 17 42t44 16q24 0 39.5 -13.5t15.5 -35.5q0 -17 -6 -26t-13 -14.5t-13 -10t-6 -11.5q0 -6 6 -12
t15.5 -11t21.5 -8t23 -3q38 0 63.5 20.5t23.5 52.5q-1 18 -7 33.5t-21.5 33.5t-42.5 41t-70 56q-29 22 -52 40.5t-39 38.5t-24.5 43t-8.5 55q0 116 127 122q-23 21 -38.5 39t-25.5 35t-14 34.5t-4 37.5q0 60 38.5 94t107.5 34q30 0 55 -8t43.5 -21.5t29 -32t10.5 -39.5
q0 -26 -15 -42t-41 -16q-24 0 -40 14.5t-16 36.5q0 13 6 21t12.5 14t12.5 11.5t6 12.5q0 11 -16 20.5t-48 9.5q-33 0 -55.5 -20.5t-22.5 -49.5q0 -18 9.5 -33.5t26 -32t39.5 -35.5t50 -43q24 -21 49.5 -41t46 -43t34 -50.5t13.5 -63.5zM369 282q0 21 -14.5 42.5t-56.5 57.5
q-44 39 -69.5 54.5t-47.5 15.5q-25 0 -43 -17.5t-18 -40.5q0 -21 11.5 -41t36.5 -43q51 -48 85.5 -69t59.5 -21q23 0 39.5 18t16.5 44z" />
    <glyph glyph-name="dieresis" unicode="&#xa8;" 
d="M398 643q0 -24 -17 -41t-42 -17t-42 17t-17 41q0 25 17.5 42t41.5 17q25 0 42 -17t17 -42zM220 643q0 -24 -17.5 -41t-41.5 -17q-25 0 -42 17t-17 41q0 25 17 42t42 17q24 0 41.5 -17t17.5 -42z" />
    <glyph glyph-name="copyright" unicode="&#xa9;" horiz-adv-x="800" 
d="M577 279l-15 -77q-2 -11 -16 -19.5t-33.5 -14.5t-40.5 -9t-37 -3q-58 0 -104.5 13t-79.5 40t-50.5 68.5t-17.5 98.5q0 34 12 72t40 69.5t74.5 52t115.5 20.5q27 0 51.5 -3.5t43 -9.5t29.5 -14t11 -17v-77h-29q-3 17 -10 34t-19.5 30t-31.5 21t-46 8q-33 0 -57 -14
t-40 -38.5t-23.5 -57.5t-7.5 -71q0 -41 7 -77t23 -64t41 -44t60 -16q45 0 75.5 28.5t47.5 70.5h27zM773 366q0 -80 -28.5 -150t-78.5 -121.5t-118.5 -81t-147.5 -29.5t-147 29.5t-118 81t-78.5 121.5t-28.5 150q0 81 28.5 151t78.5 121.5t118 81.5t147 30t147.5 -30
t118.5 -81.5t78.5 -121.5t28.5 -151zM690 366q0 65 -21.5 123t-60 102t-92 69.5t-116.5 25.5q-62 0 -114.5 -25t-91.5 -68.5t-61 -102t-22 -124.5t22 -124.5t61 -102t91.5 -69t114.5 -25.5q63 0 116 25.5t92 69.5t60.5 102t21.5 124z" />
    <glyph glyph-name="ordfeminine" unicode="&#xaa;" horiz-adv-x="333" 
d="M187 687q0 41 -46 41q-17 0 -29 -5.5t-12 -13.5t9 -19.5t9 -26.5t-11 -24.5t-29 -9.5q-20 0 -31.5 11t-11.5 28q0 18 10 33t28 26t42.5 17t53.5 6q21 0 40 -3.5t34 -12.5t24 -24t9 -37v-175q0 -18 18 -18q7 0 11.5 3t6.5 3q4 0 4 -4q0 -3 -4 -10t-12.5 -13.5t-21.5 -12
t-31 -5.5q-21 0 -36.5 10t-21.5 28q-24 -20 -46 -29t-47 -9q-35 0 -54.5 17t-19.5 46q0 31 22 52t50.5 34.5t55.5 20.5t37 10v66zM187 603q-74 -23 -74 -76q0 -20 9 -31t24 -11q21 0 41 18v100z" />
    <glyph glyph-name="guillemotleft" unicode="&#xab;" 
d="M455 56q-34 31 -63.5 55.5t-57 45.5t-55.5 39.5t-60 38.5v28q30 20 56.5 38t53.5 38.5t57.5 45t68.5 57.5l16 -11q-10 -20 -24 -44t-30 -49t-32 -48t-30 -41q15 -19 32.5 -43.5t33.5 -49.5t29.5 -47.5t20.5 -37.5zM271 56q-34 31 -63.5 55.5t-57 45.5t-55.5 39.5
t-60 38.5v28q30 20 56.5 38t53.5 38.5t57.5 45t68.5 57.5l16 -11q-10 -20 -24 -44t-30 -49t-32 -48t-30 -41q15 -19 32.5 -43.5t33.5 -49.5t29.5 -47.5t20.5 -37.5z" />
    <glyph glyph-name="logicalnot" unicode="&#xac;" horiz-adv-x="600" 
d="M496 292h-473v78h551v-235h-78v157z" />
    <glyph glyph-name="uni00AD" unicode="&#xad;" horiz-adv-x="333" 
d="M30 299h266v-99h-266v99z" />
    <glyph glyph-name="registered" unicode="&#xae;" horiz-adv-x="456" 
d="M132 439q17 0 21 5t4 19v148q0 12 -3.5 18.5t-21.5 6.5v13h112q27 0 46.5 -14.5t19.5 -43.5q0 -21 -12.5 -37.5t-33.5 -23.5l34 -48q10 -14 20.5 -27.5t19.5 -21.5v-6h-47q-7 0 -13.5 8.5t-14 22.5t-16.5 31t-21 35h-20v-61q0 -14 4 -19t22 -5v-12h-100v12zM225 537
q20 0 28 15.5t8 35.5q0 46 -36 46h-19v-97h19zM429 532q0 -43 -15 -80.5t-42 -65t-64 -43.5t-80 -16q-42 0 -78.5 16t-63.5 43.5t-42.5 65t-15.5 80.5t15.5 81t42.5 66t63.5 44t78.5 16q43 0 80 -16t64 -44t42 -66t15 -81zM384 532q0 35 -11.5 67t-32.5 56t-49.5 38
t-62.5 14q-33 0 -61.5 -14t-49 -37.5t-32.5 -55.5t-12 -68t12 -67t32.5 -54.5t49 -37t61.5 -13.5q34 0 62.5 13.5t49.5 37t32.5 55t11.5 66.5z" />
    <glyph glyph-name="macron" unicode="&#xaf;" 
d="M106 661h287v-63h-287v63z" />
    <glyph glyph-name="degree" unicode="&#xb0;" horiz-adv-x="400" 
d="M118 596q0 -37 22 -64t60 -27t59 27t21 64q0 38 -21 64.5t-59 26.5t-60 -27t-22 -64zM52 596q0 30 12 56.5t32 47t47 32t57 11.5t56.5 -11.5t46.5 -32t31.5 -47t11.5 -56.5t-11.5 -56.5t-31.5 -47t-46.5 -32t-56.5 -11.5t-57 11.5t-47 32t-32 47t-12 56.5z" />
    <glyph glyph-name="plusminus" unicode="&#xb1;" horiz-adv-x="600" 
d="M259 292h-234v78h234v156h78v-156h237v-78h-237v-157h-78v157zM25 78h550v-78h-550v78z" />
    <glyph glyph-name="uni00B2" unicode="&#xb2;" horiz-adv-x="333" 
d="M15 308l113 138q66 82 66 149q0 36 -24 58.5t-64 22.5q-51 0 -76 -48h-11q6 51 43 83t93 32q28 0 51 -8t40 -23t26.5 -35t9.5 -44q0 -34 -18 -65t-52 -69l-106 -122h95q46 0 68 9t34 33h13l-39 -122h-262v11z" />
    <glyph glyph-name="uni00B3" unicode="&#xb3;" horiz-adv-x="333" 
d="M106 530q43 9 66 31t23 55q0 32 -22.5 52.5t-57.5 20.5q-48 0 -73 -43h-13q6 42 44 69.5t92 27.5q51 0 81.5 -25t30.5 -65q0 -23 -11.5 -43t-37.5 -45q42 -25 59 -51.5t17 -63.5q0 -35 -15 -64t-42 -50t-64 -32.5t-81 -11.5q-43 0 -67 13t-24 36q0 13 8 21t22 8
q11 0 22.5 -5.5t34.5 -22.5q18 -13 32 -18t30 -5q32 0 52.5 22t20.5 57q0 93 -127 121v11z" />
    <glyph glyph-name="acute" unicode="&#xb4;" 
d="M303 720q25 27 50 27q19 0 32.5 -12.5t13.5 -29.5q0 -23 -22 -36l-164 -100h-51z" />
    <glyph glyph-name="uni00B5" unicode="&#xb5;" horiz-adv-x="556" 
d="M7 -216q38 0 50 9.5t12 36.5v619q0 36 -50 36v18h187v-388q0 -61 42 -61q17 0 42.5 21.5t47.5 50.5v323q0 36 -53 36v18h190v-434q0 -17 11.5 -24.5t38.5 -8.5v-19q-43 -1 -95 -9t-92 -17v83q-38 -39 -68 -56.5t-64 -20.5v-231h-199v18z" />
    <glyph glyph-name="paragraph" unicode="&#xb6;" 
d="M119 -62q9 0 19.5 1t19.5 5t15 12.5t6 22.5v326q-88 19 -127.5 74.5t-39.5 139.5q0 46 18 86t49.5 68.5t73 45t89.5 16.5h246v-24q-9 0 -19.5 -1t-19.5 -5.5t-15 -13.5t-6 -25v-687q0 -14 5.5 -22.5t14.5 -12.5t19.5 -5t20.5 -1v-18h-369v18zM282 -27q0 -15 6 -25t15 -10
q10 0 16 10t6 25v738h-43v-738z" />
    <glyph glyph-name="periodcentered" unicode="&#xb7;" horiz-adv-x="250" 
d="M206 270q0 -34 -23.5 -57.5t-57.5 -23.5q-33 0 -57 23.5t-24 57.5q0 33 24 57t57 24q34 0 57.5 -24t23.5 -57z" />
    <glyph glyph-name="cedilla" unicode="&#xb8;" 
d="M157 -166q17 -7 31 -9.5t31 -2.5q56 0 56 39q0 38 -50 38q-8 0 -12.5 -0.5t-12.5 -3.5l-11 8l42 97h42l-31 -65q8 2 13 3t17 1q43 0 66 -18t23 -52q0 -86 -131 -86q-24 0 -42 3t-47 13z" />
    <glyph glyph-name="uni00B9" unicode="&#xb9;" horiz-adv-x="333" 
d="M69 308h7q36 2 47.5 15t11.5 51v257q0 26 -6.5 35.5t-24.5 9.5q-10 0 -18.5 -3t-16.5 -5v14l153 61h6v-383q0 -14 1.5 -22t4.5 -14q7 -16 50 -16h4v-11h-219v11z" />
    <glyph glyph-name="ordmasculine" unicode="&#xba;" horiz-adv-x="333" 
d="M315 596q0 -35 -11 -63.5t-30.5 -48.5t-47 -31t-60.5 -11q-66 0 -107.5 41t-41.5 113q0 35 11 63.5t31 48.5t47.5 31t59.5 11q69 0 109 -41t40 -113zM223 596q0 73 -13.5 103t-43.5 30t-43.5 -30t-13.5 -103t13.5 -103t43.5 -30t43.5 30t13.5 103z" />
    <glyph glyph-name="guillemotright" unicode="&#xbb;" 
d="M201 71q7 15 20.5 37.5t29.5 47.5t33.5 49.5t32.5 43.5q-14 18 -30 41t-32 48t-30 49t-24 44l16 11q38 -33 68 -57.5t57 -45t53.5 -38.5t57.5 -38v-28q-32 -20 -60 -38.5t-56 -39.5t-57 -45.5t-63 -55.5zM17 71q7 15 20.5 37.5t29.5 47.5t33.5 49.5t32.5 43.5
q-14 18 -30 41t-32 48t-30 49t-24 44l16 11q38 -33 68 -57.5t57 -45t53.5 -38.5t57.5 -38v-28q-32 -20 -60 -38.5t-56 -39.5t-57 -45.5t-63 -55.5z" />
    <glyph glyph-name="onequarter" unicode="&#xbc;" horiz-adv-x="750" 
d="M595 743h76l-465 -743h-76zM45 308h7q36 2 47.5 15t11.5 51v257q0 26 -6.5 35.5t-24.5 9.5q-10 0 -18.5 -3t-16.5 -5v14l153 61h6v-383q0 -32 11 -42t45 -10h4v-11h-219v11zM549 87h-164v65l225 289h33v-289h40v-65h-40v-87h-94v87zM549 152v178l-138 -178h138z" />
    <glyph glyph-name="onehalf" unicode="&#xbd;" horiz-adv-x="750" 
d="M565 743h76l-465 -743h-76zM45 308h7q36 2 47.5 15t11.5 51v257q0 26 -6.5 35.5t-24.5 9.5q-10 0 -18.5 -3t-16.5 -5v14l153 61h6v-383q0 -14 1.5 -22t4.5 -14q7 -16 50 -16h4v-11h-219v11zM427 10l113 138q66 82 66 149q0 36 -24 58.5t-64 22.5q-51 0 -76 -48h-11
q6 51 43 83t93 32q28 0 51 -8t40 -23t26.5 -35t9.5 -44q0 -34 -18 -65t-52 -69l-106 -122h95q46 0 68 9t34 33h13l-39 -122h-262v11z" />
    <glyph glyph-name="threequarters" unicode="&#xbe;" horiz-adv-x="750" 
d="M595 743h76l-465 -743h-76zM549 87h-164v65l225 289h33v-289h40v-65h-40v-87h-94v87zM549 152v178l-138 -178h138zM116 530q43 9 66 31t23 55q0 32 -22.5 52.5t-57.5 20.5q-48 0 -73 -43h-13q6 42 44 69.5t92 27.5q51 0 81.5 -25t30.5 -65q0 -23 -11.5 -43t-37.5 -45
q42 -25 59 -51.5t17 -63.5q0 -35 -15 -64t-42 -50t-64 -32.5t-81 -11.5q-43 0 -67 13t-24 36q0 13 8 21t22 8q11 0 22.5 -5.5t34.5 -22.5q18 -13 32 -18t30 -5q32 0 52.5 22t20.5 57q0 93 -127 121v11z" />
    <glyph glyph-name="questiondown" unicode="&#xbf;" horiz-adv-x="444" 
d="M314 476q0 -34 -23.5 -57.5t-57.5 -23.5t-57.5 23.5t-23.5 57.5q0 33 23.5 57t57.5 24t57.5 -24t23.5 -57zM236 313h20v-24q0 -37 -6 -60.5t-14.5 -42t-19 -35t-19 -38.5t-14.5 -54t-6 -81q0 -66 23 -101.5t68 -35.5q18 0 29 8.5t11 22.5q0 12 -4.5 22t-10 20.5t-10 23
t-4.5 29.5q0 26 16 40.5t43 14.5q32 0 52 -21.5t20 -56.5q0 -30 -13.5 -56t-37 -44.5t-56 -29t-70.5 -10.5q-45 0 -83.5 14.5t-66 40t-43 61t-15.5 77.5q0 48 15.5 78.5t39 51.5t51 36t51 31.5t39 38.5t15.5 58v22z" />
    <glyph glyph-name="Agrave" unicode="&#xc0;" horiz-adv-x="778" 
d="M21 19q19 1 31.5 5.5t22.5 15t19 29t21 47.5l251 634h25l264 -625q7 -16 11.5 -26.5t8.5 -18.5t7.5 -14t8.5 -13q22 -34 59 -34v-19h-315v19q38 2 55.5 13t17.5 34q0 10 -2.5 19t-6.5 18l-52 132h-249l-43 -113q-9 -24 -12 -36t-3 -22q0 -23 21 -34t66 -11v-19h-206v19z
M431 273l-110 269l-109 -269h219zM262 886q-22 13 -22 36q0 17 13.5 29.5t32.5 12.5q24 0 50 -27l141 -151h-51z" />
    <glyph glyph-name="Aacute" unicode="&#xc1;" horiz-adv-x="778" 
d="M21 19q19 1 31.5 5.5t22.5 15t19 29t21 47.5l251 634h25l264 -625q7 -16 11.5 -26.5t8.5 -18.5t7.5 -14t8.5 -13q22 -34 59 -34v-19h-315v19q38 2 55.5 13t17.5 34q0 10 -2.5 19t-6.5 18l-52 132h-249l-43 -113q-9 -24 -12 -36t-3 -22q0 -23 21 -34t66 -11v-19h-206v19z
M431 273l-110 269l-109 -269h219zM442 937q25 27 50 27q19 0 32.5 -12.5t13.5 -29.5q0 -23 -22 -36l-164 -100h-51z" />
    <glyph glyph-name="Acircumflex" unicode="&#xc2;" horiz-adv-x="778" 
d="M21 19q19 1 31.5 5.5t22.5 15t19 29t21 47.5l251 634h25l264 -625q7 -16 11.5 -26.5t8.5 -18.5t7.5 -14t8.5 -13q22 -34 59 -34v-19h-315v19q38 2 55.5 13t17.5 34q0 10 -2.5 19t-6.5 18l-52 132h-249l-43 -113q-9 -24 -12 -36t-3 -22q0 -23 21 -34t66 -11v-19h-206v19z
M431 273l-110 269l-109 -269h219zM350 959h78l124 -171h-50l-113 99l-114 -99h-49z" />
    <glyph glyph-name="Atilde" unicode="&#xc3;" horiz-adv-x="778" 
d="M21 19q19 1 31.5 5.5t22.5 15t19 29t21 47.5l251 634h25l264 -625q7 -16 11.5 -26.5t8.5 -18.5t7.5 -14t8.5 -13q22 -34 59 -34v-19h-315v19q38 2 55.5 13t17.5 34q0 10 -2.5 19t-6.5 18l-52 132h-249l-43 -113q-9 -24 -12 -36t-3 -22q0 -23 21 -34t66 -11v-19h-206v19z
M431 273l-110 269l-109 -269h219zM216 802q11 52 40 82.5t68 30.5q25 0 45 -6.5t37.5 -15t34 -15t34.5 -6.5q38 0 52 44h36q-7 -32 -18.5 -53.5t-26 -35t-31 -19t-33.5 -5.5q-22 0 -43 6.5t-40.5 15t-37 15t-31.5 6.5q-35 0 -50 -44h-36z" />
    <glyph glyph-name="Adieresis" unicode="&#xc4;" horiz-adv-x="778" 
d="M21 19q19 1 31.5 5.5t22.5 15t19 29t21 47.5l251 634h25l264 -625q7 -16 11.5 -26.5t8.5 -18.5t7.5 -14t8.5 -13q22 -34 59 -34v-19h-315v19q38 2 55.5 13t17.5 34q0 10 -2.5 19t-6.5 18l-52 132h-249l-43 -113q-9 -24 -12 -36t-3 -22q0 -23 21 -34t66 -11v-19h-206v19z
M431 273l-110 269l-109 -269h219zM537 860q0 -24 -17 -41t-42 -17t-42 17t-17 41q0 25 17.5 42t41.5 17q25 0 42 -17t17 -42zM359 860q0 -24 -17.5 -41t-41.5 -17q-25 0 -42 17t-17 41q0 25 17 42t42 17q24 0 41.5 -17t17.5 -42z" />
    <glyph glyph-name="Aring" unicode="&#xc5;" horiz-adv-x="778" 
d="M21 19q19 1 31.5 5.5t22.5 15t19 29t21 47.5l251 634h25l264 -625q7 -16 11.5 -26.5t8.5 -18.5t7.5 -14t8.5 -13q22 -34 59 -34v-19h-315v19q38 2 55.5 13t17.5 34q0 10 -2.5 19t-6.5 18l-52 132h-249l-43 -113q-9 -24 -12 -36t-3 -22q0 -23 21 -34t66 -11v-19h-206v19z
M431 273l-110 269l-109 -269h219zM492 882q0 -21 -8 -40t-22 -33t-33 -22t-40 -8t-40 8t-33 22t-22 33t-8 40t8 40t22 33t33 22t40 8t40 -8t33 -22t22 -33t8 -40zM451 882q0 26 -18 43.5t-44 17.5t-43.5 -17.5t-17.5 -43.5t17.5 -44t43.5 -18t44 18t18 44z" />
    <glyph glyph-name="AE" unicode="&#xc6;" horiz-adv-x="1000" 
d="M12 19q48 5 71 47l322 550q14 23 19 34.5t5 22.5q0 20 -18 30t-63 12l-17 1v19h601l7 -199h-19q-8 45 -22.5 77t-37.5 52.5t-55.5 29.5t-76.5 9h-28q-35 0 -47 -9.5t-12 -35.5v-268h28q33 0 53 12.5t32 34.5t17.5 51t8.5 62h19v-355h-19q-4 46 -12 77.5t-22 51t-34.5 28
t-48.5 8.5h-22v-272q0 -35 13.5 -46t46.5 -11q55 0 95 10t69 32t50 57.5t39 86.5h18l-32 -218h-560v19q34 0 54.5 3.5t32 12.5t15.5 25t4 41v260h-186l-142 -245q-14 -23 -18 -36t-4 -27q0 -18 16 -26t51 -8h15v-19h-206v19zM486 398v288l-167 -288h167z" />
    <glyph glyph-name="Ccedilla" unicode="&#xc7;" horiz-adv-x="722" 
d="M291 -166q17 -7 31 -9.5t31 -2.5q56 0 56 39q0 38 -50 38q-8 0 -12.5 -0.5t-12.5 -3.5l-11 8l36 82q-74 4 -134 32.5t-103 77t-66.5 116t-23.5 148.5q0 85 27.5 156.5t76 123.5t115.5 81.5t146 29.5q46 0 78 -7.5t55.5 -17t40 -17t31.5 -7.5q14 0 24 11t20 38h16l7 -237
h-16q-45 107 -101 153t-122 46q-52 0 -93.5 -25t-70 -71.5t-44 -113.5t-15.5 -152q0 -152 55 -233.5t155 -81.5q60 0 120 30.5t108 84.5l22 -24q-63 -69 -127 -102.5t-140 -37.5l-24 -51q8 2 13 3t17 1q43 0 66 -18t23 -52q0 -86 -131 -86q-24 0 -42 3t-47 13z" />
    <glyph glyph-name="Egrave" unicode="&#xc8;" horiz-adv-x="667" 
d="M12 19q34 0 54.5 4.5t30.5 17t13 34t3 56.5v487q0 28 -2 42t-7 26q-14 28 -90 30v19h581v-200h-19q-11 88 -56 128.5t-132 40.5h-57q-36 0 -49.5 -12.5t-13.5 -46.5v-254h35q60 0 86.5 36t34.5 124h18v-355h-18q-1 5 -1.5 8.5t-0.5 5.5q-3 28 -7 49t-10 36t-14.5 25.5
t-19.5 18.5q-28 22 -82 22h-21v-253q0 -24 2.5 -39t9.5 -23t19.5 -11t32.5 -3h60q88 0 143 43.5t90 140.5h20l-39 -216h-594v19zM216 886q-22 13 -22 36q0 17 13.5 29.5t32.5 12.5q24 0 50 -27l141 -151h-51z" />
    <glyph glyph-name="Eacute" unicode="&#xc9;" horiz-adv-x="667" 
d="M12 19q34 0 54.5 4.5t30.5 17t13 34t3 56.5v487q0 28 -2 42t-7 26q-14 28 -90 30v19h581v-200h-19q-11 88 -56 128.5t-132 40.5h-57q-36 0 -49.5 -12.5t-13.5 -46.5v-254h35q60 0 86.5 36t34.5 124h18v-355h-18q-1 5 -1.5 8.5t-0.5 5.5q-3 28 -7 49t-10 36t-14.5 25.5
t-19.5 18.5q-28 22 -82 22h-21v-253q0 -24 2.5 -39t9.5 -23t19.5 -11t32.5 -3h60q88 0 143 43.5t90 140.5h20l-39 -216h-594v19zM396 937q25 27 50 27q19 0 32.5 -12.5t13.5 -29.5q0 -23 -22 -36l-164 -100h-51z" />
    <glyph glyph-name="Ecircumflex" unicode="&#xca;" horiz-adv-x="667" 
d="M12 19q34 0 54.5 4.5t30.5 17t13 34t3 56.5v487q0 28 -2 42t-7 26q-14 28 -90 30v19h581v-200h-19q-11 88 -56 128.5t-132 40.5h-57q-36 0 -49.5 -12.5t-13.5 -46.5v-254h35q60 0 86.5 36t34.5 124h18v-355h-18q-1 5 -1.5 8.5t-0.5 5.5q-3 28 -7 49t-10 36t-14.5 25.5
t-19.5 18.5q-28 22 -82 22h-21v-253q0 -24 2.5 -39t9.5 -23t19.5 -11t32.5 -3h60q88 0 143 43.5t90 140.5h20l-39 -216h-594v19zM304 959h78l124 -171h-50l-113 99l-114 -99h-49z" />
    <glyph glyph-name="Edieresis" unicode="&#xcb;" horiz-adv-x="667" 
d="M12 19q34 0 54.5 4.5t30.5 17t13 34t3 56.5v487q0 28 -2 42t-7 26q-14 28 -90 30v19h581v-200h-19q-11 88 -56 128.5t-132 40.5h-57q-36 0 -49.5 -12.5t-13.5 -46.5v-254h35q60 0 86.5 36t34.5 124h18v-355h-18q-1 5 -1.5 8.5t-0.5 5.5q-3 28 -7 49t-10 36t-14.5 25.5
t-19.5 18.5q-28 22 -82 22h-21v-253q0 -24 2.5 -39t9.5 -23t19.5 -11t32.5 -3h60q88 0 143 43.5t90 140.5h20l-39 -216h-594v19zM491 860q0 -24 -17 -41t-42 -17t-42 17t-17 41q0 25 17.5 42t41.5 17q25 0 42 -17t17 -42zM313 860q0 -24 -17.5 -41t-41.5 -17q-25 0 -42 17
t-17 41q0 25 17 42t42 17q24 0 41.5 -17t17.5 -42z" />
    <glyph glyph-name="Igrave" unicode="&#xcc;" horiz-adv-x="389" 
d="M14 19h11q27 2 44 6.5t26.5 15t12.5 28.5t3 47v520q0 44 -18.5 60t-67.5 20h-11v19h347v-19h-11q-20 -1 -35.5 -4t-26.5 -12t-16.5 -27.5t-5.5 -51.5v-511q0 -28 3.5 -45t13 -27t27 -14t44.5 -5v-19h-340v19zM68 886q-22 13 -22 36q0 17 13.5 29.5t32.5 12.5q24 0 50 -27
l141 -151h-51z" />
    <glyph glyph-name="Iacute" unicode="&#xcd;" horiz-adv-x="389" 
d="M14 19h11q27 2 44 6.5t26.5 15t12.5 28.5t3 47v520q0 44 -18.5 60t-67.5 20h-11v19h347v-19h-11q-20 -1 -35.5 -4t-26.5 -12t-16.5 -27.5t-5.5 -51.5v-511q0 -28 3.5 -45t13 -27t27 -14t44.5 -5v-19h-340v19zM248 937q25 27 50 27q19 0 32.5 -12.5t13.5 -29.5
q0 -23 -22 -36l-164 -100h-51z" />
    <glyph glyph-name="Icircumflex" unicode="&#xce;" horiz-adv-x="389" 
d="M14 19h11q27 2 44 6.5t26.5 15t12.5 28.5t3 47v520q0 44 -18.5 60t-67.5 20h-11v19h347v-19h-11q-20 -1 -35.5 -4t-26.5 -12t-16.5 -27.5t-5.5 -51.5v-511q0 -28 3.5 -45t13 -27t27 -14t44.5 -5v-19h-340v19zM156 959h78l124 -171h-50l-113 99l-114 -99h-49z" />
    <glyph glyph-name="Idieresis" unicode="&#xcf;" horiz-adv-x="389" 
d="M14 19h11q27 2 44 6.5t26.5 15t12.5 28.5t3 47v520q0 44 -18.5 60t-67.5 20h-11v19h347v-19h-11q-20 -1 -35.5 -4t-26.5 -12t-16.5 -27.5t-5.5 -51.5v-511q0 -28 3.5 -45t13 -27t27 -14t44.5 -5v-19h-340v19zM343 860q0 -24 -17 -41t-42 -17t-42 17t-17 41q0 25 17.5 42
t41.5 17q25 0 42 -17t17 -42zM165 860q0 -24 -17.5 -41t-41.5 -17q-25 0 -42 17t-17 41q0 25 17 42t42 17q24 0 41.5 -17t17.5 -42z" />
    <glyph glyph-name="Eth" unicode="&#xd0;" horiz-adv-x="778" 
d="M264 103q0 -22 2.5 -35.5t8.5 -21t17 -10.5t28 -3q121 0 188 88.5t67 248.5q0 165 -71 250t-213 85q-17 0 -22 -6t-5 -16v-249h172v-74h-172v-257zM7 19h12q27 1 44.5 6.5t27.5 18.5t14 34.5t4 55.5v226h-99v74h99v170q0 32 -4.5 53t-16 33.5t-30.5 18.5t-49 7v19h325
q111 0 189.5 -28.5t129 -78t73.5 -117.5t23 -146q0 -157 -95 -255q-30 -30 -64 -50.5t-77 -34t-97 -19.5t-123 -6h-286v19z" />
    <glyph glyph-name="Ntilde" unicode="&#xd1;" horiz-adv-x="778" 
d="M155 596v-481q0 -30 4 -49t15 -29.5t30.5 -14t50.5 -3.5v-19h-236v19h11q28 1 45 5t26 14t12 27.5t3 46.5v537q-20 24 -33 37t-24 19t-22.5 8t-27.5 3v19h229l387 -465v356q0 50 -20 69t-77 21v19h234v-19h-12q-26 -1 -42.5 -5t-26.5 -14t-13.5 -27t-3.5 -44v-633h-17z
M216 802q11 52 40 82.5t68 30.5q25 0 45 -6.5t37.5 -15t34 -15t34.5 -6.5q38 0 52 44h36q-7 -32 -18.5 -53.5t-26 -35t-31 -19t-33.5 -5.5q-22 0 -43 6.5t-40.5 15t-37 15t-31.5 6.5q-35 0 -50 -44h-36z" />
    <glyph glyph-name="Ograve" unicode="&#xd2;" horiz-adv-x="778" 
d="M744 368q0 -87 -27 -157.5t-75 -121t-114 -77.5t-144 -27t-144.5 27t-114.5 77.5t-75 121t-27 157.5t27 157.5t75 120.5t114.5 77t144.5 27t144 -27t114 -77t75 -120.5t27 -157.5zM571 368q0 165 -48 257t-139 92q-92 0 -139.5 -92t-47.5 -257t47.5 -257.5t139.5 -92.5
q91 0 139 92.5t48 257.5zM262 886q-22 13 -22 36q0 17 13.5 29.5t32.5 12.5q24 0 50 -27l141 -151h-51z" />
    <glyph glyph-name="Oacute" unicode="&#xd3;" horiz-adv-x="778" 
d="M744 368q0 -87 -27 -157.5t-75 -121t-114 -77.5t-144 -27t-144.5 27t-114.5 77.5t-75 121t-27 157.5t27 157.5t75 120.5t114.5 77t144.5 27t144 -27t114 -77t75 -120.5t27 -157.5zM571 368q0 165 -48 257t-139 92q-92 0 -139.5 -92t-47.5 -257t47.5 -257.5t139.5 -92.5
q91 0 139 92.5t48 257.5zM442 937q25 27 50 27q19 0 32.5 -12.5t13.5 -29.5q0 -23 -22 -36l-164 -100h-51z" />
    <glyph glyph-name="Ocircumflex" unicode="&#xd4;" horiz-adv-x="778" 
d="M744 368q0 -87 -27 -157.5t-75 -121t-114 -77.5t-144 -27t-144.5 27t-114.5 77.5t-75 121t-27 157.5t27 157.5t75 120.5t114.5 77t144.5 27t144 -27t114 -77t75 -120.5t27 -157.5zM571 368q0 165 -48 257t-139 92q-92 0 -139.5 -92t-47.5 -257t47.5 -257.5t139.5 -92.5
q91 0 139 92.5t48 257.5zM350 959h78l124 -171h-50l-113 99l-114 -99h-49z" />
    <glyph glyph-name="Otilde" unicode="&#xd5;" horiz-adv-x="778" 
d="M744 368q0 -87 -27 -157.5t-75 -121t-114 -77.5t-144 -27t-144.5 27t-114.5 77.5t-75 121t-27 157.5t27 157.5t75 120.5t114.5 77t144.5 27t144 -27t114 -77t75 -120.5t27 -157.5zM571 368q0 165 -48 257t-139 92q-92 0 -139.5 -92t-47.5 -257t47.5 -257.5t139.5 -92.5
q91 0 139 92.5t48 257.5zM216 802q11 52 40 82.5t68 30.5q25 0 45 -6.5t37.5 -15t34 -15t34.5 -6.5q38 0 52 44h36q-7 -32 -18.5 -53.5t-26 -35t-31 -19t-33.5 -5.5q-22 0 -43 6.5t-40.5 15t-37 15t-31.5 6.5q-35 0 -50 -44h-36z" />
    <glyph glyph-name="Odieresis" unicode="&#xd6;" horiz-adv-x="778" 
d="M744 368q0 -87 -27 -157.5t-75 -121t-114 -77.5t-144 -27t-144.5 27t-114.5 77.5t-75 121t-27 157.5t27 157.5t75 120.5t114.5 77t144.5 27t144 -27t114 -77t75 -120.5t27 -157.5zM571 368q0 165 -48 257t-139 92q-92 0 -139.5 -92t-47.5 -257t47.5 -257.5t139.5 -92.5
q91 0 139 92.5t48 257.5zM537 860q0 -24 -17 -41t-42 -17t-42 17t-17 41q0 25 17.5 42t41.5 17q25 0 42 -17t17 -42zM359 860q0 -24 -17.5 -41t-41.5 -17q-25 0 -42 17t-17 41q0 25 17 42t42 17q24 0 41.5 -17t17.5 -42z" />
    <glyph glyph-name="multiply" unicode="&#xd7;" horiz-adv-x="600" 
d="M70 78l174 175l-174 174l56 54l173 -173l173 173l55 -55l-173 -173l175 -175l-55 -55l-175 175l-174 -175z" />
    <glyph glyph-name="Oslash" unicode="&#xd8;" horiz-adv-x="778" 
d="M240 121q47 -103 144 -103q91 0 139 92.5t48 257.5q0 125 -27 206zM526 619q-47 98 -142 98q-92 0 -139.5 -92t-47.5 -257q0 -120 25 -201zM153 64q-61 51 -95.5 127.5t-34.5 176.5q0 87 27 157.5t75 120.5t114.5 77t144.5 27q111 0 194 -53l45 67q5 8 10.5 16t10.5 15
h48q-7 -9 -13 -18.5t-13 -19.5l-55 -82q63 -51 98 -128t35 -179q0 -87 -27 -157.5t-75 -121t-114 -77.5t-144 -27q-113 0 -198 55l-77 -114h-49z" />
    <glyph glyph-name="Ugrave" unicode="&#xd9;" horiz-adv-x="778" 
d="M627 612q0 31 -4 51.5t-14.5 32t-29 16t-47.5 4.5v19h227v-19q-53 0 -72.5 -21t-19.5 -76v-372q0 -128 -72 -195t-210 -67q-78 0 -138 24t-96 72q-13 17 -21 33t-13 36.5t-7 46.5t-2 62v338q0 41 -5 64t-16.5 34.5t-29.5 15t-45 5.5v19h347v-19h-11q-25 -1 -41.5 -6
t-26 -16t-13.5 -29.5t-4 -45.5v-414q0 -53 13.5 -86.5t36.5 -52t53.5 -25.5t64.5 -7q94 0 145 54.5t51 154.5v369zM272 886q-22 13 -22 36q0 17 13.5 29.5t32.5 12.5q24 0 50 -27l141 -151h-51z" />
    <glyph glyph-name="Uacute" unicode="&#xda;" horiz-adv-x="778" 
d="M627 612q0 31 -4 51.5t-14.5 32t-29 16t-47.5 4.5v19h227v-19q-53 0 -72.5 -21t-19.5 -76v-372q0 -128 -72 -195t-210 -67q-78 0 -138 24t-96 72q-13 17 -21 33t-13 36.5t-7 46.5t-2 62v338q0 41 -5 64t-16.5 34.5t-29.5 15t-45 5.5v19h347v-19h-11q-25 -1 -41.5 -6
t-26 -16t-13.5 -29.5t-4 -45.5v-414q0 -53 13.5 -86.5t36.5 -52t53.5 -25.5t64.5 -7q94 0 145 54.5t51 154.5v369zM452 937q25 27 50 27q19 0 32.5 -12.5t13.5 -29.5q0 -23 -22 -36l-164 -100h-51z" />
    <glyph glyph-name="Ucircumflex" unicode="&#xdb;" horiz-adv-x="778" 
d="M627 612q0 31 -4 51.5t-14.5 32t-29 16t-47.5 4.5v19h227v-19q-53 0 -72.5 -21t-19.5 -76v-372q0 -128 -72 -195t-210 -67q-78 0 -138 24t-96 72q-13 17 -21 33t-13 36.5t-7 46.5t-2 62v338q0 41 -5 64t-16.5 34.5t-29.5 15t-45 5.5v19h347v-19h-11q-25 -1 -41.5 -6
t-26 -16t-13.5 -29.5t-4 -45.5v-414q0 -53 13.5 -86.5t36.5 -52t53.5 -25.5t64.5 -7q94 0 145 54.5t51 154.5v369zM360 959h78l124 -171h-50l-113 99l-114 -99h-49z" />
    <glyph glyph-name="Udieresis" unicode="&#xdc;" horiz-adv-x="778" 
d="M627 612q0 31 -4 51.5t-14.5 32t-29 16t-47.5 4.5v19h227v-19q-53 0 -72.5 -21t-19.5 -76v-372q0 -128 -72 -195t-210 -67q-78 0 -138 24t-96 72q-13 17 -21 33t-13 36.5t-7 46.5t-2 62v338q0 41 -5 64t-16.5 34.5t-29.5 15t-45 5.5v19h347v-19h-11q-25 -1 -41.5 -6
t-26 -16t-13.5 -29.5t-4 -45.5v-414q0 -53 13.5 -86.5t36.5 -52t53.5 -25.5t64.5 -7q94 0 145 54.5t51 154.5v369zM547 860q0 -24 -17 -41t-42 -17t-42 17t-17 41q0 25 17.5 42t41.5 17q25 0 42 -17t17 -42zM369 860q0 -24 -17.5 -41t-41.5 -17q-25 0 -42 17t-17 41
q0 25 17 42t42 17q24 0 41.5 -17t17.5 -42z" />
    <glyph glyph-name="Yacute" unicode="&#xdd;" horiz-adv-x="778" 
d="M213 19q31 0 50 4t29.5 14.5t14 30t3.5 50.5v173l-205 354q-12 21 -20.5 34.5t-17.5 21.5t-19 11.5t-25 3.5v19h320v-19q-43 -2 -60 -9t-17 -23q0 -9 5 -19.5t13 -25.5l162 -287l146 256q8 14 13.5 30t5.5 28q0 24 -20 36t-66 14v19h223v-19q-16 0 -21.5 -1t-13.5 -4
q-12 -4 -27.5 -21.5t-28.5 -40.5l-192 -334v-209q0 -25 4 -41.5t14.5 -26t28 -14t44.5 -5.5h11v-19h-354v19zM452 937q25 27 50 27q19 0 32.5 -12.5t13.5 -29.5q0 -23 -22 -36l-164 -100h-51z" />
    <glyph glyph-name="Thorn" unicode="&#xde;" horiz-adv-x="667" 
d="M272 242q10 -2 15 -2h13q85 0 124 39t39 121q0 161 -155 161h-17q-19 0 -19 -19v-300zM21 19h12q25 1 41 6t25.5 16.5t13.5 30t4 46.5v513q0 48 -18 66.5t-70 18.5h-10v19h351v-19h-10q-52 0 -70 -19.5t-18 -67.5v-36h94q68 0 117.5 -14t81.5 -40.5t47.5 -63.5t15.5 -82
q0 -190 -282 -190h-31.5t-42.5 2v-104q0 -25 3.5 -41t13 -25t27 -12.5t45.5 -3.5h14v-19h-354v19z" />
    <glyph glyph-name="germandbls" unicode="&#xdf;" horiz-adv-x="556" 
d="M20 19q26 4 36 19.5t10 53.5v450q0 91 55 142t154 51q43 0 79 -11.5t61 -32t39 -49.5t14 -65q0 -54 -31.5 -92t-85.5 -51q-15 -4 -19.5 -6.5t-4.5 -7.5t4.5 -7t18.5 -5q73 -16 114.5 -68t41.5 -133q0 -47 -13 -86t-36.5 -67.5t-56 -44.5t-71.5 -16q-52 0 -87 23l20 36
q18 -18 43 -18q36 0 48.5 43t12.5 141q0 49 -5.5 83t-17.5 55t-31.5 30.5t-46.5 9.5h-15v37h14q20 0 33.5 6t21.5 21.5t11 41t3 64.5q0 77 -14.5 108t-51.5 31q-28 0 -46 -22t-18 -56v-627h-183v19z" />
    <glyph glyph-name="agrave" unicode="&#xe0;" 
d="M284 405q0 68 -72 68q-25 0 -44 -9.5t-19 -22.5q0 -7 4.5 -15.5t9.5 -18t9.5 -20.5t4.5 -23q0 -25 -17 -40.5t-45 -15.5q-29 0 -47.5 18t-18.5 47t15.5 54t43.5 43t65.5 28.5t81.5 10.5q32 0 62 -6t53 -21t36.5 -39.5t13.5 -61.5v-292q0 -30 28 -30q11 0 18 5.5t10 5.5
q6 0 6 -7q0 -5 -6 -16t-19 -22.5t-33 -20.5t-48 -9q-33 0 -56.5 16.5t-32.5 46.5q-37 -33 -71 -48t-72 -15q-54 0 -84 27.5t-30 76.5q0 34 16 61t40.5 47.5t54.5 35.5t58.5 25.5t51 16.5t33.5 9v111zM284 265q-60 -21 -87.5 -51.5t-27.5 -75.5q0 -32 14 -51t38 -19
q31 0 63 29v168zM123 669q-22 13 -22 36q0 17 13.5 29.5t32.5 12.5q24 0 50 -27l141 -151h-51z" />
    <glyph glyph-name="aacute" unicode="&#xe1;" 
d="M284 405q0 68 -72 68q-25 0 -44 -9.5t-19 -22.5q0 -7 4.5 -15.5t9.5 -18t9.5 -20.5t4.5 -23q0 -25 -17 -40.5t-45 -15.5q-29 0 -47.5 18t-18.5 47t15.5 54t43.5 43t65.5 28.5t81.5 10.5q32 0 62 -6t53 -21t36.5 -39.5t13.5 -61.5v-292q0 -30 28 -30q11 0 18 5.5t10 5.5
q6 0 6 -7q0 -5 -6 -16t-19 -22.5t-33 -20.5t-48 -9q-33 0 -56.5 16.5t-32.5 46.5q-37 -33 -71 -48t-72 -15q-54 0 -84 27.5t-30 76.5q0 34 16 61t40.5 47.5t54.5 35.5t58.5 25.5t51 16.5t33.5 9v111zM284 265q-60 -21 -87.5 -51.5t-27.5 -75.5q0 -32 14 -51t38 -19
q31 0 63 29v168zM303 720q25 27 50 27q19 0 32.5 -12.5t13.5 -29.5q0 -23 -22 -36l-164 -100h-51z" />
    <glyph glyph-name="acircumflex" unicode="&#xe2;" 
d="M284 405q0 68 -72 68q-25 0 -44 -9.5t-19 -22.5q0 -7 4.5 -15.5t9.5 -18t9.5 -20.5t4.5 -23q0 -25 -17 -40.5t-45 -15.5q-29 0 -47.5 18t-18.5 47t15.5 54t43.5 43t65.5 28.5t81.5 10.5q32 0 62 -6t53 -21t36.5 -39.5t13.5 -61.5v-292q0 -30 28 -30q11 0 18 5.5t10 5.5
q6 0 6 -7q0 -5 -6 -16t-19 -22.5t-33 -20.5t-48 -9q-33 0 -56.5 16.5t-32.5 46.5q-37 -33 -71 -48t-72 -15q-54 0 -84 27.5t-30 76.5q0 34 16 61t40.5 47.5t54.5 35.5t58.5 25.5t51 16.5t33.5 9v111zM284 265q-60 -21 -87.5 -51.5t-27.5 -75.5q0 -32 14 -51t38 -19
q31 0 63 29v168zM211 742h78l124 -171h-50l-113 99l-114 -99h-49z" />
    <glyph glyph-name="atilde" unicode="&#xe3;" 
d="M284 405q0 68 -72 68q-25 0 -44 -9.5t-19 -22.5q0 -7 4.5 -15.5t9.5 -18t9.5 -20.5t4.5 -23q0 -25 -17 -40.5t-45 -15.5q-29 0 -47.5 18t-18.5 47t15.5 54t43.5 43t65.5 28.5t81.5 10.5q32 0 62 -6t53 -21t36.5 -39.5t13.5 -61.5v-292q0 -30 28 -30q11 0 18 5.5t10 5.5
q6 0 6 -7q0 -5 -6 -16t-19 -22.5t-33 -20.5t-48 -9q-33 0 -56.5 16.5t-32.5 46.5q-37 -33 -71 -48t-72 -15q-54 0 -84 27.5t-30 76.5q0 34 16 61t40.5 47.5t54.5 35.5t58.5 25.5t51 16.5t33.5 9v111zM284 265q-60 -21 -87.5 -51.5t-27.5 -75.5q0 -32 14 -51t38 -19
q31 0 63 29v168zM77 585q11 52 40 82.5t68 30.5q25 0 45 -6.5t37.5 -15t34 -15t34.5 -6.5q38 0 52 44h36q-7 -32 -18.5 -53.5t-26 -35t-31 -19t-33.5 -5.5q-22 0 -43 6.5t-40.5 15t-37 15t-31.5 6.5q-35 0 -50 -44h-36z" />
    <glyph glyph-name="adieresis" unicode="&#xe4;" 
d="M284 405q0 68 -72 68q-25 0 -44 -9.5t-19 -22.5q0 -7 4.5 -15.5t9.5 -18t9.5 -20.5t4.5 -23q0 -25 -17 -40.5t-45 -15.5q-29 0 -47.5 18t-18.5 47t15.5 54t43.5 43t65.5 28.5t81.5 10.5q32 0 62 -6t53 -21t36.5 -39.5t13.5 -61.5v-292q0 -30 28 -30q11 0 18 5.5t10 5.5
q6 0 6 -7q0 -5 -6 -16t-19 -22.5t-33 -20.5t-48 -9q-33 0 -56.5 16.5t-32.5 46.5q-37 -33 -71 -48t-72 -15q-54 0 -84 27.5t-30 76.5q0 34 16 61t40.5 47.5t54.5 35.5t58.5 25.5t51 16.5t33.5 9v111zM284 265q-60 -21 -87.5 -51.5t-27.5 -75.5q0 -32 14 -51t38 -19
q31 0 63 29v168zM398 643q0 -24 -17 -41t-42 -17t-42 17t-17 41q0 25 17.5 42t41.5 17q25 0 42 -17t17 -42zM220 643q0 -24 -17.5 -41t-41.5 -17q-25 0 -42 17t-17 41q0 25 17 42t42 17q24 0 41.5 -17t17.5 -42z" />
    <glyph glyph-name="aring" unicode="&#xe5;" 
d="M284 405q0 68 -72 68q-25 0 -44 -9.5t-19 -22.5q0 -7 4.5 -15.5t9.5 -18t9.5 -20.5t4.5 -23q0 -25 -17 -40.5t-45 -15.5q-29 0 -47.5 18t-18.5 47t15.5 54t43.5 43t65.5 28.5t81.5 10.5q32 0 62 -6t53 -21t36.5 -39.5t13.5 -61.5v-292q0 -30 28 -30q11 0 18 5.5t10 5.5
q6 0 6 -7q0 -5 -6 -16t-19 -22.5t-33 -20.5t-48 -9q-33 0 -56.5 16.5t-32.5 46.5q-37 -33 -71 -48t-72 -15q-54 0 -84 27.5t-30 76.5q0 34 16 61t40.5 47.5t54.5 35.5t58.5 25.5t51 16.5t33.5 9v111zM284 265q-60 -21 -87.5 -51.5t-27.5 -75.5q0 -32 14 -51t38 -19
q31 0 63 29v168zM353 665q0 -21 -8 -40t-22 -33t-33 -22t-40 -8t-40 8t-33 22t-22 33t-8 40t8 40t22 33t33 22t40 8t40 -8t33 -22t22 -33t8 -40zM312 665q0 26 -18 43.5t-44 17.5t-43.5 -17.5t-17.5 -43.5t17.5 -44t43.5 -18t44 18t18 44z" />
    <glyph glyph-name="ae" unicode="&#xe6;" horiz-adv-x="667" 
d="M634 138q-66 -143 -180 -143q-45 0 -78.5 20.5t-67.5 68.5q-72 -89 -162 -89q-51 0 -82.5 28.5t-31.5 76.5q0 41 26.5 74.5t64 59t77 43.5t66.5 29v65q0 62 -18 84.5t-58 22.5q-51 0 -51 -31q0 -9 4 -18t9.5 -18t9.5 -19t4 -22q0 -24 -17 -39t-43 -15q-29 0 -48.5 19.5
t-19.5 48.5q0 25 13.5 48t37.5 40t55.5 27t67.5 10t68 -9t67 -28q29 20 54.5 28.5t51.5 8.5q79 0 125.5 -63.5t48.5 -178.5h-230q5 -186 120 -186q60 0 103 64zM513 300v33q0 75 -14.5 109.5t-44.5 34.5q-32 0 -45 -32t-13 -110v-35h117zM266 274q-31 -11 -51.5 -29.5
t-32.5 -39.5t-17 -42.5t-5 -38.5q0 -31 15 -50.5t39 -19.5t38 18t14 47v155z" />
    <glyph glyph-name="ccedilla" unicode="&#xe7;" horiz-adv-x="444" 
d="M118 -166q17 -7 31 -9.5t31 -2.5q56 0 56 39q0 38 -50 38q-8 0 -12.5 -0.5t-12.5 -3.5l-11 8l41 94q-79 10 -123.5 71.5t-44.5 166.5q0 60 16 110.5t45 86.5t69 56.5t88 20.5q33 0 62.5 -11t52 -29t36 -42t13.5 -51q0 -23 -16.5 -39.5t-40.5 -16.5q-57 0 -66 82
q-5 42 -17 58t-39 16q-39 0 -61 -42.5t-22 -120.5q0 -56 10.5 -101t29.5 -77.5t46 -50t60 -17.5q61 0 115 63l11 -7q-30 -58 -78 -91t-105 -37l-29 -60q8 2 13 3t17 1q43 0 66 -18t23 -52q0 -86 -131 -86q-24 0 -42 3t-47 13z" />
    <glyph glyph-name="egrave" unicode="&#xe8;" horiz-adv-x="444" 
d="M417 139q-7 -16 -13 -27.5t-12.5 -21t-15.5 -19t-22 -21.5q-31 -29 -61 -42t-68 -13q-45 0 -82.5 17.5t-63.5 49.5t-40.5 78t-14.5 102q0 57 15.5 106t43 85t65.5 56t82 20q85 0 133 -63.5t51 -178.5h-261q2 -97 35.5 -147.5t96.5 -50.5q35 0 62 17t55 59zM295 300v18
q-2 88 -17.5 123.5t-50.5 35.5q-38 0 -55.5 -41.5t-18.5 -135.5h142zM102 669q-22 13 -22 36q0 17 13.5 29.5t32.5 12.5q24 0 50 -27l141 -151h-51z" />
    <glyph glyph-name="eacute" unicode="&#xe9;" horiz-adv-x="444" 
d="M417 139q-7 -16 -13 -27.5t-12.5 -21t-15.5 -19t-22 -21.5q-31 -29 -61 -42t-68 -13q-45 0 -82.5 17.5t-63.5 49.5t-40.5 78t-14.5 102q0 57 15.5 106t43 85t65.5 56t82 20q85 0 133 -63.5t51 -178.5h-261q2 -97 35.5 -147.5t96.5 -50.5q35 0 62 17t55 59zM295 300v18
q-2 88 -17.5 123.5t-50.5 35.5q-38 0 -55.5 -41.5t-18.5 -135.5h142zM282 720q25 27 50 27q19 0 32.5 -12.5t13.5 -29.5q0 -23 -22 -36l-164 -100h-51z" />
    <glyph glyph-name="ecircumflex" unicode="&#xea;" horiz-adv-x="444" 
d="M417 139q-7 -16 -13 -27.5t-12.5 -21t-15.5 -19t-22 -21.5q-31 -29 -61 -42t-68 -13q-45 0 -82.5 17.5t-63.5 49.5t-40.5 78t-14.5 102q0 57 15.5 106t43 85t65.5 56t82 20q85 0 133 -63.5t51 -178.5h-261q2 -97 35.5 -147.5t96.5 -50.5q35 0 62 17t55 59zM295 300v18
q-2 88 -17.5 123.5t-50.5 35.5q-38 0 -55.5 -41.5t-18.5 -135.5h142zM190 742h78l124 -171h-50l-113 99l-114 -99h-49z" />
    <glyph glyph-name="edieresis" unicode="&#xeb;" horiz-adv-x="444" 
d="M417 139q-7 -16 -13 -27.5t-12.5 -21t-15.5 -19t-22 -21.5q-31 -29 -61 -42t-68 -13q-45 0 -82.5 17.5t-63.5 49.5t-40.5 78t-14.5 102q0 57 15.5 106t43 85t65.5 56t82 20q85 0 133 -63.5t51 -178.5h-261q2 -97 35.5 -147.5t96.5 -50.5q35 0 62 17t55 59zM295 300v18
q-2 88 -17.5 123.5t-50.5 35.5q-38 0 -55.5 -41.5t-18.5 -135.5h142zM377 643q0 -24 -17 -41t-42 -17t-42 17t-17 41q0 25 17.5 42t41.5 17q25 0 42 -17t17 -42zM199 643q0 -24 -17.5 -41t-41.5 -17q-25 0 -42 17t-17 41q0 25 17 42t42 17q24 0 41.5 -17t17.5 -42z" />
    <glyph glyph-name="igrave" unicode="&#xec;" horiz-adv-x="278" 
d="M18 19q51 0 51 46v371q0 26 -10.5 37.5t-35.5 11.5v18h183v-437q0 -47 51 -47v-19h-239v19zM13 669q-22 13 -22 36q0 17 13.5 29.5t32.5 12.5q24 0 50 -27l141 -151h-51z" />
    <glyph glyph-name="iacute" unicode="&#xed;" horiz-adv-x="278" 
d="M18 19q51 0 51 46v371q0 26 -10.5 37.5t-35.5 11.5v18h183v-437q0 -47 51 -47v-19h-239v19zM193 720q25 27 50 27q19 0 32.5 -12.5t13.5 -29.5q0 -23 -22 -36l-164 -100h-51z" />
    <glyph glyph-name="icircumflex" unicode="&#xee;" horiz-adv-x="278" 
d="M18 19q51 0 51 46v371q0 26 -10.5 37.5t-35.5 11.5v18h183v-437q0 -47 51 -47v-19h-239v19zM101 742h78l124 -171h-50l-113 99l-114 -99h-49z" />
    <glyph glyph-name="idieresis" unicode="&#xef;" horiz-adv-x="278" 
d="M18 19q51 0 51 46v371q0 26 -10.5 37.5t-35.5 11.5v18h183v-437q0 -47 51 -47v-19h-239v19zM288 643q0 -24 -17 -41t-42 -17t-42 17t-17 41q0 25 17.5 42t41.5 17q25 0 42 -17t17 -42zM110 643q0 -24 -17.5 -41t-41.5 -17q-25 0 -42 17t-17 41q0 25 17 42t42 17
q24 0 41.5 -17t17.5 -42z" />
    <glyph glyph-name="eth" unicode="&#xf0;" 
d="M333 252q0 61 -5 103t-15.5 68.5t-27 38.5t-39.5 12t-39.5 -12t-27 -38.5t-15.5 -68.5t-5 -103t5 -103t15.5 -68.5t27 -38.5t39.5 -12t39.5 12t27 38.5t15.5 68.5t5 103zM477 252q0 -57 -17 -104.5t-47.5 -81.5t-73 -52.5t-93.5 -18.5q-50 0 -92 18t-72.5 51.5t-47.5 81
t-17 106.5t17 106.5t47.5 81t72.5 51.5t92 18q24 0 43 -4.5t38 -14.5q-8 33 -19 55.5t-27 43.5l-106 -54l-24 38l99 52q-25 23 -46 36.5t-47 24.5l28 49q37 -11 70.5 -29.5t67.5 -43.5l117 60l27 -37l-107 -55q31 -34 53 -69t36 -76t21 -89.5t7 -109.5v-34z" />
    <glyph glyph-name="ntilde" unicode="&#xf1;" horiz-adv-x="556" 
d="M32 19q23 4 32.5 13.5t9.5 32.5v374q0 23 -9.5 33.5t-32.5 12.5v18h176v-76q38 42 72.5 62t76.5 20q60 0 91 -39t31 -114v-291q0 -23 10 -33t34 -13v-19h-224v19q24 3 34 13t10 33v332q0 46 -45 46q-23 0 -43 -15.5t-44 -43.5v-319q0 -23 9.5 -33.5t35.5 -12.5v-19h-224
v19zM105 585q11 52 40 82.5t68 30.5q25 0 45 -6.5t37.5 -15t34 -15t34.5 -6.5q38 0 52 44h36q-7 -32 -18.5 -53.5t-26 -35t-31 -19t-33.5 -5.5q-22 0 -43 6.5t-40.5 15t-37 15t-31.5 6.5q-35 0 -50 -44h-36z" />
    <glyph glyph-name="ograve" unicode="&#xf2;" 
d="M475 252q0 -59 -16.5 -106.5t-47 -81t-72.5 -51.5t-93 -18q-50 0 -92 18t-72.5 51.5t-47.5 81t-17 106.5t17 106.5t47.5 81t72.5 51.5t92 18q53 0 95.5 -18t72 -51.5t45.5 -81t16 -106.5zM333 252q0 61 -5 103t-15.5 68.5t-27 38.5t-39.5 12t-39.5 -12t-27 -38.5
t-15.5 -68.5t-5 -103t5 -103t15.5 -68.5t27 -38.5t39.5 -12t39.5 12t27 38.5t15.5 68.5t5 103zM123 669q-22 13 -22 36q0 17 13.5 29.5t32.5 12.5q24 0 50 -27l141 -151h-51z" />
    <glyph glyph-name="oacute" unicode="&#xf3;" 
d="M475 252q0 -59 -16.5 -106.5t-47 -81t-72.5 -51.5t-93 -18q-50 0 -92 18t-72.5 51.5t-47.5 81t-17 106.5t17 106.5t47.5 81t72.5 51.5t92 18q53 0 95.5 -18t72 -51.5t45.5 -81t16 -106.5zM333 252q0 61 -5 103t-15.5 68.5t-27 38.5t-39.5 12t-39.5 -12t-27 -38.5
t-15.5 -68.5t-5 -103t5 -103t15.5 -68.5t27 -38.5t39.5 -12t39.5 12t27 38.5t15.5 68.5t5 103zM303 720q25 27 50 27q19 0 32.5 -12.5t13.5 -29.5q0 -23 -22 -36l-164 -100h-51z" />
    <glyph glyph-name="ocircumflex" unicode="&#xf4;" 
d="M475 252q0 -59 -16.5 -106.5t-47 -81t-72.5 -51.5t-93 -18q-50 0 -92 18t-72.5 51.5t-47.5 81t-17 106.5t17 106.5t47.5 81t72.5 51.5t92 18q53 0 95.5 -18t72 -51.5t45.5 -81t16 -106.5zM333 252q0 61 -5 103t-15.5 68.5t-27 38.5t-39.5 12t-39.5 -12t-27 -38.5
t-15.5 -68.5t-5 -103t5 -103t15.5 -68.5t27 -38.5t39.5 -12t39.5 12t27 38.5t15.5 68.5t5 103zM211 742h78l124 -171h-50l-113 99l-114 -99h-49z" />
    <glyph glyph-name="otilde" unicode="&#xf5;" 
d="M475 252q0 -59 -16.5 -106.5t-47 -81t-72.5 -51.5t-93 -18q-50 0 -92 18t-72.5 51.5t-47.5 81t-17 106.5t17 106.5t47.5 81t72.5 51.5t92 18q53 0 95.5 -18t72 -51.5t45.5 -81t16 -106.5zM333 252q0 61 -5 103t-15.5 68.5t-27 38.5t-39.5 12t-39.5 -12t-27 -38.5
t-15.5 -68.5t-5 -103t5 -103t15.5 -68.5t27 -38.5t39.5 -12t39.5 12t27 38.5t15.5 68.5t5 103zM77 585q11 52 40 82.5t68 30.5q25 0 45 -6.5t37.5 -15t34 -15t34.5 -6.5q38 0 52 44h36q-7 -32 -18.5 -53.5t-26 -35t-31 -19t-33.5 -5.5q-22 0 -43 6.5t-40.5 15t-37 15
t-31.5 6.5q-35 0 -50 -44h-36z" />
    <glyph glyph-name="odieresis" unicode="&#xf6;" 
d="M475 252q0 -59 -16.5 -106.5t-47 -81t-72.5 -51.5t-93 -18q-50 0 -92 18t-72.5 51.5t-47.5 81t-17 106.5t17 106.5t47.5 81t72.5 51.5t92 18q53 0 95.5 -18t72 -51.5t45.5 -81t16 -106.5zM333 252q0 61 -5 103t-15.5 68.5t-27 38.5t-39.5 12t-39.5 -12t-27 -38.5
t-15.5 -68.5t-5 -103t5 -103t15.5 -68.5t27 -38.5t39.5 -12t39.5 12t27 38.5t15.5 68.5t5 103zM398 643q0 -24 -17 -41t-42 -17t-42 17t-17 41q0 25 17.5 42t41.5 17q25 0 42 -17t17 -42zM220 643q0 -24 -17.5 -41t-41.5 -17q-25 0 -42 17t-17 41q0 25 17 42t42 17
q24 0 41.5 -17t17.5 -42z" />
    <glyph glyph-name="divide" unicode="&#xf7;" horiz-adv-x="600" 
d="M65 276h470v-82h-470v82zM382 431q0 -34 -23.5 -57.5t-57.5 -23.5t-57.5 23.5t-23.5 57.5q0 33 23.5 57t57.5 24t57.5 -24t23.5 -57zM382 68q0 -33 -23.5 -57t-57.5 -24t-57.5 24t-23.5 57q0 34 23.5 57.5t57.5 23.5t57.5 -23.5t23.5 -57.5z" />
    <glyph glyph-name="oslash" unicode="&#xf8;" 
d="M106 42q-42 33 -65.5 86.5t-23.5 123.5q0 59 17 106.5t47.5 81t72.5 51.5t92 18q64 0 111 -26l30 52l30 52h41q-10 -17 -18.5 -32.5t-16.5 -29.5l-25 -42l-11 -19q42 -33 65 -86.5t23 -125.5q0 -59 -16.5 -106.5t-47 -81t-72.5 -51.5t-93 -18q-63 0 -111 27l-60 -106h-41
zM318 414q-20 60 -72 60q-20 0 -36 -11.5t-27 -39.5t-17.5 -75t-6.5 -118q0 -25 1.5 -46.5t3.5 -39.5zM175 92q21 -62 71 -62q28 0 45.5 16t26.5 47.5t12 78t3 108.5q0 23 -1 43.5t-3 37.5z" />
    <glyph glyph-name="ugrave" unicode="&#xf9;" horiz-adv-x="556" 
d="M338 74q-22 -22 -40.5 -37t-36 -24.5t-35.5 -13.5t-39 -4q-57 0 -87.5 31t-30.5 89v334q0 36 -50 36v18h187v-388q0 -61 42 -61q17 0 42.5 21.5t47.5 50.5v323q0 36 -53 36v18h190v-434q0 -17 11.5 -24.5t38.5 -8.5v-19q-43 -1 -95 -9t-92 -17v83zM151 669q-22 13 -22 36
q0 17 13.5 29.5t32.5 12.5q24 0 50 -27l141 -151h-51z" />
    <glyph glyph-name="uacute" unicode="&#xfa;" horiz-adv-x="556" 
d="M338 74q-22 -22 -40.5 -37t-36 -24.5t-35.5 -13.5t-39 -4q-57 0 -87.5 31t-30.5 89v334q0 36 -50 36v18h187v-388q0 -61 42 -61q17 0 42.5 21.5t47.5 50.5v323q0 36 -53 36v18h190v-434q0 -17 11.5 -24.5t38.5 -8.5v-19q-43 -1 -95 -9t-92 -17v83zM331 720q25 27 50 27
q19 0 32.5 -12.5t13.5 -29.5q0 -23 -22 -36l-164 -100h-51z" />
    <glyph glyph-name="ucircumflex" unicode="&#xfb;" horiz-adv-x="556" 
d="M338 74q-22 -22 -40.5 -37t-36 -24.5t-35.5 -13.5t-39 -4q-57 0 -87.5 31t-30.5 89v334q0 36 -50 36v18h187v-388q0 -61 42 -61q17 0 42.5 21.5t47.5 50.5v323q0 36 -53 36v18h190v-434q0 -17 11.5 -24.5t38.5 -8.5v-19q-43 -1 -95 -9t-92 -17v83zM239 742h78l124 -171
h-50l-113 99l-114 -99h-49z" />
    <glyph glyph-name="udieresis" unicode="&#xfc;" horiz-adv-x="556" 
d="M338 74q-22 -22 -40.5 -37t-36 -24.5t-35.5 -13.5t-39 -4q-57 0 -87.5 31t-30.5 89v334q0 36 -50 36v18h187v-388q0 -61 42 -61q17 0 42.5 21.5t47.5 50.5v323q0 36 -53 36v18h190v-434q0 -17 11.5 -24.5t38.5 -8.5v-19q-43 -1 -95 -9t-92 -17v83zM426 643q0 -24 -17 -41
t-42 -17t-42 17t-17 41q0 25 17.5 42t41.5 17q25 0 42 -17t17 -42zM248 643q0 -24 -17.5 -41t-41.5 -17q-25 0 -42 17t-17 41q0 25 17 42t42 17q24 0 41.5 -17t17.5 -42z" />
    <glyph glyph-name="yacute" unicode="&#xfd;" 
d="M237 -10l-174 464q-5 13 -17 21t-27 10v18h243v-18q-52 -4 -52 -43q0 -8 1.5 -16t6.5 -20l84 -222l78 223q6 18 6 34q0 41 -53 44v18h146v-18q-39 -12 -49 -42l-201 -566q-38 -111 -128 -111q-40 0 -65.5 21t-25.5 55q0 26 16.5 43t42.5 17q22 0 37.5 -10.5t19.5 -46.5
q3 -26 22 -26q15 0 30 22.5t28 58.5zM309 720q25 27 50 27q19 0 32.5 -12.5t13.5 -29.5q0 -23 -22 -36l-164 -100h-51z" />
    <glyph glyph-name="thorn" unicode="&#xfe;" horiz-adv-x="556" 
d="M212 102q47 -53 83 -53q22 0 37.5 12.5t25 40t14 71.5t4.5 108q0 92 -15.5 128.5t-54.5 36.5q-21 0 -46.5 -14.5t-47.5 -39.5v-290zM14 -216h10q27 0 39 10.5t12 34.5v843q0 26 -11 35t-44 9v19h192v-295q63 69 132 69q81 0 127 -66.5t46 -186.5q0 -60 -12.5 -109
t-35.5 -83t-55 -52.5t-72 -18.5q-32 0 -61 11.5t-69 39.5v-215q0 -29 15 -37.5t57 -7.5v-18h-270v18z" />
    <glyph glyph-name="ydieresis" unicode="&#xff;" 
d="M237 -10l-174 464q-5 13 -17 21t-27 10v18h243v-18q-52 -4 -52 -43q0 -8 1.5 -16t6.5 -20l84 -222l78 223q6 18 6 34q0 41 -53 44v18h146v-18q-39 -12 -49 -42l-201 -566q-38 -111 -128 -111q-40 0 -65.5 21t-25.5 55q0 26 16.5 43t42.5 17q22 0 37.5 -10.5t19.5 -46.5
q3 -26 22 -26q15 0 30 22.5t28 58.5zM404 643q0 -24 -17 -41t-42 -17t-42 17t-17 41q0 25 17.5 42t41.5 17q25 0 42 -17t17 -42zM226 643q0 -24 -17.5 -41t-41.5 -17q-25 0 -42 17t-17 41q0 25 17 42t42 17q24 0 41.5 -17t17.5 -42z" />
    <glyph glyph-name="Amacron" unicode="&#x100;" horiz-adv-x="778" 
d="M21 19q19 1 31.5 5.5t22.5 15t19 29t21 47.5l251 634h25l264 -625q7 -16 11.5 -26.5t8.5 -18.5t7.5 -14t8.5 -13q22 -34 59 -34v-19h-315v19q38 2 55.5 13t17.5 34q0 10 -2.5 19t-6.5 18l-52 132h-249l-43 -113q-9 -24 -12 -36t-3 -22q0 -23 21 -34t66 -11v-19h-206v19z
M431 273l-110 269l-109 -269h219zM245 878h287v-63h-287v63z" />
    <glyph glyph-name="amacron" unicode="&#x101;" 
d="M284 405q0 68 -72 68q-25 0 -44 -9.5t-19 -22.5q0 -7 4.5 -15.5t9.5 -18t9.5 -20.5t4.5 -23q0 -25 -17 -40.5t-45 -15.5q-29 0 -47.5 18t-18.5 47t15.5 54t43.5 43t65.5 28.5t81.5 10.5q32 0 62 -6t53 -21t36.5 -39.5t13.5 -61.5v-292q0 -30 28 -30q11 0 18 5.5t10 5.5
q6 0 6 -7q0 -5 -6 -16t-19 -22.5t-33 -20.5t-48 -9q-33 0 -56.5 16.5t-32.5 46.5q-37 -33 -71 -48t-72 -15q-54 0 -84 27.5t-30 76.5q0 34 16 61t40.5 47.5t54.5 35.5t58.5 25.5t51 16.5t33.5 9v111zM284 265q-60 -21 -87.5 -51.5t-27.5 -75.5q0 -32 14 -51t38 -19
q31 0 63 29v168zM106 661h287v-63h-287v63z" />
    <glyph glyph-name="Abreve" unicode="&#x102;" horiz-adv-x="778" 
d="M21 19q19 1 31.5 5.5t22.5 15t19 29t21 47.5l251 634h25l264 -625q7 -16 11.5 -26.5t8.5 -18.5t7.5 -14t8.5 -13q22 -34 59 -34v-19h-315v19q38 2 55.5 13t17.5 34q0 10 -2.5 19t-6.5 18l-52 132h-249l-43 -113q-9 -24 -12 -36t-3 -22q0 -23 21 -34t66 -11v-19h-206v19z
M431 273l-110 269l-109 -269h219zM280 950q14 -89 107 -89q96 0 111 89h39q-6 -78 -45.5 -118.5t-106.5 -40.5t-104.5 41.5t-39.5 117.5h39z" />
    <glyph glyph-name="abreve" unicode="&#x103;" 
d="M284 405q0 68 -72 68q-25 0 -44 -9.5t-19 -22.5q0 -7 4.5 -15.5t9.5 -18t9.5 -20.5t4.5 -23q0 -25 -17 -40.5t-45 -15.5q-29 0 -47.5 18t-18.5 47t15.5 54t43.5 43t65.5 28.5t81.5 10.5q32 0 62 -6t53 -21t36.5 -39.5t13.5 -61.5v-292q0 -30 28 -30q11 0 18 5.5t10 5.5
q6 0 6 -7q0 -5 -6 -16t-19 -22.5t-33 -20.5t-48 -9q-33 0 -56.5 16.5t-32.5 46.5q-37 -33 -71 -48t-72 -15q-54 0 -84 27.5t-30 76.5q0 34 16 61t40.5 47.5t54.5 35.5t58.5 25.5t51 16.5t33.5 9v111zM284 265q-60 -21 -87.5 -51.5t-27.5 -75.5q0 -32 14 -51t38 -19
q31 0 63 29v168zM141 733q14 -89 107 -89q96 0 111 89h39q-6 -78 -45.5 -118.5t-106.5 -40.5t-104.5 41.5t-39.5 117.5h39z" />
    <glyph glyph-name="Aogonek" unicode="&#x104;" horiz-adv-x="778" 
d="M663 -162q-35 -26 -71.5 -43.5t-81.5 -17.5q-42 0 -72.5 25t-30.5 67q0 26 11 46.5t30 36.5t44 28t52 20h-109v19q38 2 55.5 13t17.5 34q0 10 -2.5 19t-6.5 18l-52 132h-249l-43 -113q-9 -24 -12 -36t-3 -22q0 -23 21 -34t66 -11v-19h-206v19q19 1 31.5 5.5t22.5 15
t19 29t21 47.5l251 634h25l264 -625q7 -16 11.5 -26.5t8.5 -18.5t7.5 -14t8.5 -13q22 -34 59 -34v-19h-120q-20 -8 -44.5 -19t-45.5 -25.5t-35 -33t-14 -41.5q0 -21 16 -32.5t36 -11.5q30 0 53 14t48 28zM431 273l-110 269l-109 -269h219z" />
    <glyph glyph-name="aogonek" unicode="&#x105;" 
d="M377 -162q-35 -26 -71.5 -43.5t-81.5 -17.5q-42 0 -72.5 25t-30.5 67q0 32 17 56.5t45 42t62.5 29t69.5 17.5q-20 16 -28 44q-37 -33 -71 -48t-72 -15q-54 0 -84 27.5t-30 76.5q0 34 16 61t40.5 47.5t54.5 35.5t58.5 25.5t51 16.5t33.5 9v111q0 68 -72 68q-25 0 -44 -9.5
t-19 -22.5q0 -7 4.5 -15.5t9.5 -18t9.5 -20.5t4.5 -23q0 -25 -17 -40.5t-45 -15.5q-29 0 -47.5 18t-18.5 47t15.5 54t43.5 43t65.5 28.5t81.5 10.5q32 0 62 -6t53 -21t36.5 -39.5t13.5 -61.5v-292q0 -30 28 -30q11 0 18 5.5t10 5.5q6 0 6 -7q0 -5 -6 -16t-19 -22.5
t-33 -20.5t-48 -9q-15 0 -33 5q-20 -8 -44 -19t-45 -25.5t-35 -33t-14 -41.5q0 -21 16 -32.5t36 -11.5q30 0 53 14t48 28zM284 265q-60 -21 -87.5 -51.5t-27.5 -75.5q0 -32 14 -51t38 -19q31 0 63 29v168z" />
    <glyph glyph-name="Cacute" unicode="&#x106;" horiz-adv-x="722" 
d="M667 126q-68 -74 -136 -107.5t-152 -33.5q-78 0 -141.5 27t-109.5 76t-71 118t-25 153q0 85 27.5 156.5t76 123.5t115.5 81.5t146 29.5q46 0 78 -7.5t55.5 -17t40 -17t31.5 -7.5q14 0 24 11t20 38h16l7 -237h-16q-45 107 -101 153t-122 46q-52 0 -93.5 -25t-70 -71.5
t-44 -113.5t-15.5 -152q0 -152 55 -233.5t155 -81.5q60 0 120 30.5t108 84.5zM454 937q25 27 50 27q19 0 32.5 -12.5t13.5 -29.5q0 -23 -22 -36l-164 -100h-51z" />
    <glyph glyph-name="cacute" unicode="&#x107;" horiz-adv-x="444" 
d="M415 123q-32 -61 -83.5 -94.5t-111.5 -33.5q-93 0 -145 63t-52 177q0 60 16 110.5t45 86.5t69 56.5t88 20.5q33 0 62.5 -11t52 -29t36 -42t13.5 -51q0 -23 -16.5 -39.5t-40.5 -16.5q-57 0 -66 82q-5 42 -17 58t-39 16q-39 0 -61 -42.5t-22 -120.5q0 -56 10.5 -101
t29.5 -77.5t46 -50t60 -17.5q61 0 115 63zM276 720q25 27 50 27q19 0 32.5 -12.5t13.5 -29.5q0 -23 -22 -36l-164 -100h-51z" />
    <glyph glyph-name="Ccircumflex" unicode="&#x108;" horiz-adv-x="722" 
d="M667 126q-68 -74 -136 -107.5t-152 -33.5q-78 0 -141.5 27t-109.5 76t-71 118t-25 153q0 85 27.5 156.5t76 123.5t115.5 81.5t146 29.5q46 0 78 -7.5t55.5 -17t40 -17t31.5 -7.5q14 0 24 11t20 38h16l7 -237h-16q-45 107 -101 153t-122 46q-52 0 -93.5 -25t-70 -71.5
t-44 -113.5t-15.5 -152q0 -152 55 -233.5t155 -81.5q60 0 120 30.5t108 84.5zM362 959h78l124 -171h-50l-113 99l-114 -99h-49z" />
    <glyph glyph-name="ccircumflex" unicode="&#x109;" horiz-adv-x="444" 
d="M415 123q-32 -61 -83.5 -94.5t-111.5 -33.5q-93 0 -145 63t-52 177q0 60 16 110.5t45 86.5t69 56.5t88 20.5q33 0 62.5 -11t52 -29t36 -42t13.5 -51q0 -23 -16.5 -39.5t-40.5 -16.5q-57 0 -66 82q-5 42 -17 58t-39 16q-39 0 -61 -42.5t-22 -120.5q0 -56 10.5 -101
t29.5 -77.5t46 -50t60 -17.5q61 0 115 63zM184 742h78l124 -171h-50l-113 99l-114 -99h-49z" />
    <glyph glyph-name="Cdotaccent" unicode="&#x10a;" horiz-adv-x="722" 
d="M667 126q-68 -74 -136 -107.5t-152 -33.5q-78 0 -141.5 27t-109.5 76t-71 118t-25 153q0 85 27.5 156.5t76 123.5t115.5 81.5t146 29.5q46 0 78 -7.5t55.5 -17t40 -17t31.5 -7.5q14 0 24 11t20 38h16l7 -237h-16q-45 107 -101 153t-122 46q-52 0 -93.5 -25t-70 -71.5
t-44 -113.5t-15.5 -152q0 -152 55 -233.5t155 -81.5q60 0 120 30.5t108 84.5zM338 862q0 25 19.5 44t44.5 19t43.5 -19t18.5 -44t-18.5 -44t-43.5 -19t-44.5 19t-19.5 44z" />
    <glyph glyph-name="cdotaccent" unicode="&#x10b;" horiz-adv-x="444" 
d="M415 123q-32 -61 -83.5 -94.5t-111.5 -33.5q-93 0 -145 63t-52 177q0 60 16 110.5t45 86.5t69 56.5t88 20.5q33 0 62.5 -11t52 -29t36 -42t13.5 -51q0 -23 -16.5 -39.5t-40.5 -16.5q-57 0 -66 82q-5 42 -17 58t-39 16q-39 0 -61 -42.5t-22 -120.5q0 -56 10.5 -101
t29.5 -77.5t46 -50t60 -17.5q61 0 115 63zM160 645q0 25 19.5 44t44.5 19t43.5 -19t18.5 -44t-18.5 -44t-43.5 -19t-44.5 19t-19.5 44z" />
    <glyph glyph-name="Ccaron" unicode="&#x10c;" horiz-adv-x="722" 
d="M667 126q-68 -74 -136 -107.5t-152 -33.5q-78 0 -141.5 27t-109.5 76t-71 118t-25 153q0 85 27.5 156.5t76 123.5t115.5 81.5t146 29.5q46 0 78 -7.5t55.5 -17t40 -17t31.5 -7.5q14 0 24 11t20 38h16l7 -237h-16q-45 107 -101 153t-122 46q-52 0 -93.5 -25t-70 -71.5
t-44 -113.5t-15.5 -152q0 -152 55 -233.5t155 -81.5q60 0 120 30.5t108 84.5zM238 959h49l114 -101l113 101h50l-124 -171h-78z" />
    <glyph glyph-name="ccaron" unicode="&#x10d;" horiz-adv-x="444" 
d="M415 123q-32 -61 -83.5 -94.5t-111.5 -33.5q-93 0 -145 63t-52 177q0 60 16 110.5t45 86.5t69 56.5t88 20.5q33 0 62.5 -11t52 -29t36 -42t13.5 -51q0 -23 -16.5 -39.5t-40.5 -16.5q-57 0 -66 82q-5 42 -17 58t-39 16q-39 0 -61 -42.5t-22 -120.5q0 -56 10.5 -101
t29.5 -77.5t46 -50t60 -17.5q61 0 115 63zM60 742h49l114 -101l113 101h50l-124 -171h-78z" />
    <glyph glyph-name="Dcaron" unicode="&#x10e;" horiz-adv-x="778" 
d="M7 19h12q27 1 44.5 6.5t27.5 18.5t14 34.5t4 55.5v470q0 32 -4.5 53t-16 33.5t-30.5 18.5t-49 7v19h325q111 0 189.5 -28.5t129 -78t73.5 -117.5t23 -146q0 -157 -95 -255q-30 -30 -64 -50.5t-77 -34t-97 -19.5t-123 -6h-286v19zM264 103q0 -22 2.5 -35.5t8.5 -21
t17 -10.5t28 -3q121 0 188 88.5t67 248.5q0 165 -71 250t-213 85q-17 0 -22 -6t-5 -16v-580zM226 959h49l114 -101l113 101h50l-124 -171h-78z" />
    <glyph glyph-name="dcaron" unicode="&#x10f;" horiz-adv-x="556" 
d="M338 396q-15 26 -37 42.5t-42 16.5q-47 0 -67.5 -51.5t-20.5 -167.5q0 -178 82 -178q44 0 85 59v279zM338 64q-24 -31 -60 -50t-71 -19q-40 0 -72.5 18t-55.5 52t-35.5 82t-12.5 107q0 57 13.5 104t37.5 80.5t58 52t75 18.5q34 0 62.5 -14t60.5 -45v213q0 30 -13.5 41.5
t-51.5 11.5v19h202v-643q0 -26 10.5 -36.5t49.5 -10.5v-19q-49 0 -100.5 -9.5t-96.5 -25.5v73zM496 571q25 16 33.5 31t8.5 29q0 12 -6.5 17.5t-14.5 11t-14.5 14t-6.5 26.5q0 21 12.5 35.5t32.5 14.5q25 0 41.5 -21t16.5 -53q0 -42 -25 -76t-70 -51z" />
    <glyph glyph-name="Dcroat" unicode="&#x110;" horiz-adv-x="778" 
d="M264 103q0 -22 2.5 -35.5t8.5 -21t17 -10.5t28 -3q121 0 188 88.5t67 248.5q0 165 -71 250t-213 85q-17 0 -22 -6t-5 -16v-249h172v-74h-172v-257zM7 19h12q27 1 44.5 6.5t27.5 18.5t14 34.5t4 55.5v226h-99v74h99v170q0 32 -4.5 53t-16 33.5t-30.5 18.5t-49 7v19h325
q111 0 189.5 -28.5t129 -78t73.5 -117.5t23 -146q0 -157 -95 -255q-30 -30 -64 -50.5t-77 -34t-97 -19.5t-123 -6h-286v19z" />
    <glyph glyph-name="dcroat" unicode="&#x111;" horiz-adv-x="556" 
d="M338 64q-24 -31 -60 -50t-71 -19q-40 0 -72.5 18t-55.5 52t-35.5 82t-12.5 107q0 57 13.5 104t37.5 80.5t58 52t75 18.5q34 0 62.5 -14t60.5 -45v139h-154v46h154v28q0 30 -13.5 41.5t-51.5 11.5v19h202v-100h60v-46h-60v-497q0 -26 10.5 -36.5t49.5 -10.5v-19
q-49 0 -100.5 -9.5t-96.5 -25.5v73zM338 396q-15 26 -37 42.5t-42 16.5q-47 0 -67.5 -51.5t-20.5 -167.5q0 -178 82 -178q44 0 85 59v279z" />
    <glyph glyph-name="Emacron" unicode="&#x112;" horiz-adv-x="667" 
d="M12 19q34 0 54.5 4.5t30.5 17t13 34t3 56.5v487q0 28 -2 42t-7 26q-14 28 -90 30v19h581v-200h-19q-11 88 -56 128.5t-132 40.5h-57q-36 0 -49.5 -12.5t-13.5 -46.5v-254h35q60 0 86.5 36t34.5 124h18v-355h-18q-1 5 -1.5 8.5t-0.5 5.5q-3 28 -7 49t-10 36t-14.5 25.5
t-19.5 18.5q-28 22 -82 22h-21v-253q0 -24 2.5 -39t9.5 -23t19.5 -11t32.5 -3h60q88 0 143 43.5t90 140.5h20l-39 -216h-594v19zM199 878h287v-63h-287v63z" />
    <glyph glyph-name="emacron" unicode="&#x113;" horiz-adv-x="444" 
d="M417 139q-7 -16 -13 -27.5t-12.5 -21t-15.5 -19t-22 -21.5q-31 -29 -61 -42t-68 -13q-45 0 -82.5 17.5t-63.5 49.5t-40.5 78t-14.5 102q0 57 15.5 106t43 85t65.5 56t82 20q85 0 133 -63.5t51 -178.5h-261q2 -97 35.5 -147.5t96.5 -50.5q35 0 62 17t55 59zM295 300v18
q-2 88 -17.5 123.5t-50.5 35.5q-38 0 -55.5 -41.5t-18.5 -135.5h142zM85 661h287v-63h-287v63z" />
    <glyph glyph-name="Ebreve" unicode="&#x114;" horiz-adv-x="667" 
d="M12 19q34 0 54.5 4.5t30.5 17t13 34t3 56.5v487q0 28 -2 42t-7 26q-14 28 -90 30v19h581v-200h-19q-11 88 -56 128.5t-132 40.5h-57q-36 0 -49.5 -12.5t-13.5 -46.5v-254h35q60 0 86.5 36t34.5 124h18v-355h-18q-1 5 -1.5 8.5t-0.5 5.5q-3 28 -7 49t-10 36t-14.5 25.5
t-19.5 18.5q-28 22 -82 22h-21v-253q0 -24 2.5 -39t9.5 -23t19.5 -11t32.5 -3h60q88 0 143 43.5t90 140.5h20l-39 -216h-594v19zM234 950q14 -89 107 -89q96 0 111 89h39q-6 -78 -45.5 -118.5t-106.5 -40.5t-104.5 41.5t-39.5 117.5h39z" />
    <glyph glyph-name="ebreve" unicode="&#x115;" horiz-adv-x="444" 
d="M417 139q-7 -16 -13 -27.5t-12.5 -21t-15.5 -19t-22 -21.5q-31 -29 -61 -42t-68 -13q-45 0 -82.5 17.5t-63.5 49.5t-40.5 78t-14.5 102q0 57 15.5 106t43 85t65.5 56t82 20q85 0 133 -63.5t51 -178.5h-261q2 -97 35.5 -147.5t96.5 -50.5q35 0 62 17t55 59zM295 300v18
q-2 88 -17.5 123.5t-50.5 35.5q-38 0 -55.5 -41.5t-18.5 -135.5h142zM120 733q14 -89 107 -89q96 0 111 89h39q-6 -78 -45.5 -118.5t-106.5 -40.5t-104.5 41.5t-39.5 117.5h39z" />
    <glyph glyph-name="Edotaccent" unicode="&#x116;" horiz-adv-x="667" 
d="M12 19q34 0 54.5 4.5t30.5 17t13 34t3 56.5v487q0 28 -2 42t-7 26q-14 28 -90 30v19h581v-200h-19q-11 88 -56 128.5t-132 40.5h-57q-36 0 -49.5 -12.5t-13.5 -46.5v-254h35q60 0 86.5 36t34.5 124h18v-355h-18q-1 5 -1.5 8.5t-0.5 5.5q-3 28 -7 49t-10 36t-14.5 25.5
t-19.5 18.5q-28 22 -82 22h-21v-253q0 -24 2.5 -39t9.5 -23t19.5 -11t32.5 -3h60q88 0 143 43.5t90 140.5h20l-39 -216h-594v19zM280 862q0 25 19.5 44t44.5 19t43.5 -19t18.5 -44t-18.5 -44t-43.5 -19t-44.5 19t-19.5 44z" />
    <glyph glyph-name="edotaccent" unicode="&#x117;" horiz-adv-x="444" 
d="M417 139q-7 -16 -13 -27.5t-12.5 -21t-15.5 -19t-22 -21.5q-31 -29 -61 -42t-68 -13q-45 0 -82.5 17.5t-63.5 49.5t-40.5 78t-14.5 102q0 57 15.5 106t43 85t65.5 56t82 20q85 0 133 -63.5t51 -178.5h-261q2 -97 35.5 -147.5t96.5 -50.5q35 0 62 17t55 59zM295 300v18
q-2 88 -17.5 123.5t-50.5 35.5q-38 0 -55.5 -41.5t-18.5 -135.5h142zM166 645q0 25 19.5 44t44.5 19t43.5 -19t18.5 -44t-18.5 -44t-43.5 -19t-44.5 19t-19.5 44z" />
    <glyph glyph-name="Eogonek" unicode="&#x118;" horiz-adv-x="667" 
d="M606 -162q-35 -26 -71.5 -43.5t-81.5 -17.5q-42 0 -72.5 25t-30.5 67q0 26 11 46.5t30 36.5t44 28t52 20h-475v19q34 0 54.5 4.5t30.5 17t13 34t3 56.5v487q0 28 -2 42t-7 26q-14 28 -90 30v19h581v-200h-19q-11 88 -56 128.5t-132 40.5h-57q-36 0 -49.5 -12.5
t-13.5 -46.5v-254h35q60 0 86.5 36t34.5 124h18v-355h-18l-2 14q-3 28 -7 49t-10 36t-14.5 25.5t-19.5 18.5q-28 22 -82 22h-21v-253q0 -24 2.5 -39t9.5 -23t19.5 -11t32.5 -3h60q88 0 143 43.5t90 140.5h20l-39 -216h-33q-20 -8 -44.5 -19t-45.5 -25.5t-35 -33t-14 -41.5
q0 -21 16 -32.5t36 -11.5q30 0 53 14t48 28z" />
    <glyph glyph-name="eogonek" unicode="&#x119;" horiz-adv-x="444" 
d="M350 -162q-35 -26 -71.5 -43.5t-81.5 -17.5q-42 0 -72.5 25t-30.5 67q0 44 32.5 74.5t78.5 52.5q-41 3 -74.5 22t-57 51t-36.5 76t-13 97q0 57 15.5 106t43 85t65.5 56t82 20q85 0 133 -63.5t51 -178.5h-261q2 -97 35.5 -147.5t96.5 -50.5q35 0 62 17t55 59l15 -6
q-7 -16 -13 -27.5t-12.5 -21t-15.5 -19t-22 -21.5q-29 -26 -52 -39q-20 -10 -42 -24t-40 -30.5t-30 -35.5t-12 -40t16 -32.5t36 -11.5q30 0 53 14t48 28zM295 300v18q-2 88 -17.5 123.5t-50.5 35.5q-38 0 -55.5 -41.5t-18.5 -135.5h142z" />
    <glyph glyph-name="Ecaron" unicode="&#x11a;" horiz-adv-x="667" 
d="M12 19q34 0 54.5 4.5t30.5 17t13 34t3 56.5v487q0 28 -2 42t-7 26q-14 28 -90 30v19h581v-200h-19q-11 88 -56 128.5t-132 40.5h-57q-36 0 -49.5 -12.5t-13.5 -46.5v-254h35q60 0 86.5 36t34.5 124h18v-355h-18q-1 5 -1.5 8.5t-0.5 5.5q-3 28 -7 49t-10 36t-14.5 25.5
t-19.5 18.5q-28 22 -82 22h-21v-253q0 -24 2.5 -39t9.5 -23t19.5 -11t32.5 -3h60q88 0 143 43.5t90 140.5h20l-39 -216h-594v19zM180 959h49l114 -101l113 101h50l-124 -171h-78z" />
    <glyph glyph-name="ecaron" unicode="&#x11b;" horiz-adv-x="444" 
d="M417 139q-7 -16 -13 -27.5t-12.5 -21t-15.5 -19t-22 -21.5q-31 -29 -61 -42t-68 -13q-45 0 -82.5 17.5t-63.5 49.5t-40.5 78t-14.5 102q0 57 15.5 106t43 85t65.5 56t82 20q85 0 133 -63.5t51 -178.5h-261q2 -97 35.5 -147.5t96.5 -50.5q35 0 62 17t55 59zM295 300v18
q-2 88 -17.5 123.5t-50.5 35.5q-38 0 -55.5 -41.5t-18.5 -135.5h142zM66 742h49l114 -101l113 101h50l-124 -171h-78z" />
    <glyph glyph-name="Gcircumflex" unicode="&#x11c;" horiz-adv-x="778" 
d="M516 241q0 38 -17 53t-66 15v19h322v-19q-26 -1 -42.5 -5t-25.5 -14.5t-12.5 -28.5t-3.5 -47v-167q-66 -29 -136.5 -45.5t-136.5 -16.5q-86 0 -155.5 27t-119 76t-76.5 117.5t-27 152.5q0 85 28.5 157t80 124.5t122.5 81.5t155 29q49 0 82.5 -7.5t56.5 -17t38.5 -17
t29.5 -7.5q33 0 41 51h18l7 -244h-16q-44 114 -102 162t-133 48q-45 0 -86.5 -19t-74 -62t-51.5 -111.5t-19 -167.5q0 -73 12.5 -135t40 -107.5t71 -71.5t105.5 -26q28 0 52 6t30 15q5 5 6.5 17.5t1.5 38.5v146zM370 959h78l124 -171h-50l-113 99l-114 -99h-49z" />
    <glyph glyph-name="gcircumflex" unicode="&#x11d;" 
d="M392 439q20 -28 32 -51.5t12 -58.5q0 -72 -54.5 -114.5t-147.5 -42.5q-14 0 -30 1.5t-30 3.5q-44 -32 -44 -61q0 -12 5.5 -20t22 -13t48 -7.5t83.5 -4.5q42 -2 76.5 -9.5t58.5 -24t37.5 -42.5t13.5 -65q0 -81 -63 -123t-189 -42q-94 0 -146.5 30.5t-52.5 84.5
q0 27 20.5 48t71.5 41q-37 17 -57 41t-20 52q0 64 100 128q-102 52 -102 148q0 39 14.5 70.5t41 54t63.5 34.5t83 12q58 0 106 -21h134v-49h-87zM303 339q0 140 -64 140q-70 0 -70 -151q0 -126 70 -126q33 0 48.5 32.5t15.5 104.5zM394 -115q0 27 -14.5 42t-43.5 22t-71.5 8
t-97.5 1q-28 -12 -44 -34t-16 -47q0 -82 141 -82q67 0 106.5 24t39.5 66zM211 742h78l124 -171h-50l-113 99l-114 -99h-49z" />
    <glyph glyph-name="Gbreve" unicode="&#x11e;" horiz-adv-x="778" 
d="M516 241q0 38 -17 53t-66 15v19h322v-19q-26 -1 -42.5 -5t-25.5 -14.5t-12.5 -28.5t-3.5 -47v-167q-66 -29 -136.5 -45.5t-136.5 -16.5q-86 0 -155.5 27t-119 76t-76.5 117.5t-27 152.5q0 85 28.5 157t80 124.5t122.5 81.5t155 29q49 0 82.5 -7.5t56.5 -17t38.5 -17
t29.5 -7.5q33 0 41 51h18l7 -244h-16q-44 114 -102 162t-133 48q-45 0 -86.5 -19t-74 -62t-51.5 -111.5t-19 -167.5q0 -73 12.5 -135t40 -107.5t71 -71.5t105.5 -26q28 0 52 6t30 15q5 5 6.5 17.5t1.5 38.5v146zM300 950q14 -89 107 -89q96 0 111 89h39q-6 -78 -45.5 -118.5
t-106.5 -40.5t-104.5 41.5t-39.5 117.5h39z" />
    <glyph glyph-name="gbreve" unicode="&#x11f;" 
d="M392 439q20 -28 32 -51.5t12 -58.5q0 -72 -54.5 -114.5t-147.5 -42.5q-14 0 -30 1.5t-30 3.5q-44 -32 -44 -61q0 -12 5.5 -20t22 -13t48 -7.5t83.5 -4.5q42 -2 76.5 -9.5t58.5 -24t37.5 -42.5t13.5 -65q0 -81 -63 -123t-189 -42q-94 0 -146.5 30.5t-52.5 84.5
q0 27 20.5 48t71.5 41q-37 17 -57 41t-20 52q0 64 100 128q-102 52 -102 148q0 39 14.5 70.5t41 54t63.5 34.5t83 12q58 0 106 -21h134v-49h-87zM303 339q0 140 -64 140q-70 0 -70 -151q0 -126 70 -126q33 0 48.5 32.5t15.5 104.5zM394 -115q0 27 -14.5 42t-43.5 22t-71.5 8
t-97.5 1q-28 -12 -44 -34t-16 -47q0 -82 141 -82q67 0 106.5 24t39.5 66zM141 733q14 -89 107 -89q96 0 111 89h39q-6 -78 -45.5 -118.5t-106.5 -40.5t-104.5 41.5t-39.5 117.5h39z" />
    <glyph glyph-name="Gdotaccent" unicode="&#x120;" horiz-adv-x="778" 
d="M516 241q0 38 -17 53t-66 15v19h322v-19q-26 -1 -42.5 -5t-25.5 -14.5t-12.5 -28.5t-3.5 -47v-167q-66 -29 -136.5 -45.5t-136.5 -16.5q-86 0 -155.5 27t-119 76t-76.5 117.5t-27 152.5q0 85 28.5 157t80 124.5t122.5 81.5t155 29q49 0 82.5 -7.5t56.5 -17t38.5 -17
t29.5 -7.5q33 0 41 51h18l7 -244h-16q-44 114 -102 162t-133 48q-45 0 -86.5 -19t-74 -62t-51.5 -111.5t-19 -167.5q0 -73 12.5 -135t40 -107.5t71 -71.5t105.5 -26q28 0 52 6t30 15q5 5 6.5 17.5t1.5 38.5v146zM346 862q0 25 19.5 44t44.5 19t43.5 -19t18.5 -44t-18.5 -44
t-43.5 -19t-44.5 19t-19.5 44z" />
    <glyph glyph-name="gdotaccent" unicode="&#x121;" 
d="M392 439q20 -28 32 -51.5t12 -58.5q0 -72 -54.5 -114.5t-147.5 -42.5q-14 0 -30 1.5t-30 3.5q-44 -32 -44 -61q0 -12 5.5 -20t22 -13t48 -7.5t83.5 -4.5q42 -2 76.5 -9.5t58.5 -24t37.5 -42.5t13.5 -65q0 -81 -63 -123t-189 -42q-94 0 -146.5 30.5t-52.5 84.5
q0 27 20.5 48t71.5 41q-37 17 -57 41t-20 52q0 64 100 128q-102 52 -102 148q0 39 14.5 70.5t41 54t63.5 34.5t83 12q58 0 106 -21h134v-49h-87zM303 339q0 140 -64 140q-70 0 -70 -151q0 -126 70 -126q33 0 48.5 32.5t15.5 104.5zM394 -115q0 27 -14.5 42t-43.5 22t-71.5 8
t-97.5 1q-28 -12 -44 -34t-16 -47q0 -82 141 -82q67 0 106.5 24t39.5 66zM187 645q0 25 19.5 44t44.5 19t43.5 -19t18.5 -44t-18.5 -44t-43.5 -19t-44.5 19t-19.5 44z" />
    <glyph glyph-name="Gcommaaccent" unicode="&#x122;" horiz-adv-x="778" 
d="M516 241q0 38 -17 53t-66 15v19h322v-19q-26 -1 -42.5 -5t-25.5 -14.5t-12.5 -28.5t-3.5 -47v-167q-66 -29 -136.5 -45.5t-136.5 -16.5q-86 0 -155.5 27t-119 76t-76.5 117.5t-27 152.5q0 85 28.5 157t80 124.5t122.5 81.5t155 29q49 0 82.5 -7.5t56.5 -17t38.5 -17
t29.5 -7.5q33 0 41 51h18l7 -244h-16q-44 114 -102 162t-133 48q-45 0 -86.5 -19t-74 -62t-51.5 -111.5t-19 -167.5q0 -73 12.5 -135t40 -107.5t71 -71.5t105.5 -26q28 0 52 6t30 15q5 5 6.5 17.5t1.5 38.5v146zM332 -219q28 16 37.5 31t9.5 29q0 12 -7.5 17.5t-16 11
t-16 14t-7.5 26.5q0 21 14 35.5t36 14.5q28 0 46 -21t18 -53q0 -42 -28.5 -76t-76.5 -51z" />
    <glyph glyph-name="gcommaaccent" unicode="&#x123;" 
d="M392 439q20 -28 32 -51.5t12 -58.5q0 -72 -54.5 -114.5t-147.5 -42.5q-14 0 -30 1.5t-30 3.5q-44 -32 -44 -61q0 -12 5.5 -20t22 -13t48 -7.5t83.5 -4.5q42 -2 76.5 -9.5t58.5 -24t37.5 -42.5t13.5 -65q0 -81 -63 -123t-189 -42q-94 0 -146.5 30.5t-52.5 84.5
q0 27 20.5 48t71.5 41q-37 17 -57 41t-20 52q0 64 100 128q-102 52 -102 148q0 39 14.5 70.5t41 54t63.5 34.5t83 12q58 0 106 -21h134v-49h-87zM303 339q0 140 -64 140q-70 0 -70 -151q0 -126 70 -126q33 0 48.5 32.5t15.5 104.5zM394 -115q0 27 -14.5 42t-43.5 22t-71.5 8
t-97.5 1q-28 -12 -44 -34t-16 -47q0 -82 141 -82q67 0 106.5 24t39.5 66zM288 748q-28 -16 -37.5 -31t-9.5 -29q0 -12 7.5 -17.5t16 -11t16 -14t7.5 -26.5q0 -21 -14 -35.5t-36 -14.5q-28 0 -46 21t-18 53q0 42 28.5 76t76.5 51z" />
    <glyph glyph-name="Hcircumflex" unicode="&#x124;" horiz-adv-x="833" 
d="M12 19h11q27 2 44 6.5t26.5 15t12.5 28.5t3 47v520q0 23 -4 37.5t-14 23.5t-26.5 13t-41.5 6h-11v19h347v-19h-11q-20 -1 -35.5 -4t-26.5 -12t-16.5 -27.5t-5.5 -51.5v-217h295v232q0 22 -3.5 36.5t-13 23.5t-25.5 13.5t-41 6.5h-11v19h347v-19h-14q-20 -1 -35.5 -4
t-26.5 -12t-16.5 -27.5t-5.5 -51.5v-508q0 -30 4.5 -48t15.5 -28.5t30 -14t48 -3.5v-19h-347v19h12q42 0 62 20t20 75v246h-295v-247q0 -30 4 -48t14 -28.5t27 -14t43 -3.5v-19h-340v19zM377 959h78l124 -171h-50l-113 99l-114 -99h-49z" />
    <glyph glyph-name="hcircumflex" unicode="&#x125;" horiz-adv-x="556" 
d="M23 19q24 2 34 12t10 33v608q0 24 -10 34t-34 10v19h181v-304q66 78 146 78q35 0 62 -13.5t42 -37.5q12 -20 16.5 -40.5t4.5 -61.5v-294q0 -22 10 -31.5t33 -11.5v-19h-224v19q44 2 44 47v318q0 34 -9 48t-32 14q-21 0 -42 -13.5t-51 -54.5v-314q0 -23 10 -33t34 -12v-19
h-225v19zM239 959h78l124 -171h-50l-113 99l-114 -99h-49z" />
    <glyph glyph-name="Hbar" unicode="&#x126;" horiz-adv-x="833" 
d="M12 19h11q27 2 44 6.5t26.5 15t12.5 28.5t3 47v421h-49v46h49v53q0 44 -18.5 60t-67.5 20h-11v19h347v-19h-11q-20 -1 -35.5 -4t-26.5 -12t-16.5 -27.5t-5.5 -51.5v-38h295v53q0 22 -3.5 36.5t-13 23.5t-25.5 13.5t-41 6.5h-11v19h347v-19h-14q-20 -1 -35.5 -4t-26.5 -12
t-16.5 -27.5t-5.5 -51.5v-38h49v-46h-49v-424q0 -30 4.5 -48t15.5 -28.5t30 -14t48 -3.5v-19h-347v19h12q42 0 62 20t20 75v246h-295v-247q0 -30 4 -48t14 -28.5t27 -14t43 -3.5v-19h-340v19zM559 404v133h-295v-133h295z" />
    <glyph glyph-name="hbar" unicode="&#x127;" horiz-adv-x="556" 
d="M23 19q24 2 34 12t10 33v525h-60v46h60v37q0 24 -10 34t-34 10v19h181v-100h154v-46h-154v-158q66 78 146 78q35 0 62 -13.5t42 -37.5q12 -20 16.5 -40.5t4.5 -61.5v-294q0 -22 10 -31.5t33 -11.5v-19h-224v19q44 2 44 47v318q0 34 -9 48t-32 14q-21 0 -42 -13.5
t-51 -54.5v-314q0 -23 10 -33t34 -12v-19h-225v19z" />
    <glyph glyph-name="Itilde" unicode="&#x128;" horiz-adv-x="389" 
d="M14 19h11q27 2 44 6.5t26.5 15t12.5 28.5t3 47v520q0 44 -18.5 60t-67.5 20h-11v19h347v-19h-11q-20 -1 -35.5 -4t-26.5 -12t-16.5 -27.5t-5.5 -51.5v-511q0 -28 3.5 -45t13 -27t27 -14t44.5 -5v-19h-340v19zM22 802q11 52 40 82.5t68 30.5q25 0 45 -6.5t37.5 -15t34 -15
t34.5 -6.5q38 0 52 44h36q-7 -32 -18.5 -53.5t-26 -35t-31 -19t-33.5 -5.5q-22 0 -43 6.5t-40.5 15t-37 15t-31.5 6.5q-35 0 -50 -44h-36z" />
    <glyph glyph-name="itilde" unicode="&#x129;" horiz-adv-x="278" 
d="M18 19q51 0 51 46v371q0 26 -10.5 37.5t-35.5 11.5v18h183v-437q0 -47 51 -47v-19h-239v19zM-33 585q11 52 40 82.5t68 30.5q25 0 45 -6.5t37.5 -15t34 -15t34.5 -6.5q38 0 52 44h36q-7 -32 -18.5 -53.5t-26 -35t-31 -19t-33.5 -5.5q-22 0 -43 6.5t-40.5 15t-37 15
t-31.5 6.5q-35 0 -50 -44h-36z" />
    <glyph glyph-name="Imacron" unicode="&#x12a;" horiz-adv-x="389" 
d="M14 19h11q27 2 44 6.5t26.5 15t12.5 28.5t3 47v520q0 44 -18.5 60t-67.5 20h-11v19h347v-19h-11q-20 -1 -35.5 -4t-26.5 -12t-16.5 -27.5t-5.5 -51.5v-511q0 -28 3.5 -45t13 -27t27 -14t44.5 -5v-19h-340v19zM51 878h287v-63h-287v63z" />
    <glyph glyph-name="imacron" unicode="&#x12b;" horiz-adv-x="278" 
d="M18 19q51 0 51 46v371q0 26 -10.5 37.5t-35.5 11.5v18h183v-437q0 -47 51 -47v-19h-239v19zM-4 661h287v-63h-287v63z" />
    <glyph glyph-name="Iogonek" unicode="&#x12e;" horiz-adv-x="389" 
d="M322 -162q-35 -26 -71.5 -43.5t-81.5 -17.5q-42 0 -72.5 25t-30.5 67q0 26 11 46.5t30 36.5t44 28t52 20h-189v19h11q27 2 44 6.5t26.5 15t12.5 28.5t3 47v520q0 44 -18.5 60t-67.5 20h-11v19h347v-19h-11q-20 -1 -35.5 -4t-26.5 -12t-16.5 -27.5t-5.5 -51.5v-511
q0 -28 3.5 -45t13 -27t27 -14t44.5 -5v-19h-65q-20 -8 -44.5 -19t-45.5 -25.5t-35 -33t-14 -41.5q0 -21 16 -32.5t36 -11.5q30 0 53 14t48 28z" />
    <glyph glyph-name="iogonek" unicode="&#x12f;" horiz-adv-x="278" 
d="M267 -162q-35 -26 -71.5 -43.5t-81.5 -17.5q-42 0 -72.5 25t-30.5 67q0 26 11.5 46.5t31 37t44.5 28t53 19.5h-133v19q51 0 51 46v371q0 26 -9.5 36.5t-36.5 12.5v18h183v-437q0 -47 51 -47v-19h-23q-20 -8 -44.5 -19t-45.5 -25.5t-35 -33t-14 -41.5q0 -21 16 -32.5
t36 -11.5q30 0 53 14t48 28zM213 655q0 -32 -22 -54t-54 -22t-54.5 22t-22.5 54t22.5 53.5t54.5 21.5t54 -21.5t22 -53.5z" />
    <glyph glyph-name="Idotaccent" unicode="&#x130;" horiz-adv-x="389" 
d="M14 19h11q27 2 44 6.5t26.5 15t12.5 28.5t3 47v520q0 44 -18.5 60t-67.5 20h-11v19h347v-19h-11q-20 -1 -35.5 -4t-26.5 -12t-16.5 -27.5t-5.5 -51.5v-511q0 -28 3.5 -45t13 -27t27 -14t44.5 -5v-19h-340v19zM132 862q0 25 19.5 44t44.5 19t43.5 -19t18.5 -44t-18.5 -44
t-43.5 -19t-44.5 19t-19.5 44z" />
    <glyph glyph-name="dotlessi" unicode="&#x131;" horiz-adv-x="278" 
d="M18 19q51 0 51 46v371q0 26 -10.5 37.5t-35.5 11.5v18h183v-437q0 -47 51 -47v-19h-239v19z" />
    <glyph glyph-name="Jcircumflex" unicode="&#x134;" 
d="M228 602q0 37 -4 58.5t-14.5 33.5t-30 16t-49.5 6v19h349v-19h-11q-26 -1 -42 -5t-26 -13t-13.5 -24t-3.5 -38v-519q0 -62 -18 -102.5t-48 -65t-67.5 -34.5t-76.5 -10q-36 0 -66.5 9t-52 25t-34 39t-12.5 50q0 36 20 57.5t54 21.5q30 0 47 -18t17 -50q0 -17 -4 -28.5
t-8.5 -20t-8.5 -14t-4 -11.5q0 -11 13 -19t31 -8q33 0 48 23t15 77v564zM211 959h78l124 -171h-50l-113 99l-114 -99h-49z" />
    <glyph glyph-name="jcircumflex" unicode="&#x135;" horiz-adv-x="333" 
d="M119 427q0 32 -14 45t-56 13v18h206v-522q0 -47 -13 -86.5t-37 -68t-59 -44.5t-79 -16q-52 0 -87.5 25t-35.5 65q0 26 19 43.5t47 17.5q26 0 43 -14.5t17 -35.5q0 -9 -2.5 -15t-6 -11t-6 -10t-2.5 -12q0 -19 23 -19q20 0 31.5 17t11.5 46v564zM128 742h78l124 -171h-50
l-113 99l-114 -99h-49z" />
    <glyph glyph-name="Kcommaaccent" unicode="&#x136;" horiz-adv-x="778" 
d="M9 19q34 0 53.5 5.5t30 18.5t13.5 34t3 52v491q0 28 -3.5 45.5t-13.5 28t-26.5 15.5t-43.5 7h-10v19h347v-19h-10q-26 -2 -42.5 -6.5t-26 -14t-13 -24.5t-3.5 -39v-227l202 216q26 27 35 41.5t9 25.5q0 15 -13 21t-46 7v19h271v-19q-32 -1 -58 -6t-49.5 -16.5
t-46.5 -29.5t-49 -45l-137 -141l309 -405q12 -17 20.5 -27t15.5 -15.5t14 -8t16 -3.5v-19h-308v19q38 1 53 6t15 19q0 10 -6 20t-14 21l-217 283l-16 -14v-245q0 -26 3.5 -43.5t13.5 -28t26.5 -14.5t42.5 -4h11v-19h-352v19zM342 -219q28 16 37.5 31t9.5 29q0 12 -7.5 17.5
t-16 11t-16 14t-7.5 26.5q0 21 14 35.5t36 14.5q28 0 46 -21t18 -53q0 -42 -28.5 -76t-76.5 -51z" />
    <glyph glyph-name="kcommaaccent" unicode="&#x137;" horiz-adv-x="556" 
d="M29 19q25 1 35 11t10 34v608q0 24 -10 34t-35 10v19h182v-482l114 147q8 11 13.5 23.5t5.5 23.5q0 20 -13.5 28.5t-43.5 9.5v18h213v-17q-55 -7 -94 -52l-89 -105l171 -279q7 -10 17 -18.5t21 -12.5v-19h-232v19q36 3 36 27q0 8 -5 16l-98 171l-16 -19v-150q0 -23 10 -33
t34 -12v-19h-226v19zM227 -219q28 16 37.5 31t9.5 29q0 12 -7.5 17.5t-16 11t-16 14t-7.5 26.5q0 21 14 35.5t36 14.5q28 0 46 -21t18 -53q0 -42 -28.5 -76t-76.5 -51z" />
    <glyph glyph-name="Lacute" unicode="&#x139;" horiz-adv-x="667" 
d="M21 19q30 1 49 5t30 16t15 33.5t4 58.5v494q0 27 -3.5 44t-13.5 27.5t-26.5 14.5t-42.5 4h-10v19h350v-19h-7q-27 0 -45 -4t-28.5 -14.5t-14.5 -27.5t-4 -44v-514q0 -47 13 -63.5t51 -16.5h29q52 0 92 13.5t70.5 42t52 74t36.5 109.5h16l-28 -271h-585v19zM386 937
q25 27 50 27q19 0 32.5 -12.5t13.5 -29.5q0 -23 -22 -36l-164 -100h-51z" />
    <glyph glyph-name="lacute" unicode="&#x13a;" horiz-adv-x="278" 
d="M12 19q32 0 43.5 9.5t11.5 35.5v608q0 26 -11 35t-44 9v19h192v-671q0 -26 11 -35.5t42 -9.5v-19h-245v19zM193 937q25 27 50 27q19 0 32.5 -12.5t13.5 -29.5q0 -23 -22 -36l-164 -100h-51z" />
    <glyph glyph-name="Lcommaaccent" unicode="&#x13b;" horiz-adv-x="667" 
d="M21 19q30 1 49 5t30 16t15 33.5t4 58.5v494q0 27 -3.5 44t-13.5 27.5t-26.5 14.5t-42.5 4h-10v19h350v-19h-7q-27 0 -45 -4t-28.5 -14.5t-14.5 -27.5t-4 -44v-514q0 -47 13 -63.5t51 -16.5h29q52 0 92 13.5t70.5 42t52 74t36.5 109.5h16l-28 -271h-585v19zM296 -219
q28 16 37.5 31t9.5 29q0 12 -7.5 17.5t-16 11t-16 14t-7.5 26.5q0 21 14 35.5t36 14.5q28 0 46 -21t18 -53q0 -42 -28.5 -76t-76.5 -51z" />
    <glyph glyph-name="lcommaaccent" unicode="&#x13c;" horiz-adv-x="278" 
d="M12 19q32 0 43.5 9.5t11.5 35.5v608q0 26 -11 35t-44 9v19h192v-671q0 -26 11 -35.5t42 -9.5v-19h-245v19zM83 -219q28 16 37.5 31t9.5 29q0 12 -7.5 17.5t-16 11t-16 14t-7.5 26.5q0 21 14 35.5t36 14.5q28 0 46 -21t18 -53q0 -42 -28.5 -76t-76.5 -51z" />
    <glyph glyph-name="Lcaron" unicode="&#x13d;" horiz-adv-x="667" 
d="M21 19q30 1 49 5t30 16t15 33.5t4 58.5v494q0 27 -3.5 44t-13.5 27.5t-26.5 14.5t-42.5 4h-10v19h350v-19h-7q-27 0 -45 -4t-28.5 -14.5t-14.5 -27.5t-4 -44v-514q0 -47 13 -63.5t51 -16.5h29q52 0 92 13.5t70.5 42t52 74t36.5 109.5h16l-28 -271h-585v19zM394 571
q25 16 33.5 31t8.5 29q0 12 -6.5 17.5t-14.5 11t-14.5 14t-6.5 26.5q0 21 12.5 35.5t32.5 14.5q25 0 41.5 -21t16.5 -53q0 -42 -25 -76t-70 -51z" />
    <glyph glyph-name="lcaron" unicode="&#x13e;" horiz-adv-x="278" 
d="M12 19q32 0 43.5 9.5t11.5 35.5v608q0 26 -11 35t-44 9v19h192v-671q0 -26 11 -35.5t42 -9.5v-19h-245v19zM225 571q25 16 33.5 31t8.5 29q0 12 -6.5 17.5t-14.5 11t-14.5 14t-6.5 26.5q0 21 12.5 35.5t32.5 14.5q25 0 41.5 -21t16.5 -53q0 -42 -25 -76t-70 -51z" />
    <glyph glyph-name="Ldot" unicode="&#x13f;" horiz-adv-x="667" 
d="M21 19q30 1 49 5t30 16t15 33.5t4 58.5v494q0 27 -3.5 44t-13.5 27.5t-26.5 14.5t-42.5 4h-10v19h350v-19h-7q-27 0 -45 -4t-28.5 -14.5t-14.5 -27.5t-4 -44v-514q0 -47 13 -63.5t51 -16.5h29q52 0 92 13.5t70.5 42t52 74t36.5 109.5h16l-28 -271h-585v19zM296 320
q0 25 19.5 44t44.5 19t43.5 -19t18.5 -44t-18.5 -44t-43.5 -19t-44.5 19t-19.5 44z" />
    <glyph glyph-name="ldot" unicode="&#x140;" horiz-adv-x="325" 
d="M12 19q32 0 43.5 9.5t11.5 35.5v608q0 26 -11 35t-44 9v19h192v-671q0 -26 11 -35.5t42 -9.5v-19h-245v19zM224 320q0 25 19.5 44t44.5 19t43.5 -19t18.5 -44t-18.5 -44t-43.5 -19t-44.5 19t-19.5 44z" />
    <glyph glyph-name="Lslash" unicode="&#x141;" horiz-adv-x="667" 
d="M21 19q30 1 49 5t30 16t15 33.5t4 58.5v156l-66 -34l-41 -21v79l107 54v260q0 27 -3.5 44t-13.5 27.5t-26.5 14.5t-42.5 4h-10v19h350v-19h-7q-27 0 -45 -4t-28.5 -14.5t-14.5 -27.5t-4 -44v-181l190 97v-77l-190 -98v-255q0 -47 13 -63.5t51 -16.5h29q52 0 92 13.5
t70.5 42t52 74t36.5 109.5h16l-28 -271h-585v19z" />
    <glyph glyph-name="lslash" unicode="&#x142;" horiz-adv-x="278" 
d="M12 19q32 0 43.5 9.5t11.5 35.5v248l-67 -42v78l67 44v280q0 26 -11 35t-44 9v19h192v-252l64 43v-86l-64 -41v-335q0 -26 11 -35.5t42 -9.5v-19h-245v19z" />
    <glyph glyph-name="Nacute" unicode="&#x143;" horiz-adv-x="778" 
d="M155 596v-481q0 -30 4 -49t15 -29.5t30.5 -14t50.5 -3.5v-19h-236v19h11q28 1 45 5t26 14t12 27.5t3 46.5v537q-20 24 -33 37t-24 19t-22.5 8t-27.5 3v19h229l387 -465v356q0 50 -20 69t-77 21v19h234v-19h-12q-26 -1 -42.5 -5t-26.5 -14t-13.5 -27t-3.5 -44v-633h-17z
M442 937q25 27 50 27q19 0 32.5 -12.5t13.5 -29.5q0 -23 -22 -36l-164 -100h-51z" />
    <glyph glyph-name="nacute" unicode="&#x144;" horiz-adv-x="556" 
d="M32 19q23 4 32.5 13.5t9.5 32.5v374q0 23 -9.5 33.5t-32.5 12.5v18h176v-76q38 42 72.5 62t76.5 20q60 0 91 -39t31 -114v-291q0 -23 10 -33t34 -13v-19h-224v19q24 3 34 13t10 33v332q0 46 -45 46q-23 0 -43 -15.5t-44 -43.5v-319q0 -23 9.5 -33.5t35.5 -12.5v-19h-224
v19zM331 720q25 27 50 27q19 0 32.5 -12.5t13.5 -29.5q0 -23 -22 -36l-164 -100h-51z" />
    <glyph glyph-name="Ncommaaccent" unicode="&#x145;" horiz-adv-x="778" 
d="M155 596v-481q0 -30 4 -49t15 -29.5t30.5 -14t50.5 -3.5v-19h-236v19h11q28 1 45 5t26 14t12 27.5t3 46.5v537q-20 24 -33 37t-24 19t-22.5 8t-27.5 3v19h229l387 -465v356q0 50 -20 69t-77 21v19h234v-19h-12q-26 -1 -42.5 -5t-26.5 -14t-13.5 -27t-3.5 -44v-633h-17z
M332 -219q28 16 37.5 31t9.5 29q0 12 -7.5 17.5t-16 11t-16 14t-7.5 26.5q0 21 14 35.5t36 14.5q28 0 46 -21t18 -53q0 -42 -28.5 -76t-76.5 -51z" />
    <glyph glyph-name="ncommaaccent" unicode="&#x146;" horiz-adv-x="556" 
d="M32 19q23 4 32.5 13.5t9.5 32.5v374q0 23 -9.5 33.5t-32.5 12.5v18h176v-76q38 42 72.5 62t76.5 20q60 0 91 -39t31 -114v-291q0 -23 10 -33t34 -13v-19h-224v19q24 3 34 13t10 33v332q0 46 -45 46q-23 0 -43 -15.5t-44 -43.5v-319q0 -23 9.5 -33.5t35.5 -12.5v-19h-224
v19zM221 -219q28 16 37.5 31t9.5 29q0 12 -7.5 17.5t-16 11t-16 14t-7.5 26.5q0 21 14 35.5t36 14.5q28 0 46 -21t18 -53q0 -42 -28.5 -76t-76.5 -51z" />
    <glyph glyph-name="Ncaron" unicode="&#x147;" horiz-adv-x="778" 
d="M155 596v-481q0 -30 4 -49t15 -29.5t30.5 -14t50.5 -3.5v-19h-236v19h11q28 1 45 5t26 14t12 27.5t3 46.5v537q-20 24 -33 37t-24 19t-22.5 8t-27.5 3v19h229l387 -465v356q0 50 -20 69t-77 21v19h234v-19h-12q-26 -1 -42.5 -5t-26.5 -14t-13.5 -27t-3.5 -44v-633h-17z
M226 959h49l114 -101l113 101h50l-124 -171h-78z" />
    <glyph glyph-name="ncaron" unicode="&#x148;" horiz-adv-x="556" 
d="M32 19q23 4 32.5 13.5t9.5 32.5v374q0 23 -9.5 33.5t-32.5 12.5v18h176v-76q38 42 72.5 62t76.5 20q60 0 91 -39t31 -114v-291q0 -23 10 -33t34 -13v-19h-224v19q24 3 34 13t10 33v332q0 46 -45 46q-23 0 -43 -15.5t-44 -43.5v-319q0 -23 9.5 -33.5t35.5 -12.5v-19h-224
v19zM115 742h49l114 -101l113 101h50l-124 -171h-78z" />
    <glyph glyph-name="Omacron" unicode="&#x14c;" horiz-adv-x="778" 
d="M744 368q0 -87 -27 -157.5t-75 -121t-114 -77.5t-144 -27t-144.5 27t-114.5 77.5t-75 121t-27 157.5t27 157.5t75 120.5t114.5 77t144.5 27t144 -27t114 -77t75 -120.5t27 -157.5zM571 368q0 165 -48 257t-139 92q-92 0 -139.5 -92t-47.5 -257t47.5 -257.5t139.5 -92.5
q91 0 139 92.5t48 257.5zM245 878h287v-63h-287v63z" />
    <glyph glyph-name="omacron" unicode="&#x14d;" 
d="M475 252q0 -59 -16.5 -106.5t-47 -81t-72.5 -51.5t-93 -18q-50 0 -92 18t-72.5 51.5t-47.5 81t-17 106.5t17 106.5t47.5 81t72.5 51.5t92 18q53 0 95.5 -18t72 -51.5t45.5 -81t16 -106.5zM333 252q0 61 -5 103t-15.5 68.5t-27 38.5t-39.5 12t-39.5 -12t-27 -38.5
t-15.5 -68.5t-5 -103t5 -103t15.5 -68.5t27 -38.5t39.5 -12t39.5 12t27 38.5t15.5 68.5t5 103zM106 661h287v-63h-287v63z" />
    <glyph glyph-name="Obreve" unicode="&#x14e;" horiz-adv-x="778" 
d="M744 368q0 -87 -27 -157.5t-75 -121t-114 -77.5t-144 -27t-144.5 27t-114.5 77.5t-75 121t-27 157.5t27 157.5t75 120.5t114.5 77t144.5 27t144 -27t114 -77t75 -120.5t27 -157.5zM571 368q0 165 -48 257t-139 92q-92 0 -139.5 -92t-47.5 -257t47.5 -257.5t139.5 -92.5
q91 0 139 92.5t48 257.5zM280 950q14 -89 107 -89q96 0 111 89h39q-6 -78 -45.5 -118.5t-106.5 -40.5t-104.5 41.5t-39.5 117.5h39z" />
    <glyph glyph-name="obreve" unicode="&#x14f;" 
d="M475 252q0 -59 -16.5 -106.5t-47 -81t-72.5 -51.5t-93 -18q-50 0 -92 18t-72.5 51.5t-47.5 81t-17 106.5t17 106.5t47.5 81t72.5 51.5t92 18q53 0 95.5 -18t72 -51.5t45.5 -81t16 -106.5zM333 252q0 61 -5 103t-15.5 68.5t-27 38.5t-39.5 12t-39.5 -12t-27 -38.5
t-15.5 -68.5t-5 -103t5 -103t15.5 -68.5t27 -38.5t39.5 -12t39.5 12t27 38.5t15.5 68.5t5 103zM141 733q14 -89 107 -89q96 0 111 89h39q-6 -78 -45.5 -118.5t-106.5 -40.5t-104.5 41.5t-39.5 117.5h39z" />
    <glyph glyph-name="Ohungarumlaut" unicode="&#x150;" horiz-adv-x="778" 
d="M744 368q0 -87 -27 -157.5t-75 -121t-114 -77.5t-144 -27t-144.5 27t-114.5 77.5t-75 121t-27 157.5t27 157.5t75 120.5t114.5 77t144.5 27t144 -27t114 -77t75 -120.5t27 -157.5zM571 368q0 165 -48 257t-139 92q-92 0 -139.5 -92t-47.5 -257t47.5 -257.5t139.5 -92.5
q91 0 139 92.5t48 257.5zM357 938q10 11 20 18.5t29 7.5q15 0 30 -8.5t15 -34.5q0 -22 -20 -34l-166 -101h-50zM529 938q10 11 20 18.5t29 7.5q15 0 30 -8.5t15 -34.5q0 -22 -20 -34l-166 -101h-50z" />
    <glyph glyph-name="ohungarumlaut" unicode="&#x151;" 
d="M475 252q0 -59 -16.5 -106.5t-47 -81t-72.5 -51.5t-93 -18q-50 0 -92 18t-72.5 51.5t-47.5 81t-17 106.5t17 106.5t47.5 81t72.5 51.5t92 18q53 0 95.5 -18t72 -51.5t45.5 -81t16 -106.5zM333 252q0 61 -5 103t-15.5 68.5t-27 38.5t-39.5 12t-39.5 -12t-27 -38.5
t-15.5 -68.5t-5 -103t5 -103t15.5 -68.5t27 -38.5t39.5 -12t39.5 12t27 38.5t15.5 68.5t5 103zM218 721q10 11 20 18.5t29 7.5q15 0 30 -8.5t15 -34.5q0 -22 -20 -34l-166 -101h-50zM390 721q10 11 20 18.5t29 7.5q15 0 30 -8.5t15 -34.5q0 -22 -20 -34l-166 -101h-50z" />
    <glyph glyph-name="OE" unicode="&#x152;" horiz-adv-x="1000" 
d="M595 0q-40 0 -66 -1.5t-49.5 -3t-50 -2.5t-66.5 -1q-57 0 -116.5 21.5t-109 66.5t-81 115.5t-31.5 169.5q0 82 24.5 152.5t71 122t115 81t155.5 29.5q26 0 51 -2.5t53 -5t59.5 -5t70.5 -2.5h297v-198h-18q-13 88 -57.5 127.5t-126.5 39.5q-37 0 -51 -8.5t-14 -30.5v-274
q6 0 10.5 -0.5t7.5 -0.5q54 0 80 35.5t34 119.5h19v-338h-19q-6 45 -14.5 74.5t-21.5 47.5t-32 25.5t-45 7.5h-7.5t-11.5 -1v-267q0 -32 19.5 -47t61.5 -15q40 0 72 10t58 32.5t48 58t42 86.5h19l-31 -219h-349zM500 564q0 73 -34 113t-97 40q-90 0 -130 -79.5t-40 -256.5
q0 -96 9.5 -163t29.5 -110t52.5 -62.5t77.5 -19.5q64 0 98 39t34 112v387z" />
    <glyph glyph-name="oe" unicode="&#x153;" horiz-adv-x="722" 
d="M687 134q-31 -66 -81.5 -102.5t-107.5 -36.5q-59 0 -123 45q-29 -23 -61 -34t-65 -11q-47 0 -87 20t-70 54.5t-47 82t-17 101.5t18 100.5t49 81t73 54.5t90 20q35 0 64.5 -9.5t64.5 -32.5q34 24 58.5 33t56.5 9q36 0 68.5 -13.5t57 -42.5t39.5 -75t16 -111h-250
q5 -96 39 -146t92 -50q63 0 108 70zM565 300v31q0 80 -14 113t-48 33q-38 0 -53.5 -41.5t-17.5 -135.5h133zM325 281q0 104 -17.5 148.5t-58.5 44.5q-22 0 -37 -11.5t-24.5 -37.5t-13.5 -69.5t-4 -106.5q0 -54 3 -95t11 -68.5t23.5 -41.5t40.5 -14q21 0 36 9.5t24 37
t13 76.5t4 128z" />
    <glyph glyph-name="Racute" unicode="&#x154;" horiz-adv-x="722" 
d="M12 19h10q27 2 43.5 6.5t26.5 14t13.5 25t3.5 40.5v533q0 23 -4.5 38t-15.5 24t-30 12.5t-47 3.5v19h336q63 0 113 -14t85.5 -40t54.5 -65t19 -88q0 -67 -35 -109.5t-113 -68.5l153 -268q20 -35 35.5 -48t40.5 -15v-19h-196l-176 310q-14 21 -22 27.5t-27 6.5h-16v-241
q0 -23 3.5 -38.5t12.5 -25.5t25.5 -14.5t42.5 -5.5h11v-19h-347v19zM264 375q9 -2 14.5 -2h17.5q90 0 130 38.5t40 125.5q0 79 -37 122.5t-104 43.5h-15q-26 0 -36 -11t-10 -39v-278zM414 937q25 27 50 27q19 0 32.5 -12.5t13.5 -29.5q0 -23 -22 -36l-164 -100h-51z" />
    <glyph glyph-name="racute" unicode="&#x155;" horiz-adv-x="444" 
d="M28 19q53 2 53 49v366q0 29 -10.5 39t-42.5 12v18h187v-76q59 86 130 86q38 0 60 -20t22 -55q0 -30 -17.5 -49t-46.5 -19q-23 0 -35 8.5t-20 19t-15 19.5t-19 9q-23 0 -39.5 -27.5t-16.5 -65.5v-262q0 -30 12.5 -41t49.5 -11v-19h-252v19zM276 720q25 27 50 27
q19 0 32.5 -12.5t13.5 -29.5q0 -23 -22 -36l-164 -100h-51z" />
    <glyph glyph-name="Rcommaaccent" unicode="&#x156;" horiz-adv-x="722" 
d="M12 19h10q27 2 43.5 6.5t26.5 14t13.5 25t3.5 40.5v533q0 23 -4.5 38t-15.5 24t-30 12.5t-47 3.5v19h336q63 0 113 -14t85.5 -40t54.5 -65t19 -88q0 -67 -35 -109.5t-113 -68.5l153 -268q20 -35 35.5 -48t40.5 -15v-19h-196l-176 310q-14 21 -22 27.5t-27 6.5h-16v-241
q0 -23 3.5 -38.5t12.5 -25.5t25.5 -14.5t42.5 -5.5h11v-19h-347v19zM264 375q9 -2 14.5 -2h17.5q90 0 130 38.5t40 125.5q0 79 -37 122.5t-104 43.5h-15q-26 0 -36 -11t-10 -39v-278zM334 -219q28 16 37.5 31t9.5 29q0 12 -7.5 17.5t-16 11t-16 14t-7.5 26.5q0 21 14 35.5
t36 14.5q28 0 46 -21t18 -53q0 -42 -28.5 -76t-76.5 -51z" />
    <glyph glyph-name="rcommaaccent" unicode="&#x157;" horiz-adv-x="444" 
d="M28 19q53 2 53 49v366q0 29 -10.5 39t-42.5 12v18h187v-76q59 86 130 86q38 0 60 -20t22 -55q0 -30 -17.5 -49t-46.5 -19q-23 0 -35 8.5t-20 19t-15 19.5t-19 9q-23 0 -39.5 -27.5t-16.5 -65.5v-262q0 -30 12.5 -41t49.5 -11v-19h-252v19zM166 -219q28 16 37.5 31t9.5 29
q0 12 -7.5 17.5t-16 11t-16 14t-7.5 26.5q0 21 14 35.5t36 14.5q28 0 46 -21t18 -53q0 -42 -28.5 -76t-76.5 -51z" />
    <glyph glyph-name="Rcaron" unicode="&#x158;" horiz-adv-x="722" 
d="M12 19h10q27 2 43.5 6.5t26.5 14t13.5 25t3.5 40.5v533q0 23 -4.5 38t-15.5 24t-30 12.5t-47 3.5v19h336q63 0 113 -14t85.5 -40t54.5 -65t19 -88q0 -67 -35 -109.5t-113 -68.5l153 -268q20 -35 35.5 -48t40.5 -15v-19h-196l-176 310q-14 21 -22 27.5t-27 6.5h-16v-241
q0 -23 3.5 -38.5t12.5 -25.5t25.5 -14.5t42.5 -5.5h11v-19h-347v19zM264 375q9 -2 14.5 -2h17.5q90 0 130 38.5t40 125.5q0 79 -37 122.5t-104 43.5h-15q-26 0 -36 -11t-10 -39v-278zM198 959h49l114 -101l113 101h50l-124 -171h-78z" />
    <glyph glyph-name="rcaron" unicode="&#x159;" horiz-adv-x="444" 
d="M28 19q53 2 53 49v366q0 29 -10.5 39t-42.5 12v18h187v-76q59 86 130 86q38 0 60 -20t22 -55q0 -30 -17.5 -49t-46.5 -19q-23 0 -35 8.5t-20 19t-15 19.5t-19 9q-23 0 -39.5 -27.5t-16.5 -65.5v-262q0 -30 12.5 -41t49.5 -11v-19h-252v19zM60 742h49l114 -101l113 101h50
l-124 -171h-78z" />
    <glyph glyph-name="Sacute" unicode="&#x15a;" horiz-adv-x="556" 
d="M37 234h19q6 -46 26 -84.5t50 -66.5t67.5 -44t79.5 -16q60 0 96 32t36 84q0 32 -18.5 57t-47 46t-64 40.5t-69.5 40.5q-42 26 -73 47.5t-51.5 45.5t-31 53t-10.5 69q0 46 16.5 85t45.5 67t69 44t87 16q31 0 57 -6t47 -13.5t37.5 -13.5t28.5 -6q30 0 36 39h16v-226h-18
q-21 91 -71 139t-122 48q-57 0 -92 -31.5t-35 -80.5q0 -29 12 -46.5t36.5 -33.5t61 -34.5t85.5 -48.5q47 -29 81 -52.5t56.5 -49t33 -56.5t10.5 -74q0 -50 -16.5 -90.5t-46.5 -69t-73.5 -44t-97.5 -15.5q-42 0 -71.5 7t-51 15t-38 15t-32.5 7q-18 0 -28.5 -12t-12.5 -32h-19
v249zM331 937q25 27 50 27q19 0 32.5 -12.5t13.5 -29.5q0 -23 -22 -36l-164 -100h-51z" />
    <glyph glyph-name="sacute" unicode="&#x15b;" horiz-adv-x="389" 
d="M21 158h19q20 -60 61 -94t92 -34q32 0 53 18t21 44q0 11 -4 20.5t-17 21.5t-38 28.5t-68 42.5q-33 19 -55.5 36.5t-36.5 36.5t-20.5 39.5t-6.5 46.5q0 31 11.5 58t31.5 46t48.5 30t61.5 11q25 0 42.5 -4t30.5 -8.5t23 -8.5t21 -4q17 0 36 25h18v-158h-18q-21 60 -59 91.5
t-92 31.5q-29 0 -47.5 -14.5t-18.5 -34.5q0 -12 2 -20.5t12 -18.5t30 -23.5t55 -35.5q32 -21 61 -40t51 -40t35 -45.5t13 -55.5q0 -33 -12 -61t-33.5 -48t-52 -31t-66.5 -11q-24 0 -44 4t-37 9.5t-30 9.5t-23 4q-24 0 -31 -27h-19v163zM248 720q25 27 50 27q19 0 32.5 -12.5
t13.5 -29.5q0 -23 -22 -36l-164 -100h-51z" />
    <glyph glyph-name="Scircumflex" unicode="&#x15c;" horiz-adv-x="556" 
d="M37 234h19q6 -46 26 -84.5t50 -66.5t67.5 -44t79.5 -16q60 0 96 32t36 84q0 32 -18.5 57t-47 46t-64 40.5t-69.5 40.5q-42 26 -73 47.5t-51.5 45.5t-31 53t-10.5 69q0 46 16.5 85t45.5 67t69 44t87 16q31 0 57 -6t47 -13.5t37.5 -13.5t28.5 -6q30 0 36 39h16v-226h-18
q-21 91 -71 139t-122 48q-57 0 -92 -31.5t-35 -80.5q0 -29 12 -46.5t36.5 -33.5t61 -34.5t85.5 -48.5q47 -29 81 -52.5t56.5 -49t33 -56.5t10.5 -74q0 -50 -16.5 -90.5t-46.5 -69t-73.5 -44t-97.5 -15.5q-42 0 -71.5 7t-51 15t-38 15t-32.5 7q-18 0 -28.5 -12t-12.5 -32h-19
v249zM239 959h78l124 -171h-50l-113 99l-114 -99h-49z" />
    <glyph glyph-name="scircumflex" unicode="&#x15d;" horiz-adv-x="389" 
d="M21 158h19q20 -60 61 -94t92 -34q32 0 53 18t21 44q0 11 -4 20.5t-17 21.5t-38 28.5t-68 42.5q-33 19 -55.5 36.5t-36.5 36.5t-20.5 39.5t-6.5 46.5q0 31 11.5 58t31.5 46t48.5 30t61.5 11q25 0 42.5 -4t30.5 -8.5t23 -8.5t21 -4q17 0 36 25h18v-158h-18q-21 60 -59 91.5
t-92 31.5q-29 0 -47.5 -14.5t-18.5 -34.5q0 -12 2 -20.5t12 -18.5t30 -23.5t55 -35.5q32 -21 61 -40t51 -40t35 -45.5t13 -55.5q0 -33 -12 -61t-33.5 -48t-52 -31t-66.5 -11q-24 0 -44 4t-37 9.5t-30 9.5t-23 4q-24 0 -31 -27h-19v163zM156 742h78l124 -171h-50l-113 99
l-114 -99h-49z" />
    <glyph glyph-name="Scedilla" unicode="&#x15e;" horiz-adv-x="556" 
d="M185 -166q17 -7 31 -9.5t31 -2.5q56 0 56 39q0 38 -50 38q-8 0 -12.5 -0.5t-12.5 -3.5l-11 8l36 84q-32 3 -55 10t-40.5 14t-31.5 12.5t-29 5.5q-18 0 -28.5 -12t-12.5 -32h-19v249h19q6 -46 26 -84.5t50 -66.5t67.5 -44t79.5 -16q60 0 96 32t36 84q0 32 -18.5 57t-47 46
t-64 40.5t-69.5 40.5q-42 26 -73 47.5t-51.5 45.5t-31 53t-10.5 69q0 46 16.5 85t45.5 67t69 44t87 16q31 0 57 -6t47 -13.5t37.5 -13.5t28.5 -6q30 0 36 39h16v-226h-18q-21 91 -71 139t-122 48q-57 0 -92 -31.5t-35 -80.5q0 -29 12 -46.5t36.5 -33.5t61 -34.5t85.5 -48.5
q47 -29 81 -52.5t56.5 -49t33 -56.5t10.5 -74q0 -50 -16 -90t-46 -68.5t-72.5 -44t-95.5 -16.5l-24 -50q8 2 13 3t17 1q43 0 66 -18t23 -52q0 -86 -131 -86q-24 0 -42 3t-47 13z" />
    <glyph glyph-name="scedilla" unicode="&#x15f;" horiz-adv-x="389" 
d="M101 -166q17 -7 31 -9.5t31 -2.5q56 0 56 39q0 38 -50 38q-8 0 -12.5 -0.5t-12.5 -3.5l-11 8l40 94q-35 5 -60.5 15t-41.5 10q-24 0 -31 -27h-19v163h19q20 -60 61 -94t92 -34q32 0 53 18t21 44q0 11 -4 20.5t-17 21.5t-38 28.5t-68 42.5q-33 19 -55.5 36.5t-36.5 36.5
t-20.5 39.5t-6.5 46.5q0 31 11.5 58t31.5 46t48.5 30t61.5 11q25 0 42.5 -4t30.5 -8.5t23 -8.5t21 -4q17 0 36 25h18v-158h-18q-21 60 -59 91.5t-92 31.5q-29 0 -47.5 -14.5t-18.5 -34.5q0 -12 2 -20.5t12 -18.5t30 -23.5t55 -35.5q32 -21 61 -40t51 -40t35 -45.5t13 -55.5
q0 -32 -11.5 -59t-31.5 -47t-49 -32t-63 -13l-28 -60q8 2 13 3t17 1q43 0 66 -18t23 -52q0 -86 -131 -86q-24 0 -42 3t-47 13z" />
    <glyph glyph-name="Scaron" unicode="&#x160;" horiz-adv-x="556" 
d="M37 234h19q6 -46 26 -84.5t50 -66.5t67.5 -44t79.5 -16q60 0 96 32t36 84q0 32 -18.5 57t-47 46t-64 40.5t-69.5 40.5q-42 26 -73 47.5t-51.5 45.5t-31 53t-10.5 69q0 46 16.5 85t45.5 67t69 44t87 16q31 0 57 -6t47 -13.5t37.5 -13.5t28.5 -6q30 0 36 39h16v-226h-18
q-21 91 -71 139t-122 48q-57 0 -92 -31.5t-35 -80.5q0 -29 12 -46.5t36.5 -33.5t61 -34.5t85.5 -48.5q47 -29 81 -52.5t56.5 -49t33 -56.5t10.5 -74q0 -50 -16.5 -90.5t-46.5 -69t-73.5 -44t-97.5 -15.5q-42 0 -71.5 7t-51 15t-38 15t-32.5 7q-18 0 -28.5 -12t-12.5 -32h-19
v249zM115 959h49l114 -101l113 101h50l-124 -171h-78z" />
    <glyph glyph-name="scaron" unicode="&#x161;" horiz-adv-x="389" 
d="M21 158h19q20 -60 61 -94t92 -34q32 0 53 18t21 44q0 11 -4 20.5t-17 21.5t-38 28.5t-68 42.5q-33 19 -55.5 36.5t-36.5 36.5t-20.5 39.5t-6.5 46.5q0 31 11.5 58t31.5 46t48.5 30t61.5 11q25 0 42.5 -4t30.5 -8.5t23 -8.5t21 -4q17 0 36 25h18v-158h-18q-21 60 -59 91.5
t-92 31.5q-29 0 -47.5 -14.5t-18.5 -34.5q0 -12 2 -20.5t12 -18.5t30 -23.5t55 -35.5q32 -21 61 -40t51 -40t35 -45.5t13 -55.5q0 -33 -12 -61t-33.5 -48t-52 -31t-66.5 -11q-24 0 -44 4t-37 9.5t-30 9.5t-23 4q-24 0 -31 -27h-19v163zM32 742h49l114 -101l113 101h50
l-124 -171h-78z" />
    <glyph glyph-name="Tcommaaccent" unicode="&#x162;" horiz-adv-x="667" 
d="M159 19h10q52 0 69.5 16t17.5 59v590q0 12 -4.5 16.5t-16.5 4.5h-36q-37 0 -63.5 -7.5t-45 -24.5t-30.5 -45t-20 -68h-16l8 175h601l9 -175h-16q-8 40 -20 68t-30.5 45t-45 24.5t-63.5 7.5h-36q-12 0 -16.5 -4.5t-4.5 -16.5v-590q0 -43 17.5 -59t69.5 -16h10v-19h-348v19
zM276 -219q28 16 37.5 31t9.5 29q0 12 -7.5 17.5t-16 11t-16 14t-7.5 26.5q0 21 14 35.5t36 14.5q28 0 46 -21t18 -53q0 -42 -28.5 -76t-76.5 -51z" />
    <glyph glyph-name="tcommaaccent" unicode="&#x163;" horiz-adv-x="333" 
d="M312 84q-44 -89 -132 -89q-31 0 -54.5 11t-34.5 31t-15 41t-4 62v317h-56v22q27 20 49.5 39t43 42.5t41 53t43.5 70.5h15v-181h102v-46h-102v-349q0 -35 7 -47.5t26 -12.5q12 0 23.5 9t31.5 36zM110 -219q28 16 37.5 31t9.5 29q0 12 -7.5 17.5t-16 11t-16 14t-7.5 26.5
q0 21 14 35.5t36 14.5q28 0 46 -21t18 -53q0 -42 -28.5 -76t-76.5 -51z" />
    <glyph glyph-name="Tcaron" unicode="&#x164;" horiz-adv-x="667" 
d="M159 19h10q52 0 69.5 16t17.5 59v590q0 12 -4.5 16.5t-16.5 4.5h-36q-37 0 -63.5 -7.5t-45 -24.5t-30.5 -45t-20 -68h-16l8 175h601l9 -175h-16q-8 40 -20 68t-30.5 45t-45 24.5t-63.5 7.5h-36q-12 0 -16.5 -4.5t-4.5 -16.5v-590q0 -43 17.5 -59t69.5 -16h10v-19h-348v19
zM170 959h49l114 -101l113 101h50l-124 -171h-78z" />
    <glyph glyph-name="tcaron" unicode="&#x165;" horiz-adv-x="333" 
d="M312 84q-44 -89 -132 -89q-31 0 -54.5 11t-34.5 31t-15 41t-4 62v317h-56v22q27 20 49.5 39t43 42.5t41 53t43.5 70.5h15v-181h102v-46h-102v-349q0 -35 7 -47.5t26 -12.5q12 0 23.5 9t31.5 36zM228 571q25 16 33.5 31t8.5 29q0 12 -6.5 17.5t-14.5 11t-14.5 14
t-6.5 26.5q0 21 12.5 35.5t32.5 14.5q25 0 41.5 -21t16.5 -53q0 -42 -25 -76t-70 -51z" />
    <glyph glyph-name="Tbar" unicode="&#x166;" horiz-adv-x="667" 
d="M159 19h10q52 0 69.5 16t17.5 59v336h-152v74h152v180q0 12 -4.5 16.5t-16.5 4.5h-36q-37 0 -63.5 -7.5t-45 -24.5t-30.5 -45t-20 -68h-16l8 175h601l9 -175h-16q-8 40 -20 68t-30.5 45t-45 24.5t-63.5 7.5h-36q-12 0 -16.5 -4.5t-4.5 -16.5v-180h152v-74h-152v-336
q0 -43 17.5 -59t69.5 -16h10v-19h-348v19z" />
    <glyph glyph-name="tbar" unicode="&#x167;" horiz-adv-x="333" 
d="M312 84q-44 -89 -132 -89q-31 0 -54.5 11t-34.5 31t-15 41t-4 62v157h-41v46h41v114h-56v22q27 20 49.5 39t43 42.5t41 53t43.5 70.5h15v-181h102v-46h-102v-114h71v-46h-71v-189q0 -35 7 -47.5t26 -12.5q12 0 23.5 9t31.5 36z" />
    <glyph glyph-name="Utilde" unicode="&#x168;" horiz-adv-x="778" 
d="M627 612q0 31 -4 51.5t-14.5 32t-29 16t-47.5 4.5v19h227v-19q-53 0 -72.5 -21t-19.5 -76v-372q0 -128 -72 -195t-210 -67q-78 0 -138 24t-96 72q-13 17 -21 33t-13 36.5t-7 46.5t-2 62v338q0 41 -5 64t-16.5 34.5t-29.5 15t-45 5.5v19h347v-19h-11q-25 -1 -41.5 -6
t-26 -16t-13.5 -29.5t-4 -45.5v-414q0 -53 13.5 -86.5t36.5 -52t53.5 -25.5t64.5 -7q94 0 145 54.5t51 154.5v369zM226 802q11 52 40 82.5t68 30.5q25 0 45 -6.5t37.5 -15t34 -15t34.5 -6.5q38 0 52 44h36q-7 -32 -18.5 -53.5t-26 -35t-31 -19t-33.5 -5.5q-22 0 -43 6.5
t-40.5 15t-37 15t-31.5 6.5q-35 0 -50 -44h-36z" />
    <glyph glyph-name="utilde" unicode="&#x169;" horiz-adv-x="556" 
d="M338 74q-22 -22 -40.5 -37t-36 -24.5t-35.5 -13.5t-39 -4q-57 0 -87.5 31t-30.5 89v334q0 36 -50 36v18h187v-388q0 -61 42 -61q17 0 42.5 21.5t47.5 50.5v323q0 36 -53 36v18h190v-434q0 -17 11.5 -24.5t38.5 -8.5v-19q-43 -1 -95 -9t-92 -17v83zM105 585q11 52 40 82.5
t68 30.5q25 0 45 -6.5t37.5 -15t34 -15t34.5 -6.5q38 0 52 44h36q-7 -32 -18.5 -53.5t-26 -35t-31 -19t-33.5 -5.5q-22 0 -43 6.5t-40.5 15t-37 15t-31.5 6.5q-35 0 -50 -44h-36z" />
    <glyph glyph-name="Umacron" unicode="&#x16a;" horiz-adv-x="778" 
d="M627 612q0 31 -4 51.5t-14.5 32t-29 16t-47.5 4.5v19h227v-19q-53 0 -72.5 -21t-19.5 -76v-372q0 -128 -72 -195t-210 -67q-78 0 -138 24t-96 72q-13 17 -21 33t-13 36.5t-7 46.5t-2 62v338q0 41 -5 64t-16.5 34.5t-29.5 15t-45 5.5v19h347v-19h-11q-25 -1 -41.5 -6
t-26 -16t-13.5 -29.5t-4 -45.5v-414q0 -53 13.5 -86.5t36.5 -52t53.5 -25.5t64.5 -7q94 0 145 54.5t51 154.5v369zM255 878h287v-63h-287v63z" />
    <glyph glyph-name="umacron" unicode="&#x16b;" horiz-adv-x="556" 
d="M338 74q-22 -22 -40.5 -37t-36 -24.5t-35.5 -13.5t-39 -4q-57 0 -87.5 31t-30.5 89v334q0 36 -50 36v18h187v-388q0 -61 42 -61q17 0 42.5 21.5t47.5 50.5v323q0 36 -53 36v18h190v-434q0 -17 11.5 -24.5t38.5 -8.5v-19q-43 -1 -95 -9t-92 -17v83zM134 661h287v-63h-287
v63z" />
    <glyph glyph-name="Ubreve" unicode="&#x16c;" horiz-adv-x="778" 
d="M627 612q0 31 -4 51.5t-14.5 32t-29 16t-47.5 4.5v19h227v-19q-53 0 -72.5 -21t-19.5 -76v-372q0 -128 -72 -195t-210 -67q-78 0 -138 24t-96 72q-13 17 -21 33t-13 36.5t-7 46.5t-2 62v338q0 41 -5 64t-16.5 34.5t-29.5 15t-45 5.5v19h347v-19h-11q-25 -1 -41.5 -6
t-26 -16t-13.5 -29.5t-4 -45.5v-414q0 -53 13.5 -86.5t36.5 -52t53.5 -25.5t64.5 -7q94 0 145 54.5t51 154.5v369zM290 950q14 -89 107 -89q96 0 111 89h39q-6 -78 -45.5 -118.5t-106.5 -40.5t-104.5 41.5t-39.5 117.5h39z" />
    <glyph glyph-name="ubreve" unicode="&#x16d;" horiz-adv-x="556" 
d="M338 74q-22 -22 -40.5 -37t-36 -24.5t-35.5 -13.5t-39 -4q-57 0 -87.5 31t-30.5 89v334q0 36 -50 36v18h187v-388q0 -61 42 -61q17 0 42.5 21.5t47.5 50.5v323q0 36 -53 36v18h190v-434q0 -17 11.5 -24.5t38.5 -8.5v-19q-43 -1 -95 -9t-92 -17v83zM169 733
q14 -89 107 -89q96 0 111 89h39q-6 -78 -45.5 -118.5t-106.5 -40.5t-104.5 41.5t-39.5 117.5h39z" />
    <glyph glyph-name="Uring" unicode="&#x16e;" horiz-adv-x="778" 
d="M627 612q0 31 -4 51.5t-14.5 32t-29 16t-47.5 4.5v19h227v-19q-53 0 -72.5 -21t-19.5 -76v-372q0 -128 -72 -195t-210 -67q-78 0 -138 24t-96 72q-13 17 -21 33t-13 36.5t-7 46.5t-2 62v338q0 41 -5 64t-16.5 34.5t-29.5 15t-45 5.5v19h347v-19h-11q-25 -1 -41.5 -6
t-26 -16t-13.5 -29.5t-4 -45.5v-414q0 -53 13.5 -86.5t36.5 -52t53.5 -25.5t64.5 -7q94 0 145 54.5t51 154.5v369zM502 882q0 -21 -8 -40t-22 -33t-33 -22t-40 -8t-40 8t-33 22t-22 33t-8 40t8 40t22 33t33 22t40 8t40 -8t33 -22t22 -33t8 -40zM461 882q0 26 -18 43.5
t-44 17.5t-43.5 -17.5t-17.5 -43.5t17.5 -44t43.5 -18t44 18t18 44z" />
    <glyph glyph-name="uring" unicode="&#x16f;" horiz-adv-x="556" 
d="M338 74q-22 -22 -40.5 -37t-36 -24.5t-35.5 -13.5t-39 -4q-57 0 -87.5 31t-30.5 89v334q0 36 -50 36v18h187v-388q0 -61 42 -61q17 0 42.5 21.5t47.5 50.5v323q0 36 -53 36v18h190v-434q0 -17 11.5 -24.5t38.5 -8.5v-19q-43 -1 -95 -9t-92 -17v83zM381 665q0 -21 -8 -40
t-22 -33t-33 -22t-40 -8t-40 8t-33 22t-22 33t-8 40t8 40t22 33t33 22t40 8t40 -8t33 -22t22 -33t8 -40zM340 665q0 26 -18 43.5t-44 17.5t-43.5 -17.5t-17.5 -43.5t17.5 -44t43.5 -18t44 18t18 44z" />
    <glyph glyph-name="Uhungarumlaut" unicode="&#x170;" horiz-adv-x="778" 
d="M627 612q0 31 -4 51.5t-14.5 32t-29 16t-47.5 4.5v19h227v-19q-53 0 -72.5 -21t-19.5 -76v-372q0 -128 -72 -195t-210 -67q-78 0 -138 24t-96 72q-13 17 -21 33t-13 36.5t-7 46.5t-2 62v338q0 41 -5 64t-16.5 34.5t-29.5 15t-45 5.5v19h347v-19h-11q-25 -1 -41.5 -6
t-26 -16t-13.5 -29.5t-4 -45.5v-414q0 -53 13.5 -86.5t36.5 -52t53.5 -25.5t64.5 -7q94 0 145 54.5t51 154.5v369zM367 938q10 11 20 18.5t29 7.5q15 0 30 -8.5t15 -34.5q0 -22 -20 -34l-166 -101h-50zM539 938q10 11 20 18.5t29 7.5q15 0 30 -8.5t15 -34.5q0 -22 -20 -34
l-166 -101h-50z" />
    <glyph glyph-name="uhungarumlaut" unicode="&#x171;" horiz-adv-x="556" 
d="M338 74q-22 -22 -40.5 -37t-36 -24.5t-35.5 -13.5t-39 -4q-57 0 -87.5 31t-30.5 89v334q0 36 -50 36v18h187v-388q0 -61 42 -61q17 0 42.5 21.5t47.5 50.5v323q0 36 -53 36v18h190v-434q0 -17 11.5 -24.5t38.5 -8.5v-19q-43 -1 -95 -9t-92 -17v83zM246 721q10 11 20 18.5
t29 7.5q15 0 30 -8.5t15 -34.5q0 -22 -20 -34l-166 -101h-50zM418 721q10 11 20 18.5t29 7.5q15 0 30 -8.5t15 -34.5q0 -22 -20 -34l-166 -101h-50z" />
    <glyph glyph-name="Uogonek" unicode="&#x172;" horiz-adv-x="778" 
d="M534 -162q-35 -26 -71.5 -43.5t-81.5 -17.5q-42 0 -72.5 25t-30.5 67t27 70t69 46q-151 5 -223 96q-13 17 -21 33t-13 36.5t-7 46.5t-2 62v338q0 41 -5 64t-16.5 34.5t-29.5 15t-45 5.5v19h347v-19h-11q-25 -1 -41.5 -6t-26 -16t-13.5 -29.5t-4 -45.5v-414
q0 -53 13.5 -86.5t36.5 -52t53.5 -25.5t64.5 -7q94 0 145 54.5t51 154.5v369q0 31 -4 51.5t-14.5 32t-29 16t-47.5 4.5v19h227v-19q-53 0 -72.5 -21t-19.5 -76v-372q0 -94 -39 -154.5t-114 -87.5q-19 -8 -45 -18.5t-50 -25.5t-40.5 -34.5t-16.5 -45.5q0 -21 16 -32.5
t36 -11.5q30 0 53 14t48 28z" />
    <glyph glyph-name="uogonek" unicode="&#x173;" horiz-adv-x="556" 
d="M431 -162q-35 -26 -71.5 -43.5t-81.5 -17.5q-42 0 -72.5 25t-30.5 67q0 29 14 51.5t36.5 39t52 28t60.5 19.5v67q-22 -22 -40.5 -37t-36 -24.5t-35.5 -13.5t-39 -4q-57 0 -87.5 31t-30.5 89v334q0 36 -50 36v18h187v-388q0 -61 42 -61q17 0 42.5 21.5t47.5 50.5v323
q0 36 -53 36v18h190v-434q0 -17 11.5 -24.5t38.5 -8.5v-19q-26 -1 -55.5 -4t-58.5 -8q-19 -8 -45 -18.5t-50 -25.5t-40.5 -34.5t-16.5 -45.5q0 -21 16 -32.5t36 -11.5q30 0 53 14t48 28z" />
    <glyph glyph-name="Wcircumflex" unicode="&#x174;" horiz-adv-x="1000" 
d="M65 668q-10 27 -20 37.5t-36 10.5v19h285v-19q-35 -2 -50 -10t-15 -26q0 -8 3.5 -20t8.5 -24l153 -406l104 284l-55 143q-12 34 -31 45.5t-58 13.5v19h327v-19q-42 0 -58.5 -10.5t-16.5 -33.5q0 -8 2.5 -18.5t6.5 -21.5l136 -388l117 380q5 18 8 28.5t3 18.5q0 39 -71 45
v19h173v-19q-26 -5 -41 -21.5t-26 -48.5l-207 -665h-20l-172 485l-174 -485h-19zM461 959h78l124 -171h-50l-113 99l-114 -99h-49z" />
    <glyph glyph-name="wcircumflex" unicode="&#x175;" horiz-adv-x="722" 
d="M53 449q-14 36 -44 36v18h234v-18q-47 -2 -47 -35q0 -3 1 -7.5t2 -8.5l80 -242l71 202l-22 61q-5 13 -13 21.5t-33 8.5v18h220v-18h-2q-35 0 -35 -29q0 -7 3 -16l66 -228l75 214q3 9 3 19q0 18 -16.5 28.5t-44.5 11.5v18h153v-19q-13 -2 -21.5 -4.5t-14.5 -8t-11 -15
t-11 -25.5l-166 -438h-18l-97 346l-127 -346h-18zM322 742h78l124 -171h-50l-113 99l-114 -99h-49z" />
    <glyph glyph-name="Ycircumflex" unicode="&#x176;" horiz-adv-x="778" 
d="M213 19q31 0 50 4t29.5 14.5t14 30t3.5 50.5v173l-205 354q-12 21 -20.5 34.5t-17.5 21.5t-19 11.5t-25 3.5v19h320v-19q-43 -2 -60 -9t-17 -23q0 -9 5 -19.5t13 -25.5l162 -287l146 256q8 14 13.5 30t5.5 28q0 24 -20 36t-66 14v19h223v-19q-16 0 -21.5 -1t-13.5 -4
q-12 -4 -27.5 -21.5t-28.5 -40.5l-192 -334v-209q0 -25 4 -41.5t14.5 -26t28 -14t44.5 -5.5h11v-19h-354v19zM360 959h78l124 -171h-50l-113 99l-114 -99h-49z" />
    <glyph glyph-name="ycircumflex" unicode="&#x177;" 
d="M237 -10l-174 464q-5 13 -17 21t-27 10v18h243v-18q-52 -4 -52 -43q0 -8 1.5 -16t6.5 -20l84 -222l78 223q6 18 6 34q0 41 -53 44v18h146v-18q-39 -12 -49 -42l-201 -566q-38 -111 -128 -111q-40 0 -65.5 21t-25.5 55q0 26 16.5 43t42.5 17q22 0 37.5 -10.5t19.5 -46.5
q3 -26 22 -26q15 0 30 22.5t28 58.5zM217 742h78l124 -171h-50l-113 99l-114 -99h-49z" />
    <glyph glyph-name="Ydieresis" unicode="&#x178;" horiz-adv-x="778" 
d="M213 19q31 0 50 4t29.5 14.5t14 30t3.5 50.5v173l-205 354q-12 21 -20.5 34.5t-17.5 21.5t-19 11.5t-25 3.5v19h320v-19q-43 -2 -60 -9t-17 -23q0 -9 5 -19.5t13 -25.5l162 -287l146 256q8 14 13.5 30t5.5 28q0 24 -20 36t-66 14v19h223v-19q-16 0 -21.5 -1t-13.5 -4
q-12 -4 -27.5 -21.5t-28.5 -40.5l-192 -334v-209q0 -25 4 -41.5t14.5 -26t28 -14t44.5 -5.5h11v-19h-354v19zM547 860q0 -24 -17 -41t-42 -17t-42 17t-17 41q0 25 17.5 42t41.5 17q25 0 42 -17t17 -42zM369 860q0 -24 -17.5 -41t-41.5 -17q-25 0 -42 17t-17 41q0 25 17 42
t42 17q24 0 41.5 -17t17.5 -42z" />
    <glyph glyph-name="Zacute" unicode="&#x179;" horiz-adv-x="667" 
d="M404 706h-93q-53 0 -90.5 -7.5t-64 -26.5t-44 -50.5t-31.5 -79.5h-19l31 193h504l-381 -699h114q66 0 110.5 7.5t75.5 28t52.5 56.5t40.5 93l9 28h19l-31 -249h-589zM386 937q25 27 50 27q19 0 32.5 -12.5t13.5 -29.5q0 -23 -22 -36l-164 -100h-51z" />
    <glyph glyph-name="zacute" unicode="&#x17a;" horiz-adv-x="444" 
d="M9 15l248 450q-18 2 -36 3.5t-35 1.5q-58 0 -87 -22.5t-41 -79.5h-16l4 135h376v-15l-251 -450q17 -2 33.5 -3t33.5 -1q33 0 58 6t44 20t34 37t28 57h18l-22 -154h-389v15zM276 720q25 27 50 27q19 0 32.5 -12.5t13.5 -29.5q0 -23 -22 -36l-164 -100h-51z" />
    <glyph glyph-name="Zdotaccent" unicode="&#x17b;" horiz-adv-x="667" 
d="M404 706h-93q-53 0 -90.5 -7.5t-64 -26.5t-44 -50.5t-31.5 -79.5h-19l31 193h504l-381 -699h114q66 0 110.5 7.5t75.5 28t52.5 56.5t40.5 93l9 28h19l-31 -249h-589zM270 862q0 25 19.5 44t44.5 19t43.5 -19t18.5 -44t-18.5 -44t-43.5 -19t-44.5 19t-19.5 44z" />
    <glyph glyph-name="zdotaccent" unicode="&#x17c;" horiz-adv-x="444" 
d="M9 15l248 450q-18 2 -36 3.5t-35 1.5q-58 0 -87 -22.5t-41 -79.5h-16l4 135h376v-15l-251 -450q17 -2 33.5 -3t33.5 -1q33 0 58 6t44 20t34 37t28 57h18l-22 -154h-389v15zM160 645q0 25 19.5 44t44.5 19t43.5 -19t18.5 -44t-18.5 -44t-43.5 -19t-44.5 19t-19.5 44z" />
    <glyph glyph-name="Zcaron" unicode="&#x17d;" horiz-adv-x="667" 
d="M404 706h-93q-53 0 -90.5 -7.5t-64 -26.5t-44 -50.5t-31.5 -79.5h-19l31 193h504l-381 -699h114q66 0 110.5 7.5t75.5 28t52.5 56.5t40.5 93l9 28h19l-31 -249h-589zM170 959h49l114 -101l113 101h50l-124 -171h-78z" />
    <glyph glyph-name="zcaron" unicode="&#x17e;" horiz-adv-x="444" 
d="M9 15l248 450q-18 2 -36 3.5t-35 1.5q-58 0 -87 -22.5t-41 -79.5h-16l4 135h376v-15l-251 -450q17 -2 33.5 -3t33.5 -1q33 0 58 6t44 20t34 37t28 57h18l-22 -154h-389v15zM60 742h49l114 -101l113 101h50l-124 -171h-78z" />
    <glyph glyph-name="florin" unicode="&#x192;" 
d="M76 488h116q45 271 206 271q43 0 68.5 -22.5t25.5 -60.5q0 -26 -14 -41t-39 -15q-23 0 -37 13t-14 35q0 13 3.5 21t8 13.5t8 9.5t3.5 7q0 11 -19 11q-16 0 -29 -7.5t-22 -26t-14 -48.5t-5 -75v-85h120v-41h-121v-116q0 -85 -4.5 -149t-14 -112t-24.5 -82t-35 -58
q-31 -35 -72.5 -56.5t-77.5 -21.5q-38 0 -64 22.5t-26 54.5q0 27 16 43t42 16q23 0 36 -12t13 -32q0 -18 -8.5 -29t-8.5 -19q0 -13 18 -13q22 0 36.5 17t22.5 46.5t11.5 68t3.5 81.5q1 103 1.5 192.5t3.5 158.5h-114v41z" />
    <glyph glyph-name="Scommaaccent" unicode="&#x218;" horiz-adv-x="556" 
d="M37 234h19q6 -46 26 -84.5t50 -66.5t67.5 -44t79.5 -16q60 0 96 32t36 84q0 32 -18.5 57t-47 46t-64 40.5t-69.5 40.5q-42 26 -73 47.5t-51.5 45.5t-31 53t-10.5 69q0 46 16.5 85t45.5 67t69 44t87 16q31 0 57 -6t47 -13.5t37.5 -13.5t28.5 -6q30 0 36 39h16v-226h-18
q-21 91 -71 139t-122 48q-57 0 -92 -31.5t-35 -80.5q0 -29 12 -46.5t36.5 -33.5t61 -34.5t85.5 -48.5q47 -29 81 -52.5t56.5 -49t33 -56.5t10.5 -74q0 -50 -16.5 -90.5t-46.5 -69t-73.5 -44t-97.5 -15.5q-42 0 -71.5 7t-51 15t-38 15t-32.5 7q-18 0 -28.5 -12t-12.5 -32h-19
v249zM221 -219q28 16 37.5 31t9.5 29q0 12 -7.5 17.5t-16 11t-16 14t-7.5 26.5q0 21 14 35.5t36 14.5q28 0 46 -21t18 -53q0 -42 -28.5 -76t-76.5 -51z" />
    <glyph glyph-name="scommaaccent" unicode="&#x219;" horiz-adv-x="389" 
d="M21 158h19q20 -60 61 -94t92 -34q32 0 53 18t21 44q0 11 -4 20.5t-17 21.5t-38 28.5t-68 42.5q-33 19 -55.5 36.5t-36.5 36.5t-20.5 39.5t-6.5 46.5q0 31 11.5 58t31.5 46t48.5 30t61.5 11q25 0 42.5 -4t30.5 -8.5t23 -8.5t21 -4q17 0 36 25h18v-158h-18q-21 60 -59 91.5
t-92 31.5q-29 0 -47.5 -14.5t-18.5 -34.5q0 -12 2 -20.5t12 -18.5t30 -23.5t55 -35.5q32 -21 61 -40t51 -40t35 -45.5t13 -55.5q0 -33 -12 -61t-33.5 -48t-52 -31t-66.5 -11q-24 0 -44 4t-37 9.5t-30 9.5t-23 4q-24 0 -31 -27h-19v163zM138 -219q28 16 37.5 31t9.5 29
q0 12 -7.5 17.5t-16 11t-16 14t-7.5 26.5q0 21 14 35.5t36 14.5q28 0 46 -21t18 -53q0 -42 -28.5 -76t-76.5 -51z" />
    <glyph glyph-name="uni021A" unicode="&#x21a;" horiz-adv-x="667" 
d="M159 19h10q52 0 69.5 16t17.5 59v590q0 12 -4.5 16.5t-16.5 4.5h-36q-37 0 -63.5 -7.5t-45 -24.5t-30.5 -45t-20 -68h-16l8 175h601l9 -175h-16q-8 40 -20 68t-30.5 45t-45 24.5t-63.5 7.5h-36q-12 0 -16.5 -4.5t-4.5 -16.5v-590q0 -43 17.5 -59t69.5 -16h10v-19h-348v19
zM276 -219q28 16 37.5 31t9.5 29q0 12 -7.5 17.5t-16 11t-16 14t-7.5 26.5q0 21 14 35.5t36 14.5q28 0 46 -21t18 -53q0 -42 -28.5 -76t-76.5 -51z" />
    <glyph glyph-name="uni021B" unicode="&#x21b;" horiz-adv-x="333" 
d="M312 84q-44 -89 -132 -89q-31 0 -54.5 11t-34.5 31t-15 41t-4 62v317h-56v22q27 20 49.5 39t43 42.5t41 53t43.5 70.5h15v-181h102v-46h-102v-349q0 -35 7 -47.5t26 -12.5q12 0 23.5 9t31.5 36zM110 -219q28 16 37.5 31t9.5 29q0 12 -7.5 17.5t-16 11t-16 14t-7.5 26.5
q0 21 14 35.5t36 14.5q28 0 46 -21t18 -53q0 -42 -28.5 -76t-76.5 -51z" />
    <glyph glyph-name="uni0237" unicode="&#x237;" horiz-adv-x="333" 
d="M119 427q0 32 -14 45t-56 13v18h206v-522q0 -47 -13 -86.5t-37 -68t-59 -44.5t-79 -16q-52 0 -87.5 25t-35.5 65q0 26 19 43.5t47 17.5q26 0 43 -14.5t17 -35.5q0 -9 -2.5 -15t-6 -11t-6 -10t-2.5 -12q0 -19 23 -19q20 0 31.5 17t11.5 46v564z" />
    <glyph glyph-name="circumflex" unicode="&#x2c6;" 
d="M211 742h78l124 -171h-50l-113 99l-114 -99h-49z" />
    <glyph glyph-name="caron" unicode="&#x2c7;" 
d="M87 742h49l114 -101l113 101h50l-124 -171h-78z" />
    <glyph glyph-name="uni02C9" unicode="&#x2c9;" 
d="M106 661h287v-63h-287v63z" />
    <glyph glyph-name="breve" unicode="&#x2d8;" 
d="M141 733q14 -89 107 -89q96 0 111 89h39q-6 -78 -45.5 -118.5t-106.5 -40.5t-104.5 41.5t-39.5 117.5h39z" />
    <glyph glyph-name="dotaccent" unicode="&#x2d9;" 
d="M187 645q0 25 19.5 44t44.5 19t43.5 -19t18.5 -44t-18.5 -44t-43.5 -19t-44.5 19t-19.5 44z" />
    <glyph glyph-name="ring" unicode="&#x2da;" 
d="M353 665q0 -21 -8 -40t-22 -33t-33 -22t-40 -8t-40 8t-33 22t-22 33t-8 40t8 40t22 33t33 22t40 8t40 -8t33 -22t22 -33t8 -40zM312 665q0 26 -18 43.5t-44 17.5t-43.5 -17.5t-17.5 -43.5t17.5 -44t43.5 -18t44 18t18 44z" />
    <glyph glyph-name="ogonek" unicode="&#x2db;" 
d="M378 -162q-35 -26 -71.5 -43.5t-81.5 -17.5q-42 0 -72.5 25t-30.5 67q0 37 22.5 63.5t57.5 44.5t76.5 28.5t79.5 15.5v-16q-19 -8 -45 -18.5t-50 -25.5t-40.5 -34.5t-16.5 -45.5q0 -21 16 -32.5t36 -11.5q30 0 53 14t48 28z" />
    <glyph glyph-name="tilde" unicode="&#x2dc;" 
d="M77 585q11 52 40 82.5t68 30.5q25 0 45 -6.5t37.5 -15t34 -15t34.5 -6.5q38 0 52 44h36q-7 -32 -18.5 -53.5t-26 -35t-31 -19t-33.5 -5.5q-22 0 -43 6.5t-40.5 15t-37 15t-31.5 6.5q-35 0 -50 -44h-36z" />
    <glyph glyph-name="hungarumlaut" unicode="&#x2dd;" 
d="M218 721q10 11 20 18.5t29 7.5q15 0 30 -8.5t15 -34.5q0 -22 -20 -34l-166 -101h-50zM390 721q10 11 20 18.5t29 7.5q15 0 30 -8.5t15 -34.5q0 -22 -20 -34l-166 -101h-50z" />
    <glyph glyph-name="Delta" unicode="&#x394;" horiz-adv-x="817" 
d="M382 691h33l351 -691h-738zM539 59q10 0 10 6q0 1 -3 7l-213 427l-213 -420q-5 -12 -5 -14q0 -6 10 -6h414z" />
    <glyph glyph-name="Omega" unicode="&#x3a9;" horiz-adv-x="800" 
d="M63 191h24q0 -19 3 -30.5t12 -18t25 -9t42 -2.5h144v61q-59 6 -107 32.5t-82 65.5t-53 86.5t-19 96.5q0 59 25 107.5t70.5 83t110 53t142.5 18.5q82 0 147.5 -18t111.5 -51.5t70.5 -81t24.5 -107.5q0 -49 -18.5 -96.5t-52.5 -87t-82 -66.5t-108 -35v-61h140q19 0 35 2
t28 8t18 18t5 32h23v-191h-286v225q41 13 64 40t34.5 62t14 75t2.5 79q0 106 -42.5 162.5t-123.5 56.5q-85 0 -128.5 -60t-43.5 -166q0 -49 4 -88t16.5 -69.5t35 -53t59.5 -38.5v-225h-285v191z" />
    <glyph glyph-name="mu" unicode="&#x3bc;" horiz-adv-x="556" 
d="M7 -216q38 0 50 9.5t12 36.5v328v291q0 36 -50 36v18h187v-388q0 -61 42 -61q17 0 42.5 21.5t47.5 50.5v323q0 36 -53 36v18h190v-434q0 -17 11.5 -24.5t38.5 -8.5v-19q-43 -1 -95 -9t-92 -17v83q-38 -39 -68 -56.5t-64 -20.5v-231h-199v18z" />
    <glyph glyph-name="pi" unicode="&#x3c0;" horiz-adv-x="673" 
d="M444 -14q-62 2 -90.5 36t-28.5 120v26.5t0.5 42t1 49t1 47t0.5 35v14.5h-115q-2 -49 -3.5 -82t-3.5 -57t-3.5 -43t-3.5 -40q-14 -145 -97 -146h-2q-21 0 -35.5 9.5t-22.5 26t-11.5 38t-3.5 45.5l1 24h33v-2q0 -4 1 -13t4 -18.5t9.5 -17t17.5 -7.5q14 0 26 10t21 27.5
t15.5 39.5t9.5 46q3 20 5 36.5t3 34t2 39t2 53.5h-24q-39 0 -59 -8t-26 -41h-31q2 49 9.5 81t27 51t53.5 26t89 7q59 0 121.5 -3t145.5 -6h15q27 0 36 6t12 27h30q-2 -48 -7.5 -74.5t-17.5 -43.5q-11 -15 -30.5 -21t-59.5 -7v-22t-0.5 -34t-0.5 -41.5v-44.5v-54.5t-1 -59.5
v-6q0 -33 8 -40.5t25 -7.5q9 0 16 5t12.5 17.5t10 34.5t7.5 56h34v-6q0 -44 -10.5 -75.5t-27.5 -51t-39.5 -28.5t-46.5 -9h-4z" />
    <glyph glyph-name="endash" unicode="&#x2013;" 
d="M-6 296h506v-80h-506v80z" />
    <glyph glyph-name="emdash" unicode="&#x2014;" horiz-adv-x="1000" 
d="M130 296h740v-80h-740v80z" />
    <glyph glyph-name="quoteleft" unicode="&#x2018;" horiz-adv-x="333" 
d="M221 729q-51 -30 -81.5 -64.5t-30.5 -63.5q0 -20 14 -20q8 0 10 1q7 1 13 1.5t11 0.5q34 0 55.5 -21t21.5 -55q0 -37 -23 -60t-59 -23q-45 0 -74 33t-29 87q0 66 46.5 121t125.5 84v-21z" />
    <glyph glyph-name="quoteright" unicode="&#x2019;" horiz-adv-x="333" 
d="M69 446q52 30 82.5 64.5t30.5 63.5q0 20 -15 20q-7 0 -10 -1q-6 -2 -12 -2h-12q-32 0 -54 22.5t-22 55.5q0 35 23 58t59 23q45 0 74 -34t29 -86q0 -32 -12.5 -63t-35 -58t-54.5 -48.5t-71 -35.5v21z" />
    <glyph glyph-name="quotesinglbase" unicode="&#x201a;" horiz-adv-x="333" 
d="M47 -153q52 31 82.5 65.5t30.5 62.5q0 9 -4 15t-11 6q-2 0 -4.5 -0.5t-5.5 -0.5q-12 -3 -24 -3q-32 0 -54 23t-22 56q0 35 23 58t59 23q45 0 74 -34t29 -86q0 -33 -12.5 -64t-35 -58t-54.5 -48.5t-71 -35.5v21z" />
    <glyph glyph-name="quotedblleft" unicode="&#x201c;" 
d="M441 729q-52 -30 -82.5 -64.5t-30.5 -63.5q0 -20 15 -20q7 0 10 1q6 1 12 1.5t12 0.5q34 0 55 -21t21 -55q0 -37 -23 -60t-59 -23q-45 0 -74 33t-29 87q0 32 12.5 63t35 58t54.5 48.5t71 35.5v-21zM219 729q-52 -30 -82.5 -64.5t-30.5 -63.5q0 -20 15 -20q8 0 10 1
q6 1 12 1.5t12 0.5q34 0 55 -21t21 -55q0 -37 -22.5 -60t-59.5 -23q-45 0 -74 33t-29 87q0 32 12.5 63t35 58t54.5 48.5t71 35.5v-21z" />
    <glyph glyph-name="quotedblright" unicode="&#x201d;" 
d="M281 446q51 30 81.5 64.5t30.5 63.5q0 20 -15 20q-7 0 -10 -1q-6 -2 -12 -2h-11q-32 0 -54.5 22.5t-22.5 55.5q0 35 23.5 58t58.5 23q45 0 74 -34t29 -86q0 -32 -12.5 -63t-35 -58t-54 -48.5t-70.5 -35.5v21zM59 446q51 30 81.5 64.5t30.5 63.5q0 20 -14 20q-8 0 -10 -1
q-7 -2 -13 -2h-11q-32 0 -54.5 22.5t-22.5 55.5q0 35 23.5 58t58.5 23q45 0 74 -34t29 -86q0 -32 -12.5 -63t-35 -58t-54 -48.5t-70.5 -35.5v21z" />
    <glyph glyph-name="quotedblbase" unicode="&#x201e;" 
d="M270 -153q52 31 82.5 65.5t30.5 62.5q0 9 -4 15t-11 6q-2 0 -4.5 -0.5t-5.5 -0.5q-12 -3 -24 -3q-32 0 -54 23t-22 56q0 35 23 58t59 23q45 0 74 -34t29 -86q0 -33 -12.5 -64t-35 -58t-54.5 -48.5t-71 -35.5v21zM47 -153q52 31 82.5 65.5t30.5 62.5q0 9 -4 15t-11 6
q-2 0 -4.5 -0.5t-5.5 -0.5q-12 -3 -24 -3q-32 0 -54 23t-22 56q0 35 23 58t59 23q45 0 74 -34t29 -86q0 -33 -12.5 -64t-35 -58t-54.5 -48.5t-71 -35.5v21z" />
    <glyph glyph-name="dagger" unicode="&#x2020;" 
d="M233 -51q-4 92 -10 152.5t-13 102.5t-15.5 70.5t-18.5 56.5q26 38 40.5 78.5t14.5 85.5v12h-10q-19 0 -35.5 -7t-33 -15t-33 -15t-34.5 -7q-49 0 -49 54t56 52q15 0 31 -6.5t32.5 -14.5t33 -14.5t31.5 -6.5h11v17q0 24 -7.5 45.5t-16 41t-16 37t-7.5 32.5q0 23 15.5 36.5
t43.5 13.5t44.5 -13.5t16.5 -36.5q0 -15 -7.5 -32.5t-16 -37t-16 -41t-7.5 -45.5v-17h11q15 0 31.5 6.5t33 14.5t32.5 14.5t31 6.5q56 2 56 -52t-49 -54q-18 0 -34.5 7t-33 15t-33 15t-35.5 7h-10v-12q0 -45 14.5 -85.5t40.5 -78.5q-10 -28 -18.5 -56.5t-15.5 -70.5
t-13 -102.5t-10 -152.5l-1 -26h-20z" />
    <glyph glyph-name="daggerdbl" unicode="&#x2021;" 
d="M229 147h-11q-15 0 -31.5 -6.5t-33 -14.5t-32.5 -14.5t-31 -6.5q-56 -2 -56 52t49 54q18 0 34.5 -7t33 -15t33 -15t35.5 -7h10v12q0 22 -2 40.5t-7.5 36.5t-15 37.5t-23.5 43.5q14 24 23.5 43t15 37t7.5 36.5t2 41.5v12h-10q-19 0 -35.5 -7t-33 -15t-33 -15t-34.5 -7
q-49 0 -49 54t56 52q15 0 31 -6.5t32.5 -14.5t33 -14.5t31.5 -6.5h11v17q0 24 -7.5 45.5t-16 41t-16 37t-7.5 32.5q0 23 15.5 36.5t43.5 13.5t44.5 -13.5t16.5 -36.5q0 -15 -7.5 -32.5t-16 -37t-16 -41t-7.5 -45.5v-17h11q15 0 31.5 6.5t33 14.5t32.5 14.5t31 6.5
q56 2 56 -52t-49 -54q-18 0 -34.5 7t-33 15t-33 15t-35.5 7h-10v-12q0 -23 2 -41.5t7.5 -36.5t15 -37t23.5 -43q-14 -24 -23.5 -43.5t-15 -37.5t-7.5 -36.5t-2 -40.5v-12h10q19 0 35.5 7t33 15t33 15t34.5 7q49 0 49 -54t-56 -52q-15 0 -31 6.5t-32.5 14.5t-33 14.5
t-31.5 6.5h-11v-17q0 -24 7.5 -46t16 -41.5t16 -36.5t7.5 -32q0 -23 -16.5 -36.5t-44.5 -13.5t-43.5 13.5t-15.5 36.5q0 15 7.5 32t16 36.5t16 41.5t7.5 46v17z" />
    <glyph glyph-name="bullet" unicode="&#x2022;" 
d="M80 340q0 35 13.5 66t36.5 54t54 36.5t66 13.5t66 -13.5t54 -36.5t36.5 -54t13.5 -66t-13.5 -66t-36.5 -54t-54 -36.5t-66 -13.5t-66 13.5t-54 36.5t-36.5 54t-13.5 66z" />
    <glyph glyph-name="ellipsis" unicode="&#x2026;" horiz-adv-x="1000" 
d="M249 69q0 -33 -23.5 -57t-57.5 -24t-57.5 24t-23.5 57q0 34 23.5 57.5t57.5 23.5t57.5 -23.5t23.5 -57.5zM583 69q0 -33 -23.5 -57t-57.5 -24t-57.5 24t-23.5 57q0 34 23.5 57.5t57.5 23.5t57.5 -23.5t23.5 -57.5zM913 69q0 -33 -23.5 -57t-57.5 -24t-57.5 24t-23.5 57
q0 34 23.5 57.5t57.5 23.5t57.5 -23.5t23.5 -57.5z" />
    <glyph glyph-name="perthousand" unicode="&#x2030;" horiz-adv-x="1000" 
d="M315 538q0 -38 -11 -69t-31.5 -53t-49 -34t-62.5 -12q-70 0 -112 44t-42 119q0 37 11.5 68t32 53.5t49.5 34.5t64 12q69 0 110 -44t41 -119zM501 723h55l-414 -755h-54zM986 156q0 -78 -42 -123t-114 -45q-34 0 -62 11.5t-48 33t-31 51.5t-11 66q0 78 43 123t115 45
q69 0 109.5 -43.5t40.5 -118.5zM639 156q0 -78 -42 -123t-114 -45q-69 0 -110.5 44.5t-41.5 117.5q0 78 43 123t115 45q69 0 109.5 -43.5t40.5 -118.5zM217 555q0 61 -12.5 88.5t-39.5 27.5q-32 0 -46 -34t-14 -115q0 -121 54 -121q32 0 45 35t13 119zM888 177
q0 112 -53 112q-32 0 -45.5 -34.5t-13.5 -115.5q0 -63 13.5 -92t42.5 -29q31 0 43.5 35t12.5 124zM541 178q0 111 -54 111q-31 0 -44.5 -34.5t-13.5 -115.5q0 -63 13.5 -92t41.5 -29q32 0 44.5 36t12.5 124z" />
    <glyph glyph-name="guilsinglleft" unicode="&#x2039;" horiz-adv-x="333" 
d="M272 56q-34 31 -63.5 55.5t-57 45.5t-55.5 39.5t-60 38.5v28q30 20 56.5 38t53.5 38.5t57.5 45t68.5 57.5l16 -11q-10 -20 -24 -44t-30 -49t-32 -48t-30 -41q15 -19 32.5 -43.5t33.5 -49.5t29.5 -47.5t20.5 -37.5z" />
    <glyph glyph-name="guilsinglright" unicode="&#x203a;" horiz-adv-x="333" 
d="M37 71q7 15 20.5 37.5t29.5 47.5t33.5 49.5t32.5 43.5q-14 18 -30 41t-32 48t-30 49t-24 44l16 11q38 -33 68 -57.5t57 -45t53.5 -38.5t57.5 -38v-28q-32 -20 -60 -38.5t-56 -39.5t-57 -45.5t-63 -55.5z" />
    <glyph glyph-name="fraction" unicode="&#x2044;" horiz-adv-x="167" 
d="M269 714h53l-447 -737h-53z" />
    <glyph glyph-name="Euro" unicode="&#x20ac;" 
d="M490 149q-9 -29 -23 -52.5t-31 -41.5q-28 -30 -60 -46t-72 -16q-42 0 -74 15t-55 36q-22 19 -39.5 44.5t-30.5 54t-21.5 58.5t-12.5 58h-101l26 65h68q-2 14 -2 26.5v25.5v20.5t1 19.5h-93l26 65h74q4 30 13 59.5t21.5 56.5t28.5 50.5t34 41.5q29 28 63.5 41t66.5 13
q26 0 50 -9q16 -5 24.5 -10.5t20.5 -14.5q13 -9 19.5 -12t10.5 -3q8 0 15 7t12 19.5t7 22.5h16l7 -237h-16q-6 35 -20.5 71.5t-35.5 67.5q-11 16 -24 29.5t-30 23.5q-26 17 -56 17q-49 0 -70 -63q-6 -17 -9.5 -42t-5 -50.5t-1.5 -47v-31.5h182l-26 -65h-157q-1 -11 -1 -21.5
v-21.5v-25.5t1 -23.5h136l-26 -65h-109q0 -21 1 -45t4 -48t8 -47t13 -41q6 -14 15 -27t22 -21q16 -9 36 -9q27 0 54 14.5t48 36.5q8 9 24.5 30.5t28.5 55.5z" />
    <glyph glyph-name="afii61289" unicode="&#x2113;" horiz-adv-x="484" 
d="M95 185l-58 -37l-15 34l73 51v128q0 52 2.5 91.5t8.5 69.5t16 53t25 43q29 40 62 56t66 16q29 0 50.5 -11.5t35.5 -31.5t20.5 -46t6.5 -54q0 -88 -44 -156.5t-119 -132.5v-60q0 -74 20.5 -103t67.5 -29q37 0 65.5 23.5t50.5 54.5l24 -24q-35 -63 -82.5 -97t-113.5 -34
q-79 0 -120.5 40t-41.5 131v25zM225 316q38 42 60.5 100.5t22.5 133.5q0 16 -2 33.5t-6.5 32.5t-12.5 24.5t-20 9.5q-14 0 -22 -11.5t-12.5 -37t-6 -66.5t-1.5 -101v-118z" />
    <glyph glyph-name="trademark" unicode="&#x2122;" horiz-adv-x="1000" 
d="M109 358q18 1 28 3t14.5 7t5 13.5t0.5 22.5v303h-44q-30 0 -44.5 -17t-19.5 -43h-26v88h366v-88h-26q-5 26 -20 43t-45 17h-45v-302q0 -15 1 -24t6 -14t15 -7t28 -2v-27h-194v27zM446 358q18 1 27.5 4t14 10t5.5 19t1 31v237q-20 50 -67 50v26h143l140 -279l146 279h119
v-26q-33 -2 -41.5 -12.5t-8.5 -34.5v-260q0 -15 0.5 -23.5t5 -12.5t14.5 -5.5t30 -2.5v-27h-194v27q19 1 29.5 3t15 6.5t5 12.5t0.5 22v222h-2l-148 -293h-12l-140 291h-2v-199q0 -19 1.5 -31t7 -19t15.5 -10.5t28 -4.5v-27h-133v27z" />
    <glyph glyph-name="uni2126" unicode="&#x2126;" horiz-adv-x="800" 
d="M63 191h24q0 -19 3 -30.5t12 -18t25 -9t42 -2.5h144v61q-59 6 -107 32.5t-82 65.5t-53 86.5t-19 96.5q0 59 25 107.5t70.5 83t110 53t142.5 18.5q82 0 147.5 -18t111.5 -51.5t70.5 -81t24.5 -107.5q0 -49 -18.5 -96.5t-52.5 -87t-82 -66.5t-108 -35v-61h140q19 0 35 2
t28 8t18 18t5 32h23v-191h-286v225q41 13 64 40t34.5 62t14 75t2.5 79q0 106 -42.5 162.5t-123.5 56.5q-85 0 -128.5 -60t-43.5 -166q0 -49 4 -88t16.5 -69.5t35 -53t59.5 -38.5v-225h-285v191z" />
    <glyph glyph-name="estimated" unicode="&#x212e;" horiz-adv-x="793" 
d="M200 118q81 -81 196 -81q85 0 147.5 39t113.5 124l47 -28q-31 -48 -63 -83t-68.5 -57t-79.5 -32.5t-97 -10.5q-80 0 -144.5 29t-110 80t-70 119.5t-24.5 146.5q0 79 24.5 147t70 118.5t110 79.5t144.5 29q78 0 142.5 -27.5t110.5 -77t71.5 -118.5t26.5 -151h-547v-246z
M594 413v196q-86 81 -199 81q-114 0 -195 -81v-196h394z" />
    <glyph glyph-name="partialdiff" unicode="&#x2202;" horiz-adv-x="556" 
d="M235 -12q-51 1 -92.5 16t-71 41t-45.5 63t-16 82v8q2 51 19 94t46 73.5t67.5 47.5t83.5 17q66 0 101.5 -25t45.5 -67h7q10 69 15 122.5t5 93.5q0 117 -50 119h-1q-16 0 -26.5 -9.5t-19.5 -24t-17.5 -31t-20 -31t-27.5 -24t-39 -9.5h-3q-28 1 -47 19t-19 47q0 22 12 40
t32.5 31.5t49 21t61.5 7.5q57 0 103 -22t77.5 -63.5t48.5 -101t17 -134.5q0 -54 -10 -113.5t-36 -113.5q-40 -85 -103 -129.5t-141 -44.5h-6zM162 106q0 -90 70 -90q69 0 92 113q4 20 8 44t7 47.5t4.5 44.5t1.5 35q0 89 -70 92h-3q-31 0 -51.5 -27t-33 -68t-18 -89.5
t-7.5 -91.5v-10z" />
    <glyph glyph-name="uni2206" unicode="&#x2206;" horiz-adv-x="817" 
d="M382 691h33l351 -691h-738zM539 59q10 0 10 6q0 1 -3 7l-213 427l-213 -420q-5 -12 -5 -14q0 -6 10 -6h414z" />
    <glyph glyph-name="product" unicode="&#x220f;" horiz-adv-x="800" 
d="M34 27q24 2 40 8t25 18.5t13 33t4 52.5v474q0 25 -1 43t-8.5 29.5t-24.5 17t-48 6.5v26h732v-26q-11 0 -25 -0.5t-27 -7t-22 -23.5t-9 -50v-535q0 -36 16.5 -49.5t65.5 -16.5v-27h-328v27q24 1 40 6t25.5 16t13 30t3.5 48v508q0 32 -14 46.5t-46 14.5h-106
q-42 0 -57.5 -16.5t-15.5 -59.5v-523q0 -38 17 -53t62 -17v-27h-325v27z" />
    <glyph glyph-name="summation" unicode="&#x2211;" horiz-adv-x="600" 
d="M15 32l256 321l-255 349v33h554l11 -197h-29q-6 42 -16.5 72t-29 49.5t-48 28.5t-73.5 9h-174l182 -272l-219 -286h244q41 0 68 4.5t44 15.5t26 30t15 48h28l-26 -237h-558v32z" />
    <glyph glyph-name="minus" unicode="&#x2212;" horiz-adv-x="600" 
d="M25 292h550v-78h-550v78z" />
    <glyph glyph-name="uni2215" unicode="&#x2215;" horiz-adv-x="167" 
d="M269 714h53l-447 -737h-53z" />
    <glyph glyph-name="uni2219" unicode="&#x2219;" horiz-adv-x="250" 
d="M206 270q0 -34 -23.5 -57.5t-57.5 -23.5q-33 0 -57 23.5t-24 57.5q0 33 24 57t57 24q34 0 57.5 -24t23.5 -57z" />
    <glyph glyph-name="radical" unicode="&#x221a;" horiz-adv-x="446" 
d="M89 377l-86 -47l-13 43l172 100l134 -332l294 790h51l-354 -949h-32z" />
    <glyph glyph-name="infinity" unicode="&#x221e;" horiz-adv-x="600" 
d="M584 263q-4 -84 -43 -132t-102 -48q-43 0 -73.5 30t-53.5 90q-21 -43 -40.5 -67t-37.5 -36t-34 -14.5t-30 -2.5q-29 0 -56 11t-47.5 32.5t-33 52.5t-12.5 72q0 39 10.5 72.5t29 57.5t45.5 37.5t60 13.5q38 -1 69 -26.5t60 -91.5q28 60 61 89t78 29q66 0 106.5 -45.5
t43.5 -123.5zM553 267q0 42 -31 66t-74 25q-42 0 -69 -35.5t-49 -87.5q16 -36 43.5 -51t66.5 -15q51 0 82 26t31 72zM276 279q-18 38 -46 54t-66 16q-48 0 -79 -25.5t-31 -67.5q0 -20 7.5 -37.5t21 -30t31.5 -20t38 -7.5q24 0 43.5 9.5t35 25.5t26.5 37.5t19 45.5z" />
    <glyph glyph-name="integral" unicode="&#x222b;" horiz-adv-x="488" 
d="M94 -187q-17 1 -35 5t-33.5 12t-25.5 20t-10 29v3q2 23 16 40t37 17h2q20 -1 30.5 -12.5t17.5 -25t13.5 -25t19.5 -12.5h2q23 0 35 38t15 125l15 398q2 33 5.5 69t9.5 69.5t15 63t21 50.5q22 38 62.5 59.5t92.5 21.5q45 0 74 -19t29 -50q0 -20 -15.5 -37t-35.5 -17h-4
q-23 2 -34 14t-18 26t-12 25t-15 11q-21 0 -34 -27t-15 -76l-13 -394q-2 -43 -5.5 -86.5t-9.5 -83t-14 -73.5t-18 -58q-9 -21 -24.5 -39t-35.5 -31.5t-44.5 -21.5t-51.5 -8h-9z" />
    <glyph glyph-name="approxequal" unicode="&#x2248;" horiz-adv-x="600" 
d="M15 391q31 29 66 44.5t67 15.5q33 0 68 -11.5t68 -26t62 -26t50 -11.5q42 0 76.5 19t63.5 54v-106q-65 -57 -137 -57q-32 0 -65 11.5t-65.5 26t-62.5 26t-57 11.5q-9 0 -22 -1.5t-29.5 -8.5t-37 -21.5t-45.5 -41.5v103zM15 179q63 60 133 60q32 0 67 -11.5t68.5 -26
t62.5 -26t50 -11.5q42 0 76.5 19t63.5 54v-106q-66 -57 -137 -57q-34 0 -67 11.5t-64.5 26t-61 26t-57.5 11.5q-10 0 -23 -1.5t-29.5 -8.5t-36.5 -21.5t-45 -41.5v103z" />
    <glyph glyph-name="notequal" unicode="&#x2260;" horiz-adv-x="600" 
d="M161 135h-137v78h191l54 79h-245v78h298l88 127h97l-87 -127h154v-78h-207l-54 -79h261v-78h-314l-80 -116h-99z" />
    <glyph glyph-name="lessequal" unicode="&#x2264;" horiz-adv-x="600" 
d="M24 256v78l544 168v-84l-424 -121l426 -109v-82zM23 82h550v-78h-550v78z" />
    <glyph glyph-name="greaterequal" unicode="&#x2265;" horiz-adv-x="600" 
d="M26 188l426 109l-424 121v84l544 -168v-78l-546 -150v82zM23 82h550v-78h-550v78z" />
    <glyph glyph-name="lozenge" unicode="&#x25ca;" horiz-adv-x="553" 
d="M232 -34l-185 362l185 367h88l185 -367l-185 -362h-88zM409 325l-133 282h-2l-131 -277l133 -276h3z" />
    <glyph glyph-name="uniF8FF" unicode="&#xf8ff;" horiz-adv-x="485" 
d="M210 174h53v-63h-53v63zM211 238q0 25 2.5 43t9 32.5t17.5 27.5t28 28q30 29 38 46t8 34q0 34 -21.5 57t-50.5 23t-50.5 -20.5t-26.5 -69.5l-48 8q7 69 42 99.5t86 30.5q52 0 85 -33.5t33 -90.5q0 -31 -12 -55.5t-48 -57.5q-16 -14 -25 -24t-13.5 -19.5t-6 -20.5
t-1.5 -26v-28h-46v16zM438 47v585h-391v-585h391zM0 680h485v-680h-485v680z" />
    <glyph glyph-name="glyph290" 
d="M123 886q-22 13 -22 36q0 17 13.5 29.5t32.5 12.5q24 0 50 -27l141 -151h-51z" />
    <glyph glyph-name="glyph292" 
d="M303 937q25 27 50 27q19 0 32.5 -12.5t13.5 -29.5q0 -23 -22 -36l-164 -100h-51z" />
    <glyph glyph-name="glyph294" 
d="M211 959h78l124 -171h-50l-113 99l-114 -99h-49z" />
    <glyph glyph-name="glyph296" 
d="M87 959h49l114 -101l113 101h50l-124 -171h-78z" />
    <glyph glyph-name="glyph297" 
d="M193 571q25 16 33.5 31t8.5 29q0 12 -6.5 17.5t-14.5 11t-14.5 14t-6.5 26.5q0 21 12.5 35.5t32.5 14.5q25 0 41.5 -21t16.5 -53q0 -42 -25 -76t-70 -51z" />
    <glyph glyph-name="glyph299" 
d="M77 802q11 52 40 82.5t68 30.5q25 0 45 -6.5t37.5 -15t34 -15t34.5 -6.5q38 0 52 44h36q-7 -32 -18.5 -53.5t-26 -35t-31 -19t-33.5 -5.5q-22 0 -43 6.5t-40.5 15t-37 15t-31.5 6.5q-35 0 -50 -44h-36z" />
    <glyph glyph-name="glyph301" 
d="M398 860q0 -24 -17 -41t-42 -17t-42 17t-17 41q0 25 17.5 42t41.5 17q25 0 42 -17t17 -42zM220 860q0 -24 -17.5 -41t-41.5 -17q-25 0 -42 17t-17 41q0 25 17 42t42 17q24 0 41.5 -17t17.5 -42z" />
    <glyph glyph-name="glyph303" 
d="M106 878h287v-63h-287v63z" />
    <glyph glyph-name="glyph306" 
d="M141 950q14 -89 107 -89q96 0 111 89h39q-6 -78 -45.5 -118.5t-106.5 -40.5t-104.5 41.5t-39.5 117.5h39z" />
    <glyph glyph-name="glyph308" 
d="M353 882q0 -21 -8 -40t-22 -33t-33 -22t-40 -8t-40 8t-33 22t-22 33t-8 40t8 40t22 33t33 22t40 8t40 -8t33 -22t22 -33t8 -40zM312 882q0 26 -18 43.5t-44 17.5t-43.5 -17.5t-17.5 -43.5t17.5 -44t43.5 -18t44 18t18 44z" />
    <glyph glyph-name="glyph310" 
d="M218 938q10 11 20 18.5t29 7.5q15 0 30 -8.5t15 -34.5q0 -22 -20 -34l-166 -101h-50zM390 938q10 11 20 18.5t29 7.5q15 0 30 -8.5t15 -34.5q0 -22 -20 -34l-166 -101h-50z" />
    <glyph glyph-name="glyph312" 
d="M187 862q0 25 19.5 44t44.5 19t43.5 -19t18.5 -44t-18.5 -44t-43.5 -19t-44.5 19t-19.5 44z" />
    <glyph glyph-name="glyph315" 
d="M193 -219q28 16 37.5 31t9.5 29q0 12 -7.5 17.5t-16 11t-16 14t-7.5 26.5q0 21 14 35.5t36 14.5q28 0 46 -21t18 -53q0 -42 -28.5 -76t-76.5 -51z" />
    <glyph glyph-name="glyph316" 
d="M307 748q-28 -16 -37.5 -31t-9.5 -29q0 -12 7.5 -17.5t16 -11t16 -14t7.5 -26.5q0 -21 -14 -35.5t-36 -14.5q-28 0 -46 21t-18 53q0 42 28.5 76t76.5 51z" />
    </font>
</defs>
</svg>
